<svg width="13" height="10" viewBox="0 0 13 10" fill="none" xmlns="http://www.w3.org/2000/svg">
<path fill-rule="evenodd" clip-rule="evenodd" d="M0.0112263 9.12236C0.0112263 9.13183 0.0112263 9.1413 0.0224525 9.16025C0.0224525 9.16972 0.0336788 9.18867 0.0336788 9.19814C0.0336788 9.20761 0.044905 9.21708 0.044905 9.23603C0.0561313 9.2455 0.0561313 9.25498 0.0673575 9.27392C0.0785838 9.28339 0.0785838 9.29287 0.08981 9.30234C0.101036 9.31181 0.112263 9.32129 0.112263 9.33076C0.123489 9.34023 0.134715 9.3497 0.145941 9.35918L0.157168 9.36865C0.157168 9.36865 0.168394 9.36865 0.168394 9.37812C0.202073 9.40654 0.246978 9.42549 0.291883 9.43496C0.303109 9.43496 0.303109 9.43496 0.314335 9.44443C0.35924 9.45391 0.404145 9.46338 0.44905 9.46338H12.5622C12.6071 9.46338 12.652 9.45391 12.6969 9.44443C12.7081 9.44443 12.7081 9.44443 12.7193 9.43496C12.7642 9.41601 12.8092 9.39707 12.8428 9.37812C12.8428 9.37812 12.8541 9.37812 12.8541 9.36865L12.8653 9.35918C12.8765 9.3497 12.8877 9.34023 12.899 9.33076C12.9102 9.32129 12.9214 9.31181 12.9214 9.30234C12.9326 9.29287 12.9326 9.28339 12.9439 9.27392C12.9551 9.26445 12.9551 9.25498 12.9663 9.23603C12.9775 9.22656 12.9775 9.21708 12.9775 9.19814C12.9775 9.18867 12.9888 9.16972 12.9888 9.16025C12.9888 9.15077 13 9.1413 13 9.12236C13 9.11288 13 9.09394 13 9.08447C13 9.07499 13 9.07499 13 9.06552V0.388387C13 0.170511 12.7979 0 12.5397 0H0.460276C0.202073 0 0 0.170511 0 0.388387V9.06552C0 9.07499 0 9.07499 0 9.08447C0.0112263 9.09394 0.0112263 9.10341 0.0112263 9.12236ZM1.44814 8.6771L4.8497 5.24792L6.2642 6.08154C6.34279 6.1289 6.4326 6.14785 6.52241 6.14785C6.61222 6.14785 6.70203 6.1289 6.78061 6.08154L8.19512 5.24792L11.5967 8.6771H1.44814ZM12.1244 7.99511L8.94735 4.80276L12.1132 2.9366V7.99511H12.1244ZM0.931792 0.776755H12.1244V1.99875L6.53369 5.28583L0.931792 1.99875V0.776755ZM0.931792 2.9366L4.0976 4.80276L0.931792 7.99511V2.9366Z" fill="white"/>
</svg>
