<svg width="32" height="32" viewBox="0 0 32 32" fill="none" xmlns="http://www.w3.org/2000/svg">
<path d="M31.4626 14.3053L17.1052 1.22295C16.475 0.648643 15.5247 0.648705 14.8948 1.22289L0.537377 14.3054C0.0325652 14.7654 -0.134185 15.4741 0.11244 16.1109C0.359127 16.7477 0.959751 17.1592 1.64269 17.1592H3.93581V30.2667C3.93581 30.7864 4.35718 31.2078 4.87687 31.2078H12.7465C13.2662 31.2078 13.6875 30.7865 13.6875 30.2667V22.3082H18.3127V30.2668C18.3127 30.7865 18.734 31.2078 19.2537 31.2078H27.1229C27.6426 31.2078 28.064 30.7865 28.064 30.2668V17.1592H30.3576C31.0404 17.1592 31.6411 16.7477 31.8878 16.1109C32.1341 15.4741 31.9674 14.7654 31.4626 14.3053Z" fill="#FFA801"/>
</svg>
