<svg width="18" height="18" viewBox="0 0 18 18" fill="none" xmlns="http://www.w3.org/2000/svg">
<path d="M17.7 10.1996H17.4V9.29965C17.3992 8.70392 17.046 8.16512 16.5 7.92685V3.29965C16.4999 3.1804 16.4293 3.07255 16.32 3.02485C16.437 2.83727 16.4994 2.62075 16.5 2.39965C16.5 1.73691 15.9627 1.19965 15.3 1.19965C14.6373 1.19965 14.1 1.73691 14.1 2.39965C14.1012 2.61092 14.1588 2.81803 14.2668 2.99965H3.7332C3.84116 2.81803 3.89876 2.61092 3.9 2.39965C3.9 1.73691 3.36274 1.19965 2.7 1.19965C2.03726 1.19965 1.5 1.73691 1.5 2.39965C1.50064 2.62075 1.56296 2.83727 1.68 3.02485C1.57073 3.07255 1.50008 3.1804 1.5 3.29965V7.92685C0.954 8.16512 0.600788 8.70392 0.6 9.29965V10.1996H0.3C0.134325 10.1996 0 10.334 0 10.4996V14.6996C0 14.8653 0.134325 14.9996 0.3 14.9996H0.6V16.4996C0.6 16.6653 0.734325 16.7996 0.9 16.7996H2.1C2.26568 16.7996 2.4 16.6653 2.4 16.4996V14.9996H15.6V16.4996C15.6 16.6653 15.7343 16.7996 15.9 16.7996H17.1C17.2657 16.7996 17.4 16.6653 17.4 16.4996V14.9996H17.7C17.8657 14.9996 18 14.8653 18 14.6996V10.4996C18 10.334 17.8657 10.1996 17.7 10.1996ZM15.3 1.79965C15.6314 1.79965 15.9 2.06826 15.9 2.39965C15.9 2.73103 15.6314 2.99965 15.3 2.99965C14.9686 2.99965 14.7 2.73103 14.7 2.39965C14.7 2.06826 14.9686 1.79965 15.3 1.79965ZM2.7 1.79965C3.03139 1.79965 3.3 2.06826 3.3 2.39965C3.3 2.73103 3.03139 2.99965 2.7 2.99965C2.36861 2.99965 2.1 2.73103 2.1 2.39965C2.1 2.06826 2.36861 1.79965 2.7 1.79965ZM2.1 3.59965H15.9V7.79965H14.6922C14.8907 7.54153 14.9989 7.2253 15 6.89965V6.29965C14.999 5.47165 14.328 4.80062 13.5 4.79965H11.1C10.272 4.80062 9.60098 5.47165 9.6 6.29965V6.89965C9.60109 7.2253 9.70928 7.54153 9.9078 7.79965H8.0922C8.29073 7.54153 8.39891 7.2253 8.4 6.89965V6.29965C8.39902 5.47165 7.728 4.80062 6.9 4.79965H4.5C3.672 4.80062 3.00098 5.47165 3 6.29965V6.89965C3.00109 7.2253 3.10928 7.54153 3.3078 7.79965H2.1V3.59965ZM14.4 6.29965V6.89965C14.4 7.39671 13.9971 7.79965 13.5 7.79965H11.1C10.6029 7.79965 10.2 7.39671 10.2 6.89965V6.29965C10.2 5.80258 10.6029 5.39965 11.1 5.39965H13.5C13.9971 5.39965 14.4 5.80258 14.4 6.29965ZM7.8 6.29965V6.89965C7.8 7.39671 7.39706 7.79965 6.9 7.79965H4.5C4.00294 7.79965 3.6 7.39671 3.6 6.89965V6.29965C3.6 5.80258 4.00294 5.39965 4.5 5.39965H6.9C7.39706 5.39965 7.8 5.80258 7.8 6.29965ZM1.2 9.29965C1.2 8.80258 1.60294 8.39965 2.1 8.39965H15.9C16.3971 8.39965 16.8 8.80258 16.8 9.29965V10.1996H1.2V9.29965ZM1.8 16.1996H1.2V14.9996H1.8V16.1996ZM16.8 16.1996H16.2V14.9996H16.8V16.1996ZM17.4 14.3996H0.6V10.7996H17.4V14.3996Z" fill="#FFA801"/>
<path d="M2.69971 13.2H1.49971C1.33403 13.2 1.19971 13.3343 1.19971 13.5C1.19971 13.6657 1.33403 13.8 1.49971 13.8H2.69971C2.86538 13.8 2.99971 13.6657 2.99971 13.5C2.99971 13.3343 2.86538 13.2 2.69971 13.2Z" fill="#FFA801"/>
<path d="M16.4996 13.2H3.89961C3.73393 13.2 3.59961 13.3343 3.59961 13.5C3.59961 13.6657 3.73393 13.8 3.89961 13.8H16.4996C16.6653 13.8 16.7996 13.6657 16.7996 13.5C16.7996 13.3343 16.6653 13.2 16.4996 13.2Z" fill="#FFA801"/>
</svg>
