<svg width="33" height="33" viewBox="0 0 33 33" fill="none" xmlns="http://www.w3.org/2000/svg">
<path d="M27.6343 25.0411C27.6883 25.0655 27.7466 25.0791 27.8058 25.0811C27.8651 25.083 27.9241 25.0732 27.9796 25.0523C28.0351 25.0314 28.0859 24.9998 28.1291 24.9592C28.1724 24.9187 28.2072 24.87 28.2316 24.816C28.5296 24.1588 28.683 23.4452 28.6815 22.7236C28.6815 22.6039 28.634 22.4892 28.5494 22.4046C28.4647 22.32 28.35 22.2724 28.2303 22.2724C28.1107 22.2724 27.9959 22.32 27.9113 22.4046C27.8267 22.4892 27.7792 22.6039 27.7792 22.7236C27.7806 23.3169 27.6544 23.9037 27.4092 24.444C27.3599 24.553 27.356 24.6771 27.3982 24.7891C27.4404 24.9011 27.5253 24.9917 27.6343 25.0411Z" fill="#565656"/>
<path d="M31.3049 15.9349C31.1597 15.8204 30.9902 15.7408 30.8094 15.702C30.6287 15.6633 30.4414 15.6665 30.2621 15.7113C29.5072 15.8985 28.6332 16.0669 27.668 16.2156C27.6398 15.2698 27.2447 14.3721 26.5663 13.7125C25.8878 13.0529 24.9793 12.6832 24.0331 12.6818C23.1406 12.6787 22.2789 13.0071 21.6148 13.6032C20.8953 13.4084 20.1331 13.4425 19.4339 13.7007C18.8534 13.33 18.1786 13.1338 17.4898 13.1355C16.548 13.1358 15.643 13.5017 14.9658 14.1562C14.5124 13.9948 14.0159 14.0029 13.568 14.1792C13.1201 14.3554 12.7512 14.6879 12.5295 15.115C11.9587 15.1358 11.4007 15.2898 10.9 15.5647C10.3994 15.8397 9.97008 16.228 9.64634 16.6985C7.32094 16.5507 5.01072 16.2206 2.73697 15.7113C2.42172 15.6337 2.08855 15.6845 1.81076 15.8526C1.53297 16.0206 1.33331 16.2921 1.25571 16.6074C1.1781 16.9226 1.2289 17.2558 1.39694 17.5336C1.56498 17.8114 1.83649 18.011 2.15173 18.0886C2.35051 18.1374 2.55779 18.1851 2.77048 18.2315V22.7236C2.77249 24.2556 3.30348 25.74 4.27368 26.9257C5.24387 28.1114 6.59375 28.9258 8.09509 29.231L8.77442 31.456C8.80265 31.5484 8.85982 31.6293 8.93752 31.6869C9.01522 31.7444 9.10933 31.7754 9.206 31.7754H10.7529C10.8725 31.7753 10.9872 31.7278 11.0718 31.6432C11.1564 31.5586 11.204 31.4438 11.204 31.3242V29.3623H21.7952V31.3242C21.7952 31.4439 21.8428 31.5586 21.9274 31.6432C22.012 31.7278 22.1268 31.7754 22.2464 31.7754H23.7933C23.89 31.7754 23.9841 31.7444 24.0618 31.6869C24.1395 31.6293 24.1966 31.5484 24.2249 31.456L24.9045 29.231C26.4056 28.9256 27.7553 28.1112 28.7253 26.9255C29.6954 25.7398 30.2263 24.2555 30.2283 22.7236V18.2317C30.4412 18.1853 30.6485 18.1376 30.847 18.0886C31.0696 18.0329 31.272 17.9158 31.4313 17.7506C31.5906 17.5855 31.7003 17.3789 31.748 17.1545C31.7956 16.9301 31.7793 16.6968 31.7009 16.4811C31.6225 16.2655 31.4851 16.0762 31.3044 15.9349H31.3049ZM12.6506 16.0153C12.6805 16.0153 12.7097 16.0174 12.7391 16.0189L12.8069 16.0225C12.9056 16.0257 13.0028 15.9968 13.0837 15.9401C13.1647 15.8835 13.2251 15.8021 13.256 15.7082C13.3046 15.5518 13.3879 15.4083 13.4997 15.2884C13.6115 15.1686 13.7488 15.0755 13.9015 15.016C14.0542 14.9566 14.2183 14.9323 14.3817 14.945C14.5451 14.9577 14.7035 15.0071 14.8451 15.0895C14.9361 15.1418 15.0425 15.1609 15.146 15.1433C15.2495 15.1258 15.3437 15.0727 15.4123 14.9933C15.6692 14.6937 15.9879 14.4532 16.3465 14.2883C16.7051 14.1234 17.0951 14.038 17.4898 14.0379C18.0738 14.0364 18.6425 14.2242 19.1109 14.5731C19.1756 14.621 19.252 14.6507 19.3321 14.6592C19.4122 14.6677 19.4931 14.6546 19.5665 14.6213C20.2034 14.3324 20.9277 14.3027 21.5862 14.5383C21.6678 14.5672 21.756 14.5719 21.8403 14.5519C21.9245 14.5319 22.0012 14.4879 22.061 14.4254C22.3154 14.1586 22.6214 13.9464 22.9604 13.8017C23.2995 13.6571 23.6644 13.5831 24.0331 13.5841C24.7589 13.585 25.4548 13.8738 25.9681 14.387C26.4814 14.9003 26.7701 15.5962 26.771 16.3221V16.345C23.3637 16.7662 19.933 16.9687 16.4998 16.9512C14.5162 16.9512 12.579 16.8898 10.7634 16.7756C11.272 16.29 11.9475 16.0179 12.6506 16.0153ZM10.302 30.873H9.54012L9.07606 29.3538C9.18658 29.3594 9.29778 29.3623 9.40967 29.3623H10.3017L10.302 30.873ZM23.4594 30.873H22.6976V29.3623H23.5896C23.7015 29.3623 23.8127 29.3594 23.9232 29.3538L23.4594 30.873ZM29.3259 22.7236C29.3242 24.0847 28.8393 25.401 27.9575 26.4378C27.0757 27.4747 25.8545 28.1648 24.5113 28.3851C24.5015 28.3851 24.4922 28.3888 24.4824 28.3903C24.1871 28.4367 23.8886 28.4601 23.5896 28.4602H9.40993C9.11332 28.4601 8.81716 28.4372 8.52409 28.3916C8.51197 28.3895 8.50011 28.3862 8.48773 28.3851C7.14472 28.1646 5.92361 27.4744 5.04197 26.4376C4.16032 25.4008 3.6754 24.0846 3.6736 22.7236V18.4127C7.00531 19.0369 11.6477 19.4004 16.4998 19.4004C21.3518 19.4004 25.9968 19.0371 29.3259 18.4132V22.7236ZM30.8728 16.9006C30.8734 16.9721 30.85 17.0417 30.8064 17.0982C30.7627 17.1548 30.7013 17.1951 30.632 17.2126C27.3601 18.0175 22.077 18.498 16.4998 18.498C10.9266 18.498 5.64355 18.0175 2.36752 17.2123C2.30927 17.1971 2.25644 17.1658 2.215 17.1221C2.17357 17.0784 2.14517 17.024 2.13303 16.965C2.12088 16.906 2.12547 16.8448 2.14627 16.7883C2.16707 16.7318 2.20325 16.6822 2.25073 16.6451C2.30553 16.6018 2.3732 16.5779 2.44306 16.5773C2.46914 16.5775 2.49511 16.5808 2.52041 16.5871C5.71934 17.3802 10.9455 17.8535 16.4998 17.8535C22.0541 17.8535 27.2799 17.3802 30.4791 16.5874C30.5255 16.5755 30.574 16.5746 30.6208 16.5847C30.6676 16.5947 30.7114 16.6155 30.7488 16.6454C30.7876 16.6756 30.8189 16.7143 30.8404 16.7585C30.8619 16.8027 30.873 16.8512 30.8728 16.9004V16.9006Z" fill="#565656"/>
<path d="M12.9678 5.2207C13.3629 5.2207 13.7493 5.10352 14.0778 4.88397C14.4064 4.66442 14.6625 4.35237 14.8137 3.98728C14.965 3.62218 15.0045 3.22044 14.9274 2.83286C14.8503 2.44527 14.66 2.08926 14.3806 1.80982C14.1012 1.53039 13.7452 1.3401 13.3576 1.263C12.97 1.18591 12.5682 1.22548 12.2032 1.3767C11.8381 1.52793 11.526 1.78402 11.3065 2.1126C11.0869 2.44118 10.9697 2.82748 10.9697 3.22266C10.9703 3.75238 11.181 4.26024 11.5556 4.63481C11.9302 5.00939 12.438 5.22009 12.9678 5.2207ZM12.9678 2.12695C13.1845 2.12695 13.3963 2.19122 13.5765 2.31161C13.7567 2.43201 13.8971 2.60314 13.9801 2.80335C14.063 3.00356 14.0847 3.22387 14.0424 3.43642C14.0001 3.64896 13.8958 3.8442 13.7426 3.99744C13.5893 4.15067 13.3941 4.25503 13.1815 4.29731C12.969 4.33958 12.7487 4.31789 12.5485 4.23496C12.3483 4.15202 12.1771 4.01158 12.0567 3.8314C11.9363 3.65121 11.8721 3.43937 11.8721 3.22266C11.8724 2.93216 11.988 2.65367 12.1934 2.44825C12.3988 2.24284 12.6773 2.1273 12.9678 2.12695Z" fill="#565656"/>
<path d="M18.9614 8.44336C19.2801 8.44346 19.5917 8.34904 19.8567 8.17205C20.1218 7.99506 20.3284 7.74344 20.4504 7.44902C20.5725 7.15459 20.6045 6.83059 20.5423 6.51799C20.4802 6.20539 20.3268 5.91823 20.1015 5.69283C19.8761 5.46743 19.589 5.31392 19.2765 5.2517C18.9639 5.18949 18.6399 5.22137 18.3454 5.34331C18.0509 5.46525 17.7993 5.67178 17.6222 5.93677C17.4451 6.20177 17.3506 6.51332 17.3506 6.83203C17.3511 7.25915 17.5209 7.66864 17.8229 7.9707C18.1248 8.27277 18.5343 8.44274 18.9614 8.44336ZM18.9614 6.12305C19.1016 6.12295 19.2388 6.16444 19.3554 6.24228C19.4721 6.32012 19.563 6.43082 19.6168 6.56036C19.6705 6.6899 19.6846 6.83247 19.6573 6.97003C19.63 7.10759 19.5626 7.23397 19.4634 7.33318C19.3643 7.43238 19.238 7.49996 19.1004 7.52735C18.9629 7.55475 18.8203 7.54074 18.6907 7.4871C18.5611 7.43345 18.4504 7.34258 18.3724 7.22598C18.2945 7.10937 18.2529 6.97228 18.2529 6.83203C18.2531 6.64415 18.3278 6.46401 18.4606 6.33111C18.5934 6.19821 18.7735 6.12339 18.9614 6.12305Z" fill="#565656"/>
<path d="M12.5161 10.1341C12.5161 10.3763 12.5879 10.6131 12.7225 10.8144C12.8571 11.0158 13.0483 11.1728 13.2721 11.2655C13.4959 11.3582 13.7421 11.3824 13.9796 11.3352C14.2172 11.2879 14.4354 11.1713 14.6067 11C14.7779 10.8288 14.8946 10.6106 14.9418 10.373C14.9891 10.1355 14.9648 9.88922 14.8721 9.66546C14.7794 9.44169 14.6225 9.25043 14.4211 9.11587C14.2197 8.98131 13.9829 8.90948 13.7407 8.90948C13.4161 8.90989 13.1048 9.03905 12.8752 9.26862C12.6457 9.49819 12.5165 9.80943 12.5161 10.1341ZM14.063 10.1341C14.063 10.1978 14.0441 10.2601 14.0087 10.3131C13.9733 10.3661 13.9229 10.4074 13.864 10.4318C13.8052 10.4562 13.7404 10.4626 13.6779 10.4502C13.6153 10.4377 13.5579 10.407 13.5128 10.362C13.4678 10.3169 13.4371 10.2595 13.4246 10.197C13.4122 10.1345 13.4186 10.0697 13.443 10.0108C13.4674 9.95188 13.5087 9.90155 13.5617 9.86614C13.6147 9.83073 13.677 9.81183 13.7407 9.81183C13.8262 9.8119 13.9081 9.84587 13.9685 9.90629C14.0289 9.96671 14.0629 10.0486 14.063 10.1341Z" fill="#565656"/>
</svg>
