<svg width="33" height="33" viewBox="0 0 33 33" fill="none" xmlns="http://www.w3.org/2000/svg">
<path d="M32.45 18.7H31.9V17.05C31.8986 15.9579 31.251 14.97 30.25 14.5332V6.05001C30.2499 5.83139 30.1203 5.63366 29.92 5.54621C30.1346 5.20232 30.2488 4.80536 30.25 4.40001C30.25 3.18499 29.265 2.20001 28.05 2.20001C26.835 2.20001 25.85 3.18499 25.85 4.40001C25.8523 4.78735 25.9579 5.16706 26.1558 5.50001H6.8442C7.04213 5.16706 7.14773 4.78735 7.15 4.40001C7.15 3.18499 6.16502 2.20001 4.95 2.20001C3.73498 2.20001 2.75 3.18499 2.75 4.40001C2.75117 4.80536 2.86543 5.20232 3.08 5.54621C2.87966 5.63366 2.75014 5.83139 2.75 6.05001V14.5332C1.749 14.97 1.10144 15.9579 1.1 17.05V18.7H0.55C0.246262 18.7 0 18.9463 0 19.25V26.95C0 27.2537 0.246262 27.5 0.55 27.5H1.1V30.25C1.1 30.5538 1.34626 30.8 1.65 30.8H3.85C4.15374 30.8 4.4 30.5538 4.4 30.25V27.5H28.6V30.25C28.6 30.5538 28.8463 30.8 29.15 30.8H31.35C31.6537 30.8 31.9 30.5538 31.9 30.25V27.5H32.45C32.7537 27.5 33 27.2537 33 26.95V19.25C33 18.9463 32.7537 18.7 32.45 18.7ZM28.05 3.30001C28.6575 3.30001 29.15 3.79247 29.15 4.40001C29.15 5.00756 28.6575 5.50001 28.05 5.50001C27.4425 5.50001 26.95 5.00756 26.95 4.40001C26.95 3.79247 27.4425 3.30001 28.05 3.30001ZM4.95 3.30001C5.55754 3.30001 6.05 3.79247 6.05 4.40001C6.05 5.00756 5.55754 5.50001 4.95 5.50001C4.34246 5.50001 3.85 5.00756 3.85 4.40001C3.85 3.79247 4.34246 3.30001 4.95 3.30001ZM3.85 6.60001H29.15V14.3H26.9357C27.2997 13.8268 27.498 13.247 27.5 12.65V11.55C27.4982 10.032 26.268 8.8018 24.75 8.80001H20.35C18.832 8.8018 17.6018 10.032 17.6 11.55V12.65C17.602 13.247 17.8003 13.8268 18.1643 14.3H14.8357C15.1997 13.8268 15.398 13.247 15.4 12.65V11.55C15.3982 10.032 14.168 8.8018 12.65 8.80001H8.25C6.732 8.8018 5.50179 10.032 5.5 11.55V12.65C5.50199 13.247 5.70034 13.8268 6.0643 14.3H3.85V6.60001ZM26.4 11.55V12.65C26.4 13.5613 25.6613 14.3 24.75 14.3H20.35C19.4387 14.3 18.7 13.5613 18.7 12.65V11.55C18.7 10.6387 19.4387 9.90001 20.35 9.90001H24.75C25.6613 9.90001 26.4 10.6387 26.4 11.55ZM14.3 11.55V12.65C14.3 13.5613 13.5613 14.3 12.65 14.3H8.25C7.33872 14.3 6.6 13.5613 6.6 12.65V11.55C6.6 10.6387 7.33872 9.90001 8.25 9.90001H12.65C13.5613 9.90001 14.3 10.6387 14.3 11.55ZM2.2 17.05C2.2 16.1387 2.93872 15.4 3.85 15.4H29.15C30.0613 15.4 30.8 16.1387 30.8 17.05V18.7H2.2V17.05ZM3.3 29.7H2.2V27.5H3.3V29.7ZM30.8 29.7H29.7V27.5H30.8V29.7ZM31.9 26.4H1.1V19.8H31.9V26.4Z" fill="#565656"/>
<path d="M4.9502 24.2H2.7502C2.44646 24.2 2.2002 24.4462 2.2002 24.75C2.2002 25.0537 2.44646 25.3 2.7502 25.3H4.9502C5.25393 25.3 5.5002 25.0537 5.5002 24.75C5.5002 24.4462 5.25393 24.2 4.9502 24.2Z" fill="#565656"/>
<path d="M30.2501 24.2H7.1501C6.84636 24.2 6.6001 24.4462 6.6001 24.75C6.6001 25.0537 6.84636 25.3 7.1501 25.3H30.2501C30.5538 25.3 30.8001 25.0537 30.8001 24.75C30.8001 24.4462 30.5538 24.2 30.2501 24.2Z" fill="#565656"/>
</svg>
