<svg width="25" height="25" viewBox="0 0 25 25" fill="none" xmlns="http://www.w3.org/2000/svg">
<g clip-path="url(#clip0)">
<path d="M22.0832 1.66666H2.9165C2.22734 1.66666 1.6665 2.2275 1.6665 2.91666V23.75C1.6665 24.4392 2.22734 25 2.9165 25H22.0832C22.7723 25 23.3332 24.4392 23.3332 23.75V2.91666C23.3332 2.2275 22.7724 1.66666 22.0832 1.66666ZM22.4999 23.75C22.4999 23.9796 22.3132 24.1667 22.0832 24.1667H2.9165C2.68652 24.1667 2.49985 23.9796 2.49985 23.75V2.91666C2.49985 2.68707 2.68652 2.50001 2.9165 2.50001H22.0832C22.3131 2.50001 22.4998 2.68707 22.4998 2.91666V23.75H22.4999Z" fill="#565656"/>
<path d="M10.4163 0H4.58301C3.89385 0 3.33301 0.56084 3.33301 1.25V2.08335C3.33301 2.31333 3.51924 2.5 3.74966 2.5H11.2497C11.4801 2.5 11.6663 2.31333 11.6663 2.08335V1.25C11.6663 0.56084 11.1055 0 10.4163 0ZM10.833 1.66665H4.16631V1.25C4.16631 1.02041 4.35298 0.83335 4.58296 0.83335H10.4163C10.6463 0.83335 10.833 1.02041 10.833 1.25V1.66665H10.833Z" fill="#565656"/>
<path d="M20.4168 0H14.5835C13.8943 0 13.3335 0.56084 13.3335 1.25V2.08335C13.3335 2.31333 13.5197 2.5 13.7501 2.5H21.2501C21.4806 2.5 21.6668 2.31333 21.6668 2.08335V1.25C21.6668 0.56084 21.106 0 20.4168 0ZM20.8335 1.66665H14.1668V1.25C14.1668 1.02041 14.3535 0.83335 14.5834 0.83335H20.4168C20.6468 0.83335 20.8334 1.02041 20.8334 1.25V1.66665H20.8335Z" fill="#565656"/>
<path d="M22.0832 1.66666H2.9165C2.22734 1.66666 1.6665 2.2275 1.6665 2.91666V7.08331C1.6665 7.31329 1.85273 7.49996 2.08315 7.49996H22.9165C23.1469 7.49996 23.3332 7.31329 23.3332 7.08331V2.91666C23.3332 2.2275 22.7724 1.66666 22.0832 1.66666ZM22.4999 6.66666H2.49985V2.91666C2.49985 2.68707 2.68652 2.50001 2.9165 2.50001H22.0832C22.3131 2.50001 22.4998 2.68707 22.4998 2.91666V6.66666H22.4999Z" fill="#565656"/>
<path d="M14.5833 3.33334H10.4167C10.1862 3.33334 10 3.52001 10 3.74999V5.41665C10 5.64663 10.1862 5.8333 10.4167 5.8333H14.5833C14.8137 5.8333 14.9999 5.64663 14.9999 5.41665V3.74999C14.9999 3.52001 14.8137 3.33334 14.5833 3.33334ZM14.1666 4.99999H10.8333V4.16664H14.1666V4.99999Z" fill="#565656"/>
<path d="M8.74981 3.33334H7.08316C6.85273 3.33334 6.6665 3.52001 6.6665 3.74999V5.41665C6.6665 5.64663 6.85273 5.8333 7.08316 5.8333H8.74981C8.98023 5.8333 9.16646 5.64663 9.16646 5.41665V3.74999C9.16646 3.52001 8.98023 3.33334 8.74981 3.33334ZM8.33316 4.99999H7.49981V4.16664H8.33316V4.99999Z" fill="#565656"/>
<path d="M5.41631 3.33334H3.74966C3.51924 3.33334 3.33301 3.52001 3.33301 3.74999V5.41665C3.33301 5.64663 3.51924 5.8333 3.74966 5.8333H5.41631C5.64673 5.8333 5.83296 5.64663 5.83296 5.41665V3.74999C5.83301 3.52001 5.64673 3.33334 5.41631 3.33334ZM4.99966 4.99999H4.16631V4.16664H4.99966V4.99999Z" fill="#565656"/>
<path d="M21.2498 3.33334H19.5832C19.3527 3.33334 19.1665 3.52001 19.1665 3.74999V5.41665C19.1665 5.64663 19.3527 5.8333 19.5832 5.8333H21.2498C21.4802 5.8333 21.6665 5.64663 21.6665 5.41665V3.74999C21.6665 3.52001 21.4802 3.33334 21.2498 3.33334ZM20.8332 4.99999H19.9998V4.16664H20.8332V4.99999Z" fill="#565656"/>
<path d="M17.9163 3.33334H16.2497C16.0192 3.33334 15.833 3.52001 15.833 3.74999V5.41665C15.833 5.64663 16.0192 5.8333 16.2497 5.8333H17.9163C18.1467 5.8333 18.333 5.64663 18.333 5.41665V3.74999C18.333 3.52001 18.1467 3.33334 17.9163 3.33334ZM17.4997 4.99999H16.6663V4.16664H17.4997V4.99999Z" fill="#565656"/>
<path d="M20.8333 8.33334H4.16665C3.93623 8.33334 3.75 8.52001 3.75 8.74999V11.25C3.75 11.48 3.93623 11.6666 4.16665 11.6666H20.8333C21.0637 11.6666 21.2499 11.48 21.2499 11.25V8.74999C21.25 8.52001 21.0638 8.33334 20.8333 8.33334ZM20.4166 10.8333H4.58335V9.16669H20.4167V10.8333H20.4166Z" fill="#565656"/>
<path d="M20.8333 10.8333H4.16665C3.93623 10.8333 3.75 11.02 3.75 11.25V21.25C3.75 21.48 3.93623 21.6666 4.16665 21.6666H20.8333C21.0637 21.6666 21.2499 21.48 21.2499 21.25V11.25C21.25 11.02 21.0638 10.8333 20.8333 10.8333ZM20.4166 20.8333H4.58335V11.6666H20.4167V20.8333H20.4166Z" fill="#565656"/>
<path d="M8.33335 22.5H6.25C5.56084 22.5 5 23.0608 5 23.75V24.5834C5 24.8133 5.18623 25 5.41665 25H9.16665C9.39707 25 9.5833 24.8133 9.5833 24.5834V23.75C9.58335 23.0608 9.02251 22.5 8.33335 22.5ZM8.75 24.1667H5.83335V23.75C5.83335 23.5204 6.02002 23.3334 6.25 23.3334H8.33335C8.56333 23.3334 8.75 23.5204 8.75 23.75V24.1667Z" fill="#565656"/>
<path d="M8.21122 12.6221C8.04828 12.4592 7.78495 12.4592 7.62206 12.6221L5.53871 14.7054C5.37577 14.8684 5.37577 15.1317 5.53871 15.2946C5.61996 15.3758 5.72665 15.4167 5.83329 15.4167C5.93998 15.4167 6.04662 15.3758 6.12787 15.2946L8.21122 13.2112C8.37416 13.0483 8.37416 12.785 8.21122 12.6221Z" fill="#565656"/>
<path d="M10.2949 12.6221C10.1319 12.4592 9.86859 12.4592 9.7057 12.6221L8.4557 13.8721C8.29276 14.035 8.29276 14.2983 8.4557 14.4612C8.53695 14.5425 8.64364 14.5833 8.75028 14.5833C8.85697 14.5833 8.96361 14.5425 9.04486 14.4612L10.2949 13.2112C10.4578 13.0483 10.4578 12.785 10.2949 12.6221Z" fill="#565656"/>
<path d="M6.96122 15.9554C6.79828 15.7925 6.53495 15.7925 6.37206 15.9554L5.53871 16.7888C5.37577 16.9517 5.37577 17.215 5.53871 17.3779C5.61996 17.4592 5.72665 17.5 5.83329 17.5C5.93998 17.5 6.04662 17.4592 6.12787 17.3779L6.96122 16.5446C7.12416 16.3817 7.12416 16.1183 6.96122 15.9554Z" fill="#565656"/>
<path d="M8.21147 14.7054C8.04853 14.5425 7.7852 14.5425 7.62231 14.7054L7.20566 15.1221C7.04277 15.285 7.04277 15.5483 7.20566 15.7112C7.28691 15.7925 7.3936 15.8333 7.50024 15.8333C7.60693 15.8333 7.71357 15.7925 7.79482 15.7112L8.21147 15.2946C8.37441 15.1317 8.37441 14.8683 8.21147 14.7054Z" fill="#565656"/>
</g>
<defs>
<clipPath id="clip0">
<rect width="25" height="25" fill="white"/>
</clipPath>
</defs>
</svg>
