<svg width="26" height="26" viewBox="0 0 26 26" fill="none" xmlns="http://www.w3.org/2000/svg">
<path d="M0.433319 10.8333H1.30001C1.70897 10.8323 2.09388 10.6399 2.34002 10.3133L3.25 9.09997H4.76667C10.3477 9.09997 13.6233 9.52937 14.9737 10.4457C14.8265 10.5188 14.7333 10.6689 14.7333 10.8333V12.5666C14.7333 12.806 14.9274 12.9999 15.1666 12.9999H16.3946C16.4282 13.2579 16.4498 13.5449 16.4596 13.8666H15.1666C14.9273 13.8666 14.7333 14.0607 14.7333 14.3V16.0333C14.7333 16.2726 14.9274 16.4666 15.1666 16.4666H16.1825C16.0523 16.9955 15.8726 17.511 15.6458 18.0061C15.5702 18.1573 15.5894 18.3387 15.6949 18.4707L17.4282 20.6373C17.5105 20.7401 17.635 20.7999 17.7666 20.7999C17.7871 20.7999 17.8076 20.7984 17.8279 20.7955C18.2734 20.7147 18.7026 20.5614 19.0986 20.3418L20.0282 21.504C20.1052 21.6002 20.2196 21.6591 20.3427 21.666C20.3506 21.6664 20.3589 21.6666 20.3666 21.6666C20.4815 21.6666 20.5917 21.621 20.673 21.5397L20.7506 21.4621C20.8339 21.7892 20.8525 22.1294 20.8056 22.4637C20.5334 24.1365 18.7423 24.2666 18.1999 24.2666C15.9275 24.2666 14.7139 23.1458 13.5403 22.062C12.596 21.1899 11.7043 20.3665 10.3999 20.3665C9.0451 20.3665 7.8675 21.1041 7.24988 22.3394C6.6638 23.5115 6.74363 24.8803 7.45327 25.8265C7.59684 26.018 7.86848 26.0568 8.05996 25.9132C8.25144 25.7696 8.29021 25.498 8.14664 25.3065C7.63208 24.6206 7.58449 23.6081 8.02505 22.727C8.49279 21.7917 9.38058 21.2332 10.4 21.2332C11.3654 21.2332 12.0657 21.8799 12.9524 22.6987C14.1266 23.7834 15.5887 25.1332 18.2 25.1332C20.4483 25.1332 21.462 23.8261 21.6612 22.6028C21.7732 21.9149 21.6169 21.2432 21.4467 20.7661L21.9733 20.2397C22.1294 20.0835 22.1431 19.8349 22.0052 19.6625L20.9126 18.2967C21.1334 17.7122 21.2422 17.0913 21.2333 16.4666C21.2333 15.1739 20.9347 14.2969 20.6947 13.5923C20.5186 13.0754 20.3666 12.6289 20.3666 12.1333C20.3666 11.1277 21.3795 10.3933 21.4676 10.3313L25.7895 7.73818C25.92 7.65987 25.9999 7.5188 25.9999 7.36658V2.60002C25.9999 2.41692 25.8848 2.25355 25.7123 2.19194C25.0842 1.96755 19.5364 0 18.2 0C16.8652 0 15.4849 0 12.3517 1.79043C10.2336 3.00082 6.88024 3.01942 5.26873 3.02839C5.07371 3.02948 4.90486 3.03046 4.76384 3.03334H3.25L2.34002 1.82002C2.09388 1.49345 1.70897 1.30099 1.30001 1.30001H0.433319C0.194036 1.30001 0 1.49399 0 1.73333V10.4C0 10.6393 0.194036 10.8333 0.433319 10.8333ZM15.6 12.1333V11.2666H15.7756C15.9637 11.5314 16.1095 11.8238 16.208 12.1333H15.6ZM15.6 15.6V14.7333H16.4542C16.4378 15.0236 16.4069 15.3128 16.3614 15.6H15.6ZM21.086 19.9011L20.4026 20.5845L19.8149 19.8499C20.0621 19.638 20.2817 19.3959 20.4684 19.1292L21.086 19.9011ZM25.1333 7.12132L24.2666 7.64132V2.60383C24.5674 2.70721 24.8583 2.80869 25.1333 2.90587V7.12132ZM5.27357 3.89508C6.95899 3.88568 10.466 3.86615 12.7817 2.54292C15.7151 0.866692 16.9221 0.866692 18.2 0.866692C18.6008 0.866692 19.601 1.12126 20.8 1.48007V5.63336C20.8 5.8727 20.994 6.06668 21.2333 6.06668C21.4727 6.06668 21.6666 5.87264 21.6666 5.63336V1.74611C22.2354 1.92486 22.825 2.117 23.4 2.30946V8.16133L21.6666 9.20134V7.36664C21.6666 7.1273 21.4726 6.93332 21.2333 6.93332C20.994 6.93332 20.8 7.12736 20.8 7.36664V9.75076C20.3952 10.0775 19.5 10.9355 19.5 12.1333C19.5 12.7725 19.6819 13.3064 19.8744 13.8721C20.1051 14.5497 20.3667 15.3178 20.3667 16.4667C20.3667 18.9988 18.5887 19.7106 17.9374 19.8864L16.5378 18.1368C16.7848 17.559 17.3334 16.0759 17.3334 14.3C17.3334 13.195 17.2218 12.3731 16.9823 11.7144C16.764 11.1141 16.4422 10.6294 15.9065 10.0936C15.0031 9.19019 13.0163 8.26705 5.20004 8.23425V3.89552L5.27357 3.89508ZM0.866692 2.16665H1.30001C1.43635 2.16697 1.56464 2.23109 1.6467 2.33997L2.68671 3.72661C2.76855 3.8357 2.897 3.89992 3.0334 3.89992H4.32351C4.3228 4.0101 4.3222 4.13714 4.32182 4.27815C4.32068 4.71022 4.32112 5.3124 4.32313 6.06793C4.32536 6.90591 4.32895 7.74318 4.33123 8.23322H3.03334C2.89695 8.23322 2.7685 8.29745 2.68665 8.40654L1.6467 9.79334C1.56464 9.90222 1.43635 9.96639 1.30001 9.96666H0.866692V2.16665Z" fill="#565656"/>
</svg>
