<svg width="25" height="25" viewBox="0 0 25 25" fill="none" xmlns="http://www.w3.org/2000/svg">
<g clip-path="url(#clip0)">
<path d="M12.4512 22.7783C13.3411 22.7783 14.0625 22.0569 14.0625 21.167C14.0625 20.2771 13.3411 19.5557 12.4512 19.5557C11.5613 19.5557 10.8398 20.2771 10.8398 21.167C10.8398 22.0569 11.5613 22.7783 12.4512 22.7783Z" fill="#565656"/>
<path d="M24.7378 7.56171C21.5284 4.11821 17.1823 2.22173 12.4998 2.22168C7.81769 2.22173 3.47166 4.11821 0.262143 7.56171C-0.105532 7.95624 -0.0838036 8.57421 0.310727 8.94193C0.705306 9.30961 1.32323 9.28793 1.69095 8.89335C4.52688 5.85058 8.36555 4.17485 12.5002 4.1748C16.6344 4.17485 20.4731 5.85058 23.309 8.89335C23.5014 9.0997 23.7621 9.20409 24.0236 9.20409C24.262 9.20409 24.5011 9.11727 24.6892 8.94193C25.0838 8.57416 25.1056 7.95624 24.7378 7.56171Z" fill="#565656"/>
<path d="M21.1521 11.5945C18.7797 9.2042 15.707 7.88784 12.5 7.88794C9.29223 7.88799 6.21948 9.2044 3.8478 11.5946C3.46792 11.9775 3.47031 12.5958 3.85317 12.9757C4.23604 13.3556 4.85434 13.3532 5.23423 12.9703C7.23642 10.9524 9.81679 9.84112 12.5 9.84107C15.1825 9.84097 17.7629 10.9523 19.7658 12.9704C19.9567 13.1628 20.2078 13.259 20.459 13.259C20.7076 13.259 20.9564 13.1646 21.1469 12.9756C21.5297 12.5957 21.532 11.9774 21.1521 11.5945Z" fill="#565656"/>
<path d="M17.2434 15.6393C15.9729 14.3805 14.1517 13.5986 12.4905 13.5986C12.4903 13.5986 12.49 13.5986 12.4898 13.5986H12.4194C12.4191 13.5986 12.419 13.5986 12.4187 13.5986C10.7574 13.5986 8.93614 14.3806 7.66568 15.6393C7.28258 16.0188 7.2797 16.6372 7.65929 17.0203C7.85025 17.213 8.10162 17.3096 8.35304 17.3096C8.60142 17.3096 8.84991 17.2154 9.04029 17.0267C9.94473 16.1307 11.2708 15.5518 12.4188 15.5518C12.4189 15.5518 12.4191 15.5518 12.4193 15.5518H12.4899C12.4901 15.5518 12.4902 15.5518 12.4904 15.5518C13.6383 15.5518 14.9644 16.1307 15.8687 17.0267C16.2518 17.4063 16.8702 17.4036 17.2498 17.0203C17.6294 16.6372 17.6265 16.0188 17.2434 15.6393Z" fill="#565656"/>
</g>
<defs>
<clipPath id="clip0">
<rect width="25" height="25" fill="white"/>
</clipPath>
</defs>
</svg>
