<svg width="22" height="22" viewBox="0 0 22 22" fill="none" xmlns="http://www.w3.org/2000/svg">
<path d="M13.3203 8.16406C13.0831 8.16406 12.8906 8.35656 12.8906 8.59375C12.8906 8.83094 13.0831 9.02344 13.3203 9.02344C13.5575 9.02344 13.75 8.83094 13.75 8.59375C13.75 8.35656 13.5575 8.16406 13.3203 8.16406Z" fill="#565656"/>
<path d="M21.4964 19.0661L15.761 13.3306C16.6953 11.9232 17.1875 10.2934 17.1875 8.59375C17.1875 3.85516 13.3323 0 8.59375 0C3.85516 0 0 3.85516 0 8.59375C0 13.3323 3.85516 17.1875 8.59375 17.1875C10.2934 17.1875 11.9232 16.6953 13.3306 15.761L14.9159 17.3464C14.9161 17.3466 14.9163 17.3468 14.9166 17.347L19.066 21.4964C19.3908 21.8212 19.8223 22 20.2812 22C20.7402 22 21.1717 21.8212 21.4963 21.4966C21.8211 21.172 22 20.7405 22 20.2812C22 19.822 21.8211 19.3905 21.4964 19.0661ZM13.1285 14.8555C13.1285 14.8555 13.1285 14.8555 13.1284 14.8555C11.8021 15.8189 10.2341 16.3281 8.59375 16.3281C4.32902 16.3281 0.859375 12.8585 0.859375 8.59375C0.859375 4.32902 4.32902 0.859375 8.59375 0.859375C12.8585 0.859375 16.3281 4.32902 16.3281 8.59375C16.3281 10.2341 15.8189 11.8021 14.8555 13.1285C14.3735 13.7925 13.7925 14.3735 13.1285 14.8555ZM14.03 15.245C14.4747 14.8812 14.8812 14.4747 15.245 14.03L16.4641 15.2491C16.0933 15.6866 15.6866 16.0934 15.2491 16.4641L14.03 15.245ZM20.8888 20.8888C20.7264 21.0512 20.5106 21.1406 20.2812 21.1406C20.0519 21.1406 19.8361 21.0512 19.6737 20.8888L15.8583 17.0734C16.2934 16.6999 16.6999 16.2935 17.0733 15.8583L20.8889 19.6739C21.0512 19.8361 21.1406 20.0517 21.1406 20.2812C21.1406 20.5108 21.0512 20.7264 20.8888 20.8888Z" fill="#565656"/>
<path d="M8.59375 1.71875C4.80283 1.71875 1.71875 4.80283 1.71875 8.59375C1.71875 12.3847 4.80283 15.4688 8.59375 15.4688C12.3847 15.4688 15.4688 12.3847 15.4688 8.59375C15.4688 4.80283 12.3847 1.71875 8.59375 1.71875ZM8.59375 14.6094C5.27673 14.6094 2.57812 11.9108 2.57812 8.59375C2.57812 5.27673 5.27673 2.57812 8.59375 2.57812C11.9108 2.57812 14.6094 5.27673 14.6094 8.59375C14.6094 11.9108 11.9108 14.6094 8.59375 14.6094Z" fill="#565656"/>
<path d="M13.409 6.74923C13.039 5.78621 12.3948 4.96285 11.5459 4.3682C10.6768 3.75934 9.65598 3.4375 8.59375 3.4375C8.35648 3.4375 8.16406 3.62991 8.16406 3.86719C8.16406 4.10446 8.35648 4.29688 8.59375 4.29688C10.3597 4.29688 11.9724 5.40624 12.6069 7.05749C12.6725 7.22833 12.8353 7.33318 13.0081 7.33318C13.0593 7.33318 13.1114 7.32394 13.1621 7.30447C13.3836 7.21935 13.4942 6.97078 13.409 6.74923Z" fill="#565656"/>
</svg>
