<svg width="18" height="18" viewBox="0 0 18 18" fill="none" xmlns="http://www.w3.org/2000/svg">
<g clip-path="url(#clip0)">
<path d="M17.1 8.40004C16.57 8.40004 16.2 8.63632 16.2 8.97454V10.006C15.725 9.06728 14.9944 8.40004 14.1 8.40004H5.7C5.53436 8.4 5.40004 8.53425 5.4 8.69989C5.4 8.69992 5.4 8.7 5.4 8.70004V10.5025C5.40169 10.0131 5.20496 9.52474 4.81553 9.16819C4.08232 8.49686 2.94371 8.54704 2.27243 9.28027C1.64378 9.96686 1.64239 11.0195 2.2692 11.7078C2.09625 11.7268 1.9329 11.797 1.8 11.9094V4.32C1.8 3.91631 1.40479 3.60004 0.9 3.60004C0.395213 3.60004 0 3.91631 0 4.32V17.2801C0 17.6838 0.395213 18 0.9 18C1.40479 18 1.8 17.6838 1.8 17.2801V15.3H16.2V17.4255C16.2 17.7637 16.57 18 17.1 18C17.63 18 18 17.7637 18 17.4255V8.97454C18 8.63632 17.63 8.40004 17.1 8.40004ZM1.2 17.2801C1.19678 17.3047 1.09601 17.4 0.9 17.4C0.703125 17.4 0.602925 17.3047 0.6 17.2801V4.32C0.602925 4.2954 0.703125 4.20004 0.9 4.20004C1.09601 4.20004 1.19678 4.2954 1.2 4.32V17.2801ZM6 9.00004H14.1C15.2315 9.00004 16.094 10.6848 16.1909 12.3H6V9.00004ZM5.4 10.5031V11.9492C5.27055 11.8234 5.1057 11.7404 4.92761 11.7113C5.24224 11.3677 5.39835 10.935 5.4 10.5031ZM3.6 9.30004C4.26274 9.30004 4.8 9.8373 4.8 10.5C4.8 11.1628 4.26274 11.7 3.6 11.7C2.93726 11.7 2.4 11.1628 2.4 10.5C2.40071 9.8376 2.93756 9.30075 3.6 9.30004ZM16.2 14.7H1.8V12.8992C1.95611 12.8869 2.07652 12.7566 2.07656 12.6C2.07368 12.4376 2.20271 12.3034 2.36513 12.3H4.788C4.95041 12.3034 5.07945 12.4376 5.07656 12.6C5.07653 12.7657 5.21078 12.9 5.37641 12.9C5.37645 12.9 5.37653 12.9 5.37656 12.9H16.2V14.7ZM17.4 17.3473C17.2062 17.4176 16.9938 17.4176 16.8 17.3473V9.05276C16.9938 8.98245 17.2062 8.98245 17.4 9.05276V17.3473Z" fill="#FFA801"/>
<path d="M5.14062 6.59999L6.23075 5.29203C6.30522 5.20255 6.32123 5.07809 6.27177 4.97268C6.22242 4.8673 6.11656 4.79999 6.0002 4.79999H4.2002V5.39999H5.35977L4.26965 6.70795C4.16363 6.83537 4.181 7.0246 4.30842 7.13057C4.36231 7.17539 4.43015 7.19995 4.5002 7.19999H6.3002V6.59999H5.14062Z" fill="#FFA801"/>
<path d="M8.4135 5.09999L10.1367 2.88412C10.2071 2.79371 10.2199 2.67108 10.1695 2.56814C10.1191 2.46528 10.0146 2.40003 9.89999 2.39999H7.50001V2.99999H9.28653L7.5633 5.21587C7.46153 5.34652 7.48497 5.53496 7.61565 5.63673C7.66834 5.67776 7.73325 5.70003 7.80004 5.70003H10.2V5.10003H8.4135V5.09999Z" fill="#FFA801"/>
<path d="M12.2999 3.6L14.6398 0.480037C14.7392 0.34755 14.7125 0.159562 14.58 0.060075C14.5281 0.021075 14.4649 0 14.3999 0H11.6999V0.6H13.7999L11.4599 3.71996C11.3918 3.81086 11.3807 3.93251 11.4315 4.03417C11.4824 4.1358 11.5862 4.2 11.6999 4.2H14.6999V3.6H12.2999Z" fill="#FFA801"/>
</g>
<defs>
<clipPath id="clip0">
<rect width="18" height="18" fill="white"/>
</clipPath>
</defs>
</svg>
