<svg width="27" height="27" viewBox="0 0 27 27" fill="none" xmlns="http://www.w3.org/2000/svg">
<path d="M13.5 27C20.9558 27 27 20.9558 27 13.5C27 6.04416 20.9558 0 13.5 0C6.04416 0 0 6.04416 0 13.5C0 20.9558 6.04416 27 13.5 27Z" fill="#29C868"/>
<path d="M20.25 16.2911C18.7937 16.2911 17.4049 15.9739 16.1241 15.3478C15.9233 15.2516 15.6904 15.2364 15.4777 15.309C15.2651 15.3832 15.0913 15.5385 14.9934 15.7393L14.3859 16.9965C12.5634 15.9502 11.0514 14.4366 10.0035 12.6141L11.2624 12.0066C11.4649 11.9087 11.6184 11.7349 11.6927 11.5223C11.7652 11.3096 11.7517 11.0768 11.6539 10.8759C11.0261 9.59681 10.7089 8.208 10.7089 6.75C10.7089 6.28425 10.3309 5.90625 9.86513 5.90625H6.75C6.28425 5.90625 5.90625 6.28425 5.90625 6.75C5.90625 14.6593 12.3407 21.0938 20.25 21.0938C20.7157 21.0938 21.0938 20.7157 21.0938 20.25V17.1349C21.0938 16.6691 20.7157 16.2911 20.25 16.2911Z" fill="#FAFAFA"/>
</svg>
