<svg width="18" height="18" viewBox="0 0 18 18" fill="none" xmlns="http://www.w3.org/2000/svg">
<g clip-path="url(#clip0)">
<path d="M9.51287 11.0472L9.50984 11.0075C9.49585 10.8239 9.32742 10.686 9.13385 10.6991C8.94017 10.7124 8.79452 10.872 8.80855 11.0557L8.81157 11.0953C8.82497 11.2707 8.97927 11.4046 9.16187 11.4046C9.17038 11.4046 9.17895 11.4043 9.1876 11.4037C9.38124 11.3905 9.52686 11.2308 9.51287 11.0472Z" fill="#FFA801"/>
<path d="M9.6733 13.1671L9.58238 11.9645C9.5685 11.7808 9.40003 11.6427 9.20656 11.6558C9.01288 11.669 8.86716 11.8285 8.88101 12.0121L8.97192 13.2149C8.97769 13.2907 8.9239 13.4409 8.87591 13.4912C8.69826 13.508 8.55957 13.6501 8.55957 13.823C8.55957 14.0071 8.71697 14.1563 8.91114 14.1563C9.08893 14.1563 9.25311 14.0848 9.38589 13.9495C9.59722 13.7342 9.69042 13.3928 9.6733 13.1671Z" fill="#FFA801"/>
<path d="M16.4221 2.07017H15.6479V0.736398C15.6479 0.330344 15.2995 0 14.8713 0H2.9916C2.5634 0 2.21503 0.330344 2.21503 0.736398V3.21619C1.52 3.36795 1 3.95903 1 4.66352V6.78193C1 7.60104 1.70274 8.26746 2.56656 8.26746H7.72004C8.19608 8.26746 8.58344 8.63475 8.58344 9.08617V9.7573H7.9244C7.73905 9.7573 7.58553 9.89375 7.57354 10.0692L7.23607 15.0154C7.19614 15.6014 7.40145 16.1684 7.79938 16.5709C8.11688 16.8921 8.52019 17.069 8.935 17.069C9.34977 17.069 9.75305 16.8921 10.0706 16.5709C10.4685 16.1684 10.6738 15.6015 10.6338 15.0154L10.2964 10.0692C10.2845 9.89378 10.131 9.7573 9.9456 9.7573H9.28652V9.08617C9.28652 8.2671 8.58379 7.60071 7.72 7.60071H2.56659C2.09047 7.60071 1.70316 7.23339 1.70316 6.78193V4.66352C1.70316 4.33074 1.91371 4.0439 2.21507 3.91599V6.29334C2.21507 6.69936 2.56343 7.02967 2.99163 7.02967H14.8714C15.2996 7.02967 15.6479 6.69936 15.6479 6.29334V4.95946H16.4222C16.7675 4.95946 17.0484 4.69302 17.0484 4.36558V2.66409C17.0484 2.33661 16.7675 2.07017 16.4221 2.07017ZM9.61611 10.424L9.9322 15.0584C9.95966 15.4612 9.82311 15.8463 9.55761 16.1149C9.37445 16.3002 9.15335 16.4022 8.93503 16.4022C8.71668 16.4022 8.49558 16.3002 8.31238 16.1148C8.04688 15.8463 7.91034 15.4612 7.93779 15.0584L8.25399 10.424H9.61611ZM14.8713 6.36288H2.9916C2.95177 6.36288 2.91816 6.33104 2.91816 6.2933V0.736398C2.91816 0.698659 2.95177 0.666755 2.9916 0.666755H14.8713C14.9111 0.666755 14.9448 0.698659 14.9448 0.736398V6.2933C14.9448 6.33101 14.9111 6.36288 14.8713 6.36288ZM16.3453 4.2927H15.6479V2.73693H16.3453V4.2927Z" fill="#FFA801"/>
</g>
<defs>
<clipPath id="clip0">
<rect width="18" height="18" fill="white"/>
</clipPath>
</defs>
</svg>
