<svg width="145" height="145" viewBox="0 0 145 145" fill="none" xmlns="http://www.w3.org/2000/svg">
<path d="M52.1094 65.7031H11.3281V52.1094H52.1094V65.7031ZM52.1094 83.8281H11.3281V70.2344H52.1094V83.8281ZM52.1094 101.953H11.3281V88.3594H52.1094V101.953ZM52.1094 120.078H11.3281V106.484H52.1094V120.078Z" fill="#FFA801"/>
<path d="M133.672 83.8281V22.6562C133.672 18.9089 130.622 15.8594 126.875 15.8594H9.0625C5.31516 15.8594 2.26562 18.9089 2.26562 22.6562V122.344C2.26562 126.091 5.31516 129.141 9.0625 129.141H126.875C130.622 129.141 133.672 126.091 133.672 122.344V101.953H129.141V122.344C129.141 123.594 128.123 124.609 126.875 124.609H61.1719V47.5781H129.141V83.8281H133.672ZM56.6406 124.609H9.0625C7.81414 124.609 6.79688 123.594 6.79688 122.344V47.5781H56.6406V124.609ZM6.79688 43.0469V22.6562C6.79688 21.4079 7.81414 20.3906 9.0625 20.3906H126.875C128.123 20.3906 129.141 21.4079 129.141 22.6562V43.0469H6.79688Z" fill="black"/>
<path d="M11.3281 38.5156H24.9219V24.9219H11.3281V38.5156ZM15.8594 29.4531H20.3906V33.9844H15.8594V29.4531ZM29.4531 38.5156H43.0469V24.9219H29.4531V38.5156ZM33.9844 29.4531H38.5156V33.9844H33.9844V29.4531ZM47.5781 38.5156H61.1719V24.9219H47.5781V38.5156ZM52.1094 29.4531H56.6406V33.9844H52.1094V29.4531ZM11.3281 106.484H15.8594V111.016H11.3281V106.484ZM20.3906 106.484H52.1094V111.016H20.3906V106.484ZM11.3281 115.547H15.8594V120.078H11.3281V115.547ZM20.3906 115.547H52.1094V120.078H20.3906V115.547ZM124.609 83.8281V52.1094H65.7031V120.078H124.609V101.953H120.078V115.547H70.2344V56.6406H120.078V83.8281H124.609Z" fill="black"/>
<path d="M74.7656 61.1719H79.2969V65.7031H74.7656V61.1719ZM83.8281 61.1719H115.547V65.7031H83.8281V61.1719ZM74.7656 70.2344H79.2969V74.7656H74.7656V70.2344ZM83.8281 70.2344H97.4219V74.7656H83.8281V70.2344Z" fill="black"/>
<path d="M106.484 113.102L77.6113 92.8906L106.484 72.679V83.8281H142.734V101.953H106.484V113.102Z" fill="#FFA801"/>
</svg>
