<svg width="21" height="15" viewBox="0 0 21 15" fill="none" xmlns="http://www.w3.org/2000/svg">
<path d="M10.4997 4.12042C8.6351 4.12042 7.12012 5.63541 7.12012 7.50001C7.12012 9.36461 8.6351 10.8796 10.4997 10.8796C12.3643 10.8796 13.8793 9.36461 13.8793 7.50001C13.8793 5.63541 12.3643 4.12042 10.4997 4.12042ZM10.2433 6.49779C9.82379 6.49779 9.47417 6.8474 9.47417 7.26693H8.35541C8.37872 6.2181 9.21779 5.37903 10.2433 5.37903V6.49779Z" fill="#A2A2A2"/>
<path d="M20.7553 6.80078C19.6132 5.37902 15.5344 0.740845 10.5 0.740845C5.46559 0.740845 1.38679 5.37902 0.244728 6.80078C-0.081576 7.197 -0.081576 7.77969 0.244728 8.19922C1.38679 9.62098 5.46559 14.2592 10.5 14.2592C15.5344 14.2592 19.6132 9.62098 20.7553 8.19922C21.0816 7.803 21.0816 7.22031 20.7553 6.80078ZM10.5 12.3946C7.79634 12.3946 5.60544 10.2037 5.60544 7.5C5.60544 4.79634 7.79634 2.60544 10.5 2.60544C13.2037 2.60544 15.3946 4.79634 15.3946 7.5C15.3946 10.2037 13.2037 12.3946 10.5 12.3946Z" fill="#A2A2A2"/>
</svg>
