<svg width="17" height="18" viewBox="0 0 17 18" fill="none" xmlns="http://www.w3.org/2000/svg">
<path d="M15.4221 2.07017H14.6479V0.736398C14.6479 0.330344 14.2995 0 13.8713 0H1.9916C1.5634 0 1.21503 0.330344 1.21503 0.736398V3.21619C0.519995 3.36795 0 3.95903 0 4.66352V6.78193C0 7.60104 0.702737 8.26746 1.56656 8.26746H6.72004C7.19608 8.26746 7.58344 8.63475 7.58344 9.08617V9.7573H6.9244C6.73905 9.7573 6.58553 9.89375 6.57354 10.0692L6.23607 15.0154C6.19614 15.6014 6.40145 16.1684 6.79938 16.5709C7.11688 16.8921 7.52019 17.069 7.935 17.069C8.34977 17.069 8.75305 16.8921 9.07058 16.5709C9.46848 16.1684 9.67379 15.6015 9.63381 15.0154L9.29642 10.0692C9.28447 9.89378 9.13098 9.7573 8.9456 9.7573H8.28652V9.08617C8.28652 8.2671 7.58379 7.60071 6.72 7.60071H1.56659C1.09047 7.60071 0.703159 7.23339 0.703159 6.78193V4.66352C0.703159 4.33074 0.913709 4.0439 1.21507 3.91599V6.29334C1.21507 6.69936 1.56343 7.02967 1.99163 7.02967H13.8714C14.2996 7.02967 14.6479 6.69936 14.6479 6.29334V4.95946H15.4222C15.7675 4.95946 16.0484 4.69302 16.0484 4.36558V2.66409C16.0484 2.33661 15.7675 2.07017 15.4221 2.07017ZM8.61611 10.424L8.9322 15.0584C8.95966 15.4612 8.82311 15.8463 8.55761 16.1149C8.37445 16.3002 8.15335 16.4022 7.93503 16.4022C7.71668 16.4022 7.49558 16.3002 7.31238 16.1148C7.04688 15.8463 6.91034 15.4612 6.93779 15.0584L7.25399 10.424H8.61611ZM13.8713 6.36288H1.9916C1.95177 6.36288 1.91816 6.33104 1.91816 6.2933V0.736398C1.91816 0.698659 1.95177 0.666755 1.9916 0.666755H13.8713C13.9111 0.666755 13.9448 0.698659 13.9448 0.736398V6.2933C13.9448 6.33101 13.9111 6.36288 13.8713 6.36288ZM15.3453 4.2927H14.6479V2.73693H15.3453V4.2927Z" fill="#FFA801"/>
</svg>
