<svg width="27" height="19" viewBox="0 0 27 19" fill="none" xmlns="http://www.w3.org/2000/svg">
<path d="M17.8975 9.63837L26.9998 15.3927V3.64099L17.8975 9.63837Z" fill="#A2A2A2"/>
<path d="M0 3.64099V15.3927L9.10238 9.63837L0 3.64099Z" fill="#A2A2A2"/>
<path d="M25.3127 0.21875H1.68766C0.845594 0.21875 0.177344 0.8465 0.0507812 1.65481L13.5002 10.5159L26.9495 1.65481C26.823 0.8465 26.1547 0.21875 25.3127 0.21875Z" fill="#A2A2A2"/>
<path d="M16.3521 10.6576L13.9643 12.2303C13.8225 12.3231 13.6622 12.3687 13.5002 12.3687C13.3382 12.3687 13.1779 12.3231 13.0361 12.2303L10.6483 10.6559L0.0541992 17.3569C0.184137 18.1585 0.849012 18.7812 1.6877 18.7812H25.3127C26.1514 18.7812 26.8163 18.1585 26.9462 17.3569L16.3521 10.6576Z" fill="#A2A2A2"/>
</svg>
