<svg width="18" height="15" viewBox="0 0 18 15" fill="none" xmlns="http://www.w3.org/2000/svg">
<path d="M17.1 5.40004C16.57 5.40004 16.2 5.63632 16.2 5.97454V7.00597C15.725 6.06728 14.9944 5.40004 14.1 5.40004H5.7C5.53436 5.4 5.40004 5.53425 5.4 5.69989C5.4 5.69992 5.4 5.7 5.4 5.70004V7.50255C5.40169 7.0131 5.20496 6.52474 4.81553 6.16819C4.08232 5.49686 2.94371 5.54704 2.27243 6.28027C1.64378 6.96686 1.64239 8.01952 2.2692 8.7078C2.09625 8.72685 1.9329 8.79705 1.8 8.90936V1.32C1.8 0.916312 1.40479 0.600037 0.9 0.600037C0.395213 0.600037 0 0.916312 0 1.32V14.2801C0 14.6838 0.395213 15 0.9 15C1.40479 15 1.8 14.6838 1.8 14.2801V12.3H16.2V14.4255C16.2 14.7637 16.57 15 17.1 15C17.63 15 18 14.7637 18 14.4255V5.97454C18 5.63632 17.63 5.40004 17.1 5.40004ZM1.2 14.2801C1.19678 14.3047 1.09601 14.4 0.9 14.4C0.703125 14.4 0.602925 14.3047 0.6 14.2801V1.32C0.602925 1.2954 0.703125 1.20004 0.9 1.20004C1.09601 1.20004 1.19678 1.2954 1.2 1.32V14.2801ZM6 6.00004H14.1C15.2315 6.00004 16.094 7.68476 16.1909 9.30004H6V6.00004ZM5.4 7.50315V8.94915C5.27055 8.82341 5.1057 8.74042 4.92761 8.71132C5.24224 8.36767 5.39835 7.93504 5.4 7.50315ZM3.6 6.30004C4.26274 6.30004 4.8 6.8373 4.8 7.50004C4.8 8.16277 4.26274 8.70004 3.6 8.70004C2.93726 8.70004 2.4 8.16277 2.4 7.50004C2.40071 6.8376 2.93756 6.30075 3.6 6.30004ZM16.2 11.7H1.8V9.89917C1.95611 9.88687 2.07652 9.75664 2.07656 9.60004C2.07368 9.43762 2.20271 9.30345 2.36513 9.30004H4.788C4.95041 9.30345 5.07945 9.43762 5.07656 9.60004C5.07653 9.76567 5.21078 9.9 5.37641 9.90004C5.37645 9.90004 5.37653 9.90004 5.37656 9.90004H16.2V11.7ZM17.4 14.3473C17.2062 14.4176 16.9938 14.4176 16.8 14.3473V6.05276C16.9938 5.98245 17.2062 5.98245 17.4 6.05276V14.3473Z" fill="#FFA801"/>
</svg>
