<svg width="18" height="11" viewBox="0 0 18 11" fill="none" xmlns="http://www.w3.org/2000/svg">
<path d="M17.7 4.19968H17.4V3.29968C17.3992 2.70395 17.046 2.16515 16.5 1.92688V-2.70032C16.4999 -2.81957 16.4293 -2.92742 16.32 -2.97512C16.437 -3.1627 16.4994 -3.37922 16.5 -3.60032C16.5 -4.26306 15.9627 -4.80032 15.3 -4.80032C14.6373 -4.80032 14.1 -4.26306 14.1 -3.60032C14.1012 -3.38905 14.1588 -3.18194 14.2668 -3.00032H3.7332C3.84116 -3.18194 3.89876 -3.38905 3.9 -3.60032C3.9 -4.26306 3.36274 -4.80032 2.7 -4.80032C2.03726 -4.80032 1.5 -4.26306 1.5 -3.60032C1.50064 -3.37922 1.56296 -3.1627 1.68 -2.97512C1.57073 -2.92742 1.50008 -2.81957 1.5 -2.70032V1.92688C0.954 2.16515 0.600788 2.70395 0.6 3.29968V4.19968H0.3C0.134325 4.19968 0 4.334 0 4.49968V8.69968C0 8.86535 0.134325 8.99968 0.3 8.99968H0.6V10.4997C0.6 10.6654 0.734325 10.7997 0.9 10.7997H2.1C2.26568 10.7997 2.4 10.6654 2.4 10.4997V8.99968H15.6V10.4997C15.6 10.6654 15.7343 10.7997 15.9 10.7997H17.1C17.2657 10.7997 17.4 10.6654 17.4 10.4997V8.99968H17.7C17.8657 8.99968 18 8.86535 18 8.69968V4.49968C18 4.334 17.8657 4.19968 17.7 4.19968ZM15.3 -4.20032C15.6314 -4.20032 15.9 -3.93171 15.9 -3.60032C15.9 -3.26894 15.6314 -3.00032 15.3 -3.00032C14.9686 -3.00032 14.7 -3.26894 14.7 -3.60032C14.7 -3.93171 14.9686 -4.20032 15.3 -4.20032ZM2.7 -4.20032C3.03139 -4.20032 3.3 -3.93171 3.3 -3.60032C3.3 -3.26894 3.03139 -3.00032 2.7 -3.00032C2.36861 -3.00032 2.1 -3.26894 2.1 -3.60032C2.1 -3.93171 2.36861 -4.20032 2.7 -4.20032ZM2.1 -2.40032H15.9V1.79968H14.6922C14.8907 1.54156 14.9989 1.22533 15 0.899676V0.299676C14.999 -0.528324 14.328 -1.19935 13.5 -1.20032H11.1C10.272 -1.19935 9.60098 -0.528324 9.6 0.299676V0.899676C9.60109 1.22533 9.70928 1.54156 9.9078 1.79968H8.0922C8.29073 1.54156 8.39891 1.22533 8.4 0.899676V0.299676C8.39902 -0.528324 7.728 -1.19935 6.9 -1.20032H4.5C3.672 -1.19935 3.00098 -0.528324 3 0.299676V0.899676C3.00109 1.22533 3.10928 1.54156 3.3078 1.79968H2.1V-2.40032ZM14.4 0.299676V0.899676C14.4 1.39674 13.9971 1.79968 13.5 1.79968H11.1C10.6029 1.79968 10.2 1.39674 10.2 0.899676V0.299676C10.2 -0.197386 10.6029 -0.600324 11.1 -0.600324H13.5C13.9971 -0.600324 14.4 -0.197386 14.4 0.299676ZM7.8 0.299676V0.899676C7.8 1.39674 7.39706 1.79968 6.9 1.79968H4.5C4.00294 1.79968 3.6 1.39674 3.6 0.899676V0.299676C3.6 -0.197386 4.00294 -0.600324 4.5 -0.600324H6.9C7.39706 -0.600324 7.8 -0.197386 7.8 0.299676ZM1.2 3.29968C1.2 2.80261 1.60294 2.39968 2.1 2.39968H15.9C16.3971 2.39968 16.8 2.80261 16.8 3.29968V4.19968H1.2V3.29968ZM1.8 10.1997H1.2V8.99968H1.8V10.1997ZM16.8 10.1997H16.2V8.99968H16.8V10.1997ZM17.4 8.39968H0.6V4.79968H17.4V8.39968Z" fill="#FFA801"/>
</svg>
