<svg width="18" height="17" viewBox="0 0 18 17" fill="none" xmlns="http://www.w3.org/2000/svg">
<path d="M18 13.283C18 13.7604 17.5902 14.1475 17.0847 14.1475H14.8678V16.1068C14.8678 16.5842 14.458 16.9712 13.9526 16.9712C13.4471 16.9712 13.0373 16.5842 13.0373 16.1068V14.1475H4.86104V16.1068C4.86104 16.5842 4.45125 16.9712 3.94578 16.9712C3.44032 16.9712 3.03053 16.5842 3.03053 16.1068V14.1475H0.976271C0.470807 14.1475 0.061017 13.7604 0.061017 13.283C0.061017 12.8057 0.470807 12.4186 0.976271 12.4186H3.03053V4.69661H0.915254C0.40979 4.69661 0 4.30958 0 3.8322C0 3.35482 0.40979 2.96779 0.915254 2.96779H3.03053V0.893215C3.03053 0.415832 3.44032 0.0288086 3.94578 0.0288086C4.45125 0.0288086 4.86104 0.415832 4.86104 0.893215V2.91016H13.0373V0.893215C13.0373 0.415832 13.4471 0.0288086 13.9526 0.0288086C14.458 0.0288086 14.8678 0.415832 14.8678 0.893215V2.96779H17.0237C17.5292 2.96779 17.939 3.35482 17.939 3.8322C17.939 4.30958 17.5292 4.69661 17.0237 4.69661H14.9288V12.4186H17.0847C17.5902 12.4186 18 12.8057 18 13.283Z" stroke="#FFA801" stroke-width="0.7"/>
</svg>
