<svg width="21" height="21" viewBox="0 0 21 21" fill="none" xmlns="http://www.w3.org/2000/svg">
<g clip-path="url(#clip0)">
<path d="M10.5001 3.65216C8.73795 3.65216 7.30444 5.08562 7.30444 6.84782C7.30444 8.61003 8.73791 10.0435 10.5001 10.0435C12.2623 10.0435 13.6958 8.60998 13.6958 6.84782C13.6958 5.08567 12.2623 3.65216 10.5001 3.65216ZM10.5001 9.13042C9.24195 9.13042 8.21751 8.10598 8.21751 6.84782C8.21751 5.58967 9.24195 4.56523 10.5001 4.56523C11.7583 4.56523 12.7827 5.58967 12.7827 6.84782C12.7827 8.10598 11.7583 9.13042 10.5001 9.13042Z" fill="#FFA801"/>
<path d="M16.8912 7.30435C15.6331 7.30435 14.6086 8.32879 14.6086 9.58695C14.6086 10.8451 15.6331 11.8695 16.8912 11.8695C18.1494 11.8695 19.1738 10.8451 19.1738 9.58695C19.1738 8.32879 18.1494 7.30435 16.8912 7.30435ZM16.8912 10.9565C16.1361 10.9565 15.5217 10.342 15.5217 9.58695C15.5217 8.83184 16.1361 8.21738 16.8912 8.21738C17.6463 8.21738 18.2608 8.83184 18.2608 9.58695C18.2608 10.342 17.6463 10.9565 16.8912 10.9565Z" fill="#FFA801"/>
<path d="M4.17346 7.30435C2.91436 7.30435 1.89087 8.32879 1.89087 9.58695C1.89087 10.8451 2.9153 11.8695 4.17346 11.8695C5.43162 11.8695 6.45605 10.8451 6.45605 9.58695C6.45605 8.32879 5.43252 7.30435 4.17346 7.30435ZM4.17346 10.9565C3.41836 10.9565 2.8039 10.342 2.8039 9.58695C2.8039 8.83184 3.41836 8.21738 4.17346 8.21738C4.92856 8.21738 5.54302 8.83184 5.54302 9.58695C5.54302 10.342 4.92852 10.9565 4.17346 10.9565Z" fill="#FFA801"/>
<path d="M10.5 10.9565C7.22762 10.9565 4.56519 13.619 4.56519 16.8913C4.56519 17.1433 4.76972 17.3479 5.02172 17.3479C5.27372 17.3479 5.47826 17.1433 5.47826 16.8913C5.47826 14.1221 7.73072 11.8696 10.5 11.8696C13.2692 11.8696 15.5217 14.1221 15.5217 16.8913C15.5217 17.1433 15.7262 17.3479 15.9782 17.3479C16.2302 17.3479 16.4348 17.1433 16.4348 16.8913C16.4348 13.619 13.7723 10.9565 10.5 10.9565Z" fill="#FFA801"/>
<path d="M16.8914 12.7826C16.14 12.7826 15.404 12.9881 14.7631 13.3761C14.5485 13.5076 14.4791 13.7879 14.6097 14.0034C14.7421 14.2189 15.0215 14.2873 15.237 14.1568C15.7345 13.8545 16.3061 13.6957 16.8914 13.6957C18.6535 13.6957 20.087 15.1291 20.087 16.8913C20.087 17.1433 20.2916 17.3478 20.5436 17.3478C20.7956 17.3478 21.0001 17.1433 21.0001 16.8913C21.0001 14.6261 19.1566 12.7826 16.8914 12.7826Z" fill="#FFA801"/>
<path d="M6.2361 13.3752C5.59604 12.9881 4.86016 12.7826 4.10869 12.7826C1.84343 12.7826 0 14.6261 0 16.8913C0 17.1433 0.204536 17.3478 0.456536 17.3478C0.708536 17.3478 0.913071 17.1433 0.913071 16.8913C0.913029 15.1291 2.34653 13.6957 4.10869 13.6957C4.69397 13.6957 5.2655 13.8545 5.76223 14.1558C5.97678 14.2864 6.25801 14.2179 6.38949 14.0024C6.52097 13.7869 6.45155 13.5067 6.2361 13.3752Z" fill="#FFA801"/>
</g>
<defs>
<clipPath id="clip0">
<rect width="21" height="21" fill="white"/>
</clipPath>
</defs>
</svg>
