<svg width="23" height="23" viewBox="0 0 23 23" fill="none" xmlns="http://www.w3.org/2000/svg">
<path d="M22.326 21.6523C4.90677 21.6523 5.03588 21.6523 0.673828 21.6523C0.301381 21.6523 0 21.9537 0 22.3261C0 22.6986 0.301381 23 0.673828 23H22.326C22.6985 23 22.9999 22.6986 22.9999 22.3261C22.9999 21.9537 22.6985 21.6523 22.326 21.6523Z" fill="#FFA801"/>
<path d="M6.15425 14.9141H2.02148C1.64904 14.9141 1.34766 15.2154 1.34766 15.5879V20.3046H6.82808V15.5879C6.82808 15.2154 6.5267 14.9141 6.15425 14.9141Z" fill="#FFA801"/>
<path d="M12.8926 10.8711H8.84961C8.47716 10.8711 8.17578 11.1725 8.17578 11.5449V20.3046H13.5664V11.5449C13.5664 11.1725 13.265 10.8711 12.8926 10.8711Z" fill="#FFA801"/>
<path d="M22.8027 5.58804L18.0859 0.197459C17.8227 -0.0657383 17.3963 -0.0657383 17.1331 0.197459L12.4163 5.58804C12.2235 5.78084 12.1656 6.07036 12.2702 6.32242C12.3742 6.57443 12.6203 6.73831 12.8927 6.73831H14.9142V20.3046H20.3048V6.73831H22.3263C22.5987 6.73831 22.8448 6.57448 22.9488 6.32242C23.0534 6.07041 22.9955 5.78084 22.8027 5.58804Z" fill="#FFA801"/>
</svg>
