<svg width="18" height="16" viewBox="0 0 18 16" fill="none" xmlns="http://www.w3.org/2000/svg">
<path d="M16.1339 1.34021H15.0039V0.460553C15.0039 0.207249 14.7929 0 14.535 0C14.2771 0 14.0661 0.207249 14.0661 0.460553V1.34021H9.47121V0.460553C9.47121 0.207249 9.26021 0 9.00233 0C8.74446 0 8.53346 0.207249 8.53346 0.460553V1.34021H3.89163V0.460553C3.89163 0.207249 3.68064 0 3.42276 0C3.16488 0 2.95389 0.207249 2.95389 0.460553V1.34021H1.8708C0.83928 1.34021 0 2.19223 0 3.20545V13.9133C0 14.9311 0.834592 15.7555 1.8708 15.7555H16.1292C17.1654 15.7555 18 14.9311 18 13.9179V3.20545C18.0047 2.19223 17.1654 1.34021 16.1339 1.34021ZM17.0669 13.9133C17.0669 14.4199 16.6543 14.8298 16.1386 14.8344H16.1339H1.8708C1.35504 14.8344 0.937743 14.4245 0.937743 13.9179V13.9133V3.20545C0.937743 2.69423 1.35504 2.26131 1.8708 2.26131H2.95389V2.92911C2.95389 3.18242 3.16488 3.38967 3.42276 3.38967C3.68064 3.38967 3.89163 3.18242 3.89163 2.92911V2.26131H8.53346V2.92911C8.53346 3.18242 8.74446 3.38967 9.00233 3.38967C9.26021 3.38967 9.47121 3.18242 9.47121 2.92911V2.26131H14.0661V2.92911C14.0661 3.18242 14.2771 3.38967 14.535 3.38967C14.7929 3.38967 15.0039 3.18242 15.0039 2.92911V2.26131H16.1339C16.6543 2.26131 17.0669 2.69884 17.0669 3.20545V13.9133Z" fill="#FFA801"/>
<path d="M8.37436 5.00482H7.55383C7.29595 5.00482 7.08496 5.21207 7.08496 5.46537C7.08496 5.71868 7.29595 5.92593 7.55383 5.92593H8.37436C8.63224 5.92593 8.84323 5.71868 8.84323 5.46537C8.84323 5.21207 8.63224 5.00482 8.37436 5.00482Z" fill="#FFA801"/>
<path d="M11.6378 5.00482H10.8173C10.5594 5.00482 10.3484 5.21207 10.3484 5.46537C10.3484 5.71868 10.5594 5.92593 10.8173 5.92593H11.6378C11.8957 5.92593 12.1067 5.71868 12.1067 5.46537C12.1067 5.21207 11.9004 5.00482 11.6378 5.00482Z" fill="#FFA801"/>
<path d="M14.9293 5.00482H14.1088C13.8509 5.00482 13.6399 5.21207 13.6399 5.46537C13.6399 5.71868 13.8509 5.92593 14.1088 5.92593H14.9293C15.1872 5.92593 15.3982 5.71868 15.3982 5.46537C15.3982 5.21207 15.1872 5.00482 14.9293 5.00482Z" fill="#FFA801"/>
<path d="M8.37436 8.18268H7.55383C7.29595 8.18268 7.08496 8.38993 7.08496 8.64323C7.08496 8.89654 7.29595 9.10378 7.55383 9.10378H8.37436C8.63224 9.10378 8.84323 8.89654 8.84323 8.64323C8.84323 8.38993 8.63224 8.18268 8.37436 8.18268Z" fill="#FFA801"/>
<path d="M5.08754 8.18268H4.26233C4.00445 8.18268 3.79346 8.38993 3.79346 8.64323C3.79346 8.89654 4.00445 9.10378 4.26233 9.10378H5.08285C5.34073 9.10378 5.55173 8.89654 5.55173 8.64323C5.55173 8.38993 5.34542 8.18268 5.08754 8.18268Z" fill="#FFA801"/>
<path d="M11.6378 8.18268H10.8173C10.5594 8.18268 10.3484 8.38993 10.3484 8.64323C10.3484 8.89654 10.5594 9.10378 10.8173 9.10378H11.6378C11.8957 9.10378 12.1067 8.89654 12.1067 8.64323C12.1067 8.38993 11.9004 8.18268 11.6378 8.18268Z" fill="#FFA801"/>
<path d="M14.9293 8.18268H14.1088C13.8509 8.18268 13.6399 8.38993 13.6399 8.64323C13.6399 8.89654 13.8509 9.10378 14.1088 9.10378H14.9293C15.1872 9.10378 15.3982 8.89654 15.3982 8.64323C15.3982 8.38993 15.1872 8.18268 14.9293 8.18268Z" fill="#FFA801"/>
<path d="M8.37436 11.3143H7.55383C7.29595 11.3143 7.08496 11.5215 7.08496 11.7748C7.08496 12.0281 7.29595 12.2354 7.55383 12.2354H8.37436C8.63224 12.2354 8.84323 12.0281 8.84323 11.7748C8.84323 11.5215 8.63224 11.3143 8.37436 11.3143Z" fill="#FFA801"/>
<path d="M5.08754 11.3143H4.26233C4.00445 11.3143 3.79346 11.5215 3.79346 11.7748C3.79346 12.0281 4.00445 12.2354 4.26233 12.2354H5.08285C5.34073 12.2354 5.55173 12.0281 5.55173 11.7748C5.55173 11.5215 5.34542 11.3143 5.08754 11.3143Z" fill="#FFA801"/>
<path d="M11.6378 11.3143H10.8173C10.5594 11.3143 10.3484 11.5215 10.3484 11.7748C10.3484 12.0281 10.5594 12.2354 10.8173 12.2354H11.6378C11.8957 12.2354 12.1067 12.0281 12.1067 11.7748C12.1067 11.5215 11.9004 11.3143 11.6378 11.3143Z" fill="#FFA801"/>
</svg>
