<svg width="12" height="13" viewBox="0 0 12 13" fill="none" xmlns="http://www.w3.org/2000/svg">
<path d="M11.8432 4.73456C11.6348 4.52359 11.298 4.52453 11.0908 4.73662L4.69559 11.2833C3.86589 12.1281 2.51833 12.1281 1.68708 11.2822C0.856459 10.436 0.856459 9.06398 1.68718 8.21815L8.2717 1.47868C8.7897 0.95128 9.63187 0.95128 10.1514 1.47982C10.6707 2.00862 10.6707 2.866 10.1512 3.39495L4.69658 8.94876C4.69624 8.94911 4.69594 8.94952 4.69559 8.94988C4.48778 9.16029 4.15195 9.16001 3.94456 8.94886C3.73683 8.73735 3.73683 8.39455 3.94456 8.18304L6.57748 5.50168C6.78521 5.29012 6.78519 4.94714 6.57741 4.73563C6.36963 4.52412 6.03277 4.52415 5.82504 4.7357L3.19214 7.41701C2.56893 8.05156 2.56893 9.08031 3.19219 9.71489C3.81544 10.3495 4.82581 10.3495 5.44908 9.71489C5.4498 9.71415 5.45037 9.71336 5.45107 9.71263L10.9036 4.16095C11.8386 3.20893 11.8386 1.66561 10.9036 0.713593C9.96845 -0.237864 8.45279 -0.237864 7.51833 0.713593L0.933816 7.45312C-0.311421 8.721 -0.311421 10.7788 0.934713 12.0483C2.18167 13.3172 4.20277 13.3172 5.44898 12.0484L11.8452 5.50061C12.0524 5.2885 12.0515 4.94554 11.8432 4.73456Z" fill="#3794E9"/>
</svg>
