<svg width="19" height="18" viewBox="0 0 19 18" fill="none" xmlns="http://www.w3.org/2000/svg">
<path d="M4.94754 13.8546C3.68014 13.8546 2.55277 13.0431 2.1434 11.835L2.11571 11.744C2.01917 11.424 1.97872 11.155 1.97872 10.8858V5.48798L0.0581228 11.8991C-0.188892 12.842 0.373995 13.8197 1.31842 14.0802L13.5603 17.3586C13.7131 17.3982 13.8659 17.4172 14.0164 17.4172C14.8048 17.4172 15.5253 16.8939 15.7272 16.1227L16.4404 13.8546H4.94754Z" fill="#319EED"/>
<path d="M7.12443 5.5419C7.99768 5.5419 8.70771 4.83173 8.70771 3.95848C8.70771 3.08523 7.99768 2.37506 7.12443 2.37506C6.25118 2.37506 5.54102 3.08523 5.54102 3.95848C5.54102 4.83173 6.25118 5.5419 7.12443 5.5419Z" fill="#319EED"/>
<path d="M17.0205 0H5.14518C4.05434 0 3.16602 0.888327 3.16602 1.97931V10.6878C3.16602 11.7787 4.05434 12.6671 5.14518 12.6671H17.0205C18.1114 12.6671 18.9998 11.7787 18.9998 10.6878V1.97931C18.9998 0.888327 18.1114 0 17.0205 0ZM5.14518 1.58342H17.0205C17.2391 1.58342 17.4164 1.76071 17.4164 1.97931V7.59948L14.9155 4.68125C14.6502 4.37017 14.2662 4.2039 13.8538 4.19447C13.4437 4.19679 13.0589 4.37886 12.7961 4.69401L9.85572 8.22325L8.89781 7.26766C8.35638 6.72623 7.47515 6.72623 6.93445 7.26766L4.74943 9.45195V1.97931C4.74943 1.76071 4.92672 1.58342 5.14518 1.58342Z" fill="#319EED"/>
</svg>
