<svg width="12" height="12" viewBox="0 0 12 12" fill="none" xmlns="http://www.w3.org/2000/svg">
<path d="M10.2452 1.76029C7.90353 -0.584282 4.10458 -0.586614 1.75997 1.75506C-0.584608 4.09679 -0.586967 7.89577 1.75476 10.2404C4.09643 12.5849 7.89545 12.5873 10.2401 10.2456C12.5846 7.90391 12.587 4.10487 10.2452 1.76029ZM6.00185 9.63516C5.68449 9.63516 5.42721 9.37791 5.42721 9.06051C5.42721 8.74312 5.68446 8.48584 6.00185 8.48584C6.31922 8.48584 6.5765 8.74309 6.5765 9.06051C6.57647 9.37788 6.31922 9.63516 6.00185 9.63516ZM6.93612 6.17519C6.60787 6.36709 6.57981 6.60316 6.5784 7.28339C6.57832 7.32837 6.57817 7.37375 6.57791 7.4194C6.57587 7.74091 6.31468 8.00015 5.9936 8.00015C5.99233 8.00015 5.99106 8.00015 5.98983 8.00015C5.66708 7.9981 5.40712 7.73481 5.40913 7.41203C5.40942 7.36806 5.40951 7.32434 5.40959 7.28103C5.41103 6.58192 5.41279 5.71192 6.34625 5.16628C7.09523 4.72844 7.18963 4.44083 7.1018 4.06343C6.9986 3.62013 6.59377 3.50525 6.27787 3.54136C6.17179 3.55354 5.64276 3.64082 5.64276 4.16418C5.64276 4.48688 5.3811 4.74856 5.05835 4.74856C4.7356 4.74856 4.47398 4.48688 4.47398 4.16418C4.47398 3.22676 5.16092 2.49317 6.14451 2.38024C7.15751 2.26403 8.0187 2.8472 8.24004 3.7985C8.5709 5.2196 7.38325 5.91385 6.93612 6.17519Z" fill="#BEBEBE"/>
</svg>
