<svg width="19" height="19" viewBox="0 0 19 19" fill="none" xmlns="http://www.w3.org/2000/svg">
<path d="M9.46846 17.3902H2.3671C1.93154 17.3902 1.57808 17.0367 1.57808 16.6012V2.39847C1.57808 1.96292 1.93158 1.60945 2.3671 1.60945H9.46846C9.90479 1.60945 10.2575 1.25677 10.2575 0.820435C10.2575 0.384103 9.90479 0.0313416 9.46846 0.0313416H2.3671C1.06203 0.0313416 0 1.09341 0 2.39847V16.6011C0 17.9062 1.06203 18.9682 2.3671 18.9682H9.46846C9.90479 18.9682 10.2575 18.6155 10.2575 18.1792C10.2575 17.7429 9.90479 17.3902 9.46846 17.3902Z" fill="#444444"/>
<path d="M18.7648 8.93816L13.9675 4.20393C13.6582 3.89778 13.1579 3.90175 12.8518 4.21184C12.5456 4.52192 12.5488 5.02138 12.8597 5.32753L16.288 8.7109H7.10127C6.66494 8.7109 6.31226 9.06359 6.31226 9.49992C6.31226 9.93625 6.66494 10.289 7.10127 10.289H16.288L12.8597 13.6723C12.5488 13.9785 12.5464 14.478 12.8518 14.788C13.0064 14.9443 13.21 15.0232 13.4136 15.0232C13.614 15.0232 13.8144 14.9474 13.9675 14.7959L18.7648 10.0617C18.9147 9.91336 18.9999 9.71133 18.9999 9.49988C18.9999 9.28851 18.9155 9.0873 18.7648 8.93816Z" fill="#444444"/>
</svg>
