<svg width="141" height="142" viewBox="0 0 141 142" fill="none" xmlns="http://www.w3.org/2000/svg">
<path d="M50.6719 73.2188H11.0156V37.7188H50.6719V73.2188ZM11.0156 79.875H19.8281V97.625H11.0156V79.875Z" fill="#FFA801"/>
<path d="M135.278 34.0578L125.578 28.2846V8.875C125.578 5.20519 122.613 2.21875 118.969 2.21875H8.8125C5.16853 2.21875 2.20312 5.20519 2.20312 8.875V102.062C2.20312 105.732 5.16853 108.719 8.8125 108.719H81.5156V114.377C81.5156 116.759 82.0708 119.149 83.1239 121.284L88.125 131.425V139.681L127.781 139.786V131.645L131.306 126.912C133.302 124.221 134.384 120.953 134.391 117.594V93.1875C134.391 89.5177 131.425 86.5312 127.781 86.5312C127.006 86.5312 126.27 86.691 125.578 86.9395V77.6562H134.391V46.201C136.005 45.6336 137.336 44.4548 138.101 42.9151C139.729 39.6313 138.403 35.6243 135.278 34.0578ZM134.276 39.2364C134.388 39.5699 134.419 39.9256 134.367 40.2737C134.315 40.6219 134.181 40.9525 133.977 41.238C133.772 41.5236 133.503 41.7559 133.191 41.9156C132.88 42.0753 132.535 42.1578 132.185 42.1562C131.846 42.1562 131.505 42.0742 131.342 41.9987L101.344 24.0446L71.4848 41.9233C70.96 42.1733 70.3597 42.2097 69.8089 42.0249C69.2581 41.8402 68.7993 41.4485 68.5282 40.9315C68.3984 40.6712 68.3212 40.3875 68.3011 40.0968C68.2811 39.8062 68.3186 39.5145 68.4114 39.2386C68.5965 38.675 68.9887 38.2202 69.6496 37.8807L98.3651 20.7897C99.2707 20.2631 100.298 19.9859 101.344 19.9859C102.389 19.9859 103.417 20.2631 104.322 20.7897L133.172 37.9539C133.432 38.0833 133.663 38.2633 133.852 38.4835C134.042 38.7036 134.186 38.9596 134.276 39.2364ZM8.8125 6.65625H118.969C120.183 6.65625 121.172 7.65247 121.172 8.875V25.6621L106.565 16.969C104.978 16.0446 103.178 15.5579 101.345 15.5579C99.5118 15.5579 97.7112 16.0446 96.1245 16.969L76.1775 28.8438H6.60938V8.875C6.60938 7.65247 7.59858 6.65625 8.8125 6.65625ZM6.60938 102.062V33.2812H68.7221L67.5434 33.9824C65.9771 34.7735 64.7862 36.1579 64.2319 37.8321C63.6777 39.5062 63.8053 41.3333 64.5868 42.9128C65.3755 44.4992 66.7062 45.6863 68.2969 46.2476V77.6562H94.7344V91.539C93.2076 89.9203 91.3684 88.6329 89.3298 87.7558C87.2913 86.8786 85.0962 86.4302 82.8794 86.4381C81.8967 86.4404 80.9309 86.695 80.0732 87.1778C79.2154 87.6607 78.4941 88.3558 77.9774 89.1976C77.4607 90.0393 77.1657 90.9999 77.1202 91.9884C77.0747 92.977 77.2803 93.9609 77.7174 94.8471L80.2863 100.019C80.945 101.346 81.335 102.804 81.4583 104.283H8.8125C7.59858 104.281 6.60938 103.285 6.60938 102.062ZM112.359 73.2188H107.953V62.125C107.953 58.4552 104.988 55.4688 101.344 55.4688C97.6998 55.4688 94.7344 58.4552 94.7344 62.125V73.2188H90.3281V51.0312H112.359V73.2188ZM127.781 90.9688C128.995 90.9688 129.984 91.965 129.984 93.1875V117.594C129.98 119.993 129.207 122.328 127.781 124.25L123.375 130.167V135.339L92.5312 135.255V130.385L87.0697 119.309C86.3163 117.775 85.9235 116.088 85.9219 114.377V105.262C85.9191 102.752 85.3392 100.277 84.2277 98.031L81.661 92.8613C81.5659 92.6706 81.5161 92.4602 81.5156 92.2467C81.5156 91.4902 82.1281 90.8756 83.0887 90.8756C86.1766 90.8791 89.137 92.1162 91.3203 94.3154C93.5036 96.5146 94.7315 99.4962 94.7344 102.606V110.844H99.1406V62.125C99.1406 60.9025 100.13 59.9062 101.344 59.9062C102.558 59.9062 103.547 60.9025 103.547 62.125V97.625H107.953V88.75C107.953 87.5275 108.942 86.5312 110.156 86.5312C111.37 86.5312 112.359 87.5275 112.359 88.75V97.625H116.766V88.75C116.766 87.5275 117.755 86.5312 118.969 86.5312C120.183 86.5312 121.172 87.5275 121.172 88.75V97.625H125.578V93.1875C125.578 91.965 126.567 90.9688 127.781 90.9688ZM121.172 82.502C120.466 82.2392 119.721 82.1011 118.969 82.0938C117.338 82.0993 115.767 82.7162 114.562 83.8244C113.359 82.7155 111.788 82.0985 110.156 82.0938C109.381 82.0938 108.645 82.2535 107.953 82.502V77.6562H121.172V82.502ZM116.766 73.2188V46.5938H85.9219V73.2188H72.7031V46.1678C73.0005 46.0613 73.298 45.9681 73.5954 45.815L101.344 29.2054L129.231 45.8926C129.471 46.0124 129.731 46.0768 129.984 46.1678V73.2188H116.766Z" fill="black"/>
<path d="M24.2344 11.0938H11.0156V24.4062H24.2344V11.0938ZM19.8281 19.9688H15.4219V15.5312H19.8281V19.9688ZM41.8594 11.0938H28.6406V24.4062H41.8594V11.0938ZM37.4531 19.9688H33.0469V15.5312H37.4531V19.9688ZM59.4844 11.0938H46.2656V24.4062H59.4844V11.0938ZM55.0781 19.9688H50.6719V15.5312H55.0781V19.9688ZM50.6719 68.7812H59.4844V95.4062H28.6406V73.2188H24.2344V99.8438H63.8906V64.3438H50.6719V68.7812ZM11.0156 77.6562H19.8281V82.0938H11.0156V77.6562ZM11.0156 86.5312H19.8281V90.9688H11.0156V86.5312ZM11.0156 95.4062H19.8281V99.8438H11.0156V95.4062Z" fill="black"/>
</svg>
