<svg width="150" height="150" viewBox="0 0 150 150" fill="none" xmlns="http://www.w3.org/2000/svg">
<path d="M53.9062 67.9688H11.7188V53.9062H53.9062V67.9688ZM53.9062 86.7188H11.7188V72.6562H53.9062V86.7188ZM53.9062 105.469H11.7188V91.4062H53.9062V105.469ZM53.9062 124.219H11.7188V110.156H53.9062V124.219Z" fill="#FFA801"/>
<path d="M138.281 107V23.4375C138.281 19.5609 135.127 16.4062 131.25 16.4062H9.375C5.49844 16.4062 2.34375 19.5609 2.34375 23.4375V126.562C2.34375 130.439 5.49844 133.594 9.375 133.594H131.25C135.127 133.594 138.281 130.439 138.281 126.562V105.469H133.594V126.562C133.594 127.856 132.541 128.906 131.25 128.906H63.2812V49.2188H133.594V108L138.281 107ZM58.5938 128.906H9.375C8.08359 128.906 7.03125 127.856 7.03125 126.562V49.2188H58.5938V128.906ZM7.03125 44.5312V23.4375C7.03125 22.1461 8.08359 21.0938 9.375 21.0938H131.25C132.541 21.0938 133.594 22.1461 133.594 23.4375V44.5312H7.03125Z" fill="black"/>
<path d="M11.7188 39.8438H25.7812V25.7812H11.7188V39.8438ZM16.4062 30.4688H21.0938V35.1562H16.4062V30.4688ZM30.4688 39.8438H44.5312V25.7812H30.4688V39.8438ZM35.1562 30.4688H39.8438V35.1562H35.1562V30.4688ZM49.2188 39.8438H63.2812V25.7812H49.2188V39.8438ZM53.9062 30.4688H58.5938V35.1562H53.9062V30.4688ZM11.7188 110.156H16.4062V114.844H11.7188V110.156ZM21.0938 110.156H53.9062V114.844H21.0938V110.156ZM11.7188 119.531H16.4062V124.219H11.7188V119.531ZM21.0938 119.531H53.9062V124.219H21.0938V119.531ZM128.906 106V53.9062H67.9688V124.219H128.906V105.469H124.219V119.531H72.6562V58.5938H124.219V107L128.906 106Z" fill="black"/>
<path d="M85 86.5079L98.5 67L112 86.5079L104.553 86.5079L104.553 111L92.4469 111L92.4469 86.5079L85 86.5079Z" fill="#FFA801"/>
</svg>
