<svg width="132" height="132" viewBox="0 0 132 132" fill="none" xmlns="http://www.w3.org/2000/svg">
<path d="M103.125 47.4375C113.377 47.4375 121.688 39.1268 121.688 28.875C121.688 18.6232 113.377 10.3125 103.125 10.3125C92.8732 10.3125 84.5625 18.6232 84.5625 28.875C84.5625 39.1268 92.8732 47.4375 103.125 47.4375Z" fill="#FFA801"/>
<path d="M43.3125 101.062V121.688H63.9375V113.438H101.062V121.688H121.688V101.062H43.3125Z" fill="#FFA801"/>
<path d="M123.75 92.8125H90.75V88.6875C90.75 86.4126 88.8999 84.5625 86.625 84.5625H84.5625V82.5C84.5625 79.0886 81.7864 76.3125 78.375 76.3125H8.25C7.70299 76.3125 7.17839 76.0952 6.79159 75.7084C6.4048 75.3216 6.1875 74.797 6.1875 74.25C6.1875 73.703 6.4048 73.1784 6.79159 72.7916C7.17839 72.4048 7.70299 72.1875 8.25 72.1875H41.25C44.6614 72.1875 47.4375 69.4114 47.4375 66V63.9375H88.6875V51.4326C92.9904 54.2104 98.0034 55.6878 103.125 55.6875C117.909 55.6875 129.938 43.659 129.938 28.875C129.938 14.091 117.909 2.0625 103.125 2.0625C95.5453 2.0625 88.704 5.23875 83.8221 10.3125H2.0625V63.9375H43.3125V66C43.3125 66.547 43.0952 67.0716 42.7084 67.4584C42.3216 67.8452 41.797 68.0625 41.25 68.0625H8.25C4.83862 68.0625 2.0625 70.8386 2.0625 74.25C2.0625 77.6614 4.83862 80.4375 8.25 80.4375H78.375C78.922 80.4375 79.4466 80.6548 79.8334 81.0416C80.2202 81.4284 80.4375 81.953 80.4375 82.5V84.5625H78.375C76.1001 84.5625 74.25 86.4126 74.25 88.6875V92.8125H41.25C37.8386 92.8125 35.0625 95.5886 35.0625 99V123.75C35.0625 127.161 37.8386 129.938 41.25 129.938H123.75C127.161 129.938 129.938 127.161 129.938 123.75V99C129.938 95.5886 127.161 92.8125 123.75 92.8125ZM32.5792 40.4271L6.1875 58.0202V16.9661L32.5792 40.4271ZM35.7658 43.2589L36.795 44.1746C39.1576 46.2782 42.2106 47.4404 45.374 47.4404C48.5373 47.4404 51.5904 46.2782 53.9529 44.1746L54.9842 43.2589L79.8126 59.8125H10.9374L35.7658 43.2589ZM84.5625 58.0202L58.1707 40.425L76.7992 23.8672C76.4899 25.4925 76.3125 27.1631 76.3125 28.875C76.3125 36.4547 79.4887 43.296 84.5625 48.1779V58.0202ZM103.125 6.1875C105.342 6.1875 107.704 9.33694 109.331 14.4375H96.9169C98.5463 9.33694 100.908 6.1875 103.125 6.1875ZM110.383 18.5625C110.886 21.0561 111.224 23.8281 111.332 26.8125H94.9183C95.0114 24.0414 95.3287 21.2824 95.8671 18.5625H110.383ZM125.707 26.8125H115.455C115.376 24.0456 115.094 21.2882 114.611 18.5625H123.307C124.631 21.1322 125.446 23.9335 125.707 26.8125ZM103.125 51.5625C100.908 51.5625 98.5462 48.4131 96.9189 43.3125H109.333C107.704 48.4131 105.342 51.5625 103.125 51.5625ZM90.7954 30.9375C90.8903 33.8642 91.1749 36.6362 91.6389 39.1875H82.9434C81.6212 36.617 80.8061 33.8161 80.5427 30.9375H90.7954ZM85.6371 43.3125H92.5939C93.3529 45.9834 94.3202 48.3079 95.4628 50.2033C91.6307 48.8256 88.2378 46.4461 85.6371 43.3125ZM95.8671 39.1875C95.3277 36.4678 95.0104 33.7087 94.9183 30.9375H111.332C111.239 33.7086 110.921 36.4676 110.383 39.1875H95.8671ZM115.455 30.9375H125.707C125.445 33.8163 124.63 36.6174 123.307 39.1875H114.611C115.075 36.6362 115.362 33.8642 115.455 30.9375ZM90.7954 26.8125H80.5427C80.8051 23.9337 81.6202 21.1326 82.9434 18.5625H91.6389C91.1553 21.288 90.8733 24.0455 90.7954 26.8125ZM110.785 50.2033C111.926 48.3079 112.895 45.9834 113.654 43.3125H120.611C118.011 46.447 114.618 48.8266 110.785 50.2033ZM120.613 14.4375H113.656C112.897 11.7666 111.93 9.44212 110.787 7.54669C114.619 8.92445 118.012 11.3039 120.613 14.4375ZM95.4649 7.54669C94.3223 9.44212 93.3549 11.7666 92.5959 14.4375H85.6391C88.239 11.303 91.6322 8.92337 95.4649 7.54669ZM79.8229 15.6626L51.2119 41.0933C47.9923 43.9581 42.7577 43.9581 39.5361 41.0933L9.54938 14.4375H80.5695C80.3096 14.8397 80.0601 15.246 79.8229 15.6626ZM78.375 88.6875H86.625V92.8125H78.375V88.6875ZM92.8125 125.812H72.1875V121.688H92.8125V125.812ZM125.812 123.75C125.812 124.297 125.595 124.822 125.208 125.208C124.822 125.595 124.297 125.812 123.75 125.812H96.9375V117.562H68.0625V125.812H41.25C40.703 125.812 40.1784 125.595 39.7916 125.208C39.4048 124.822 39.1875 124.297 39.1875 123.75V99C39.1875 98.453 39.4048 97.9284 39.7916 97.5416C40.1784 97.1548 40.703 96.9375 41.25 96.9375H123.75C124.297 96.9375 124.822 97.1548 125.208 97.5416C125.595 97.9284 125.812 98.453 125.812 99V123.75Z" fill="black"/>
<path d="M51.5625 117.562H55.6875V121.688H51.5625V117.562ZM43.3125 117.562H47.4375V121.688H43.3125V117.562ZM59.8125 117.562H63.9375V121.688H59.8125V117.562ZM117.562 117.562H121.688V121.688H117.562V117.562ZM109.312 117.562H113.438V121.688H109.312V117.562ZM101.062 117.562H105.188V121.688H101.062V117.562ZM117.562 109.312H121.688V113.438H117.562V109.312ZM109.312 109.312H113.438V113.438H109.312V109.312ZM92.8125 109.312H96.9375V113.438H92.8125V109.312ZM101.062 109.312H105.188V113.438H101.062V109.312ZM51.5625 109.312H55.6875V113.438H51.5625V109.312ZM59.8125 109.312H63.9375V113.438H59.8125V109.312ZM68.0625 109.312H72.1875V113.438H68.0625V109.312ZM43.3125 109.312H47.4375V113.438H43.3125V109.312ZM84.5625 109.312H88.6875V113.438H84.5625V109.312ZM76.3125 109.312H80.4375V113.438H76.3125V109.312ZM117.562 101.062H121.688V105.188H117.562V101.062ZM109.312 101.062H113.438V105.188H109.312V101.062ZM101.062 101.062H105.188V105.188H101.062V101.062ZM68.0625 101.062H72.1875V105.188H68.0625V101.062ZM92.8125 101.062H96.9375V105.188H92.8125V101.062ZM43.3125 101.062H47.4375V105.188H43.3125V101.062ZM76.3125 101.062H80.4375V105.188H76.3125V101.062ZM59.8125 101.062H63.9375V105.188H59.8125V101.062ZM51.5625 101.062H55.6875V105.188H51.5625V101.062ZM84.5625 101.062H88.6875V105.188H84.5625V101.062ZM30.9375 18.5625H35.0625V22.6875H30.9375V18.5625ZM22.6875 18.5625H26.8125V22.6875H22.6875V18.5625ZM39.1875 18.5625H43.3125V22.6875H39.1875V18.5625Z" fill="black"/>
</svg>
