<svg width="132" height="132" viewBox="0 0 132 132" fill="none" xmlns="http://www.w3.org/2000/svg">
<path d="M123.75 2.0625H8.25012C4.83874 2.0625 2.06262 4.83862 2.06262 8.25V94.875C2.06262 98.2864 4.83874 101.062 8.25012 101.062H15.6462L1.20874 115.5L16.5001 130.791L45.3751 101.916L53.2745 109.818L53.9489 101.062H123.75C127.161 101.062 129.938 98.2864 129.938 94.875V8.25C129.938 4.83862 127.161 2.0625 123.75 2.0625ZM8.25012 6.1875H123.75C124.887 6.1875 125.813 7.11356 125.813 8.25V26.8125H6.18762V8.25C6.18762 7.11356 7.11368 6.1875 8.25012 6.1875ZM49.8507 100.557L45.3751 96.0836L16.5001 124.959L7.04149 115.5L35.9165 86.625L31.4429 82.1494L51.3852 80.6149L49.8507 100.557ZM22.1823 78.7256L30.0837 86.625L28.0212 88.6875H14.4376V68.0625H59.8126V88.6875H54.8997L55.865 76.1351L22.1823 78.7256ZM123.75 96.9375H54.2645L54.5821 92.8125H63.9376V63.9375H10.3126V92.8125H23.8962L19.7712 96.9375H8.25012C7.11368 96.9375 6.18762 96.0114 6.18762 94.875V30.9375H125.813V94.875C125.813 96.0114 124.887 96.9375 123.75 96.9375Z" fill="black"/>
<path d="M22.6875 10.3125H10.3125V22.6875H22.6875V10.3125ZM18.5625 18.5625H14.4375V14.4375H18.5625V18.5625ZM39.1875 10.3125H26.8125V22.6875H39.1875V10.3125ZM35.0625 18.5625H30.9375V14.4375H35.0625V18.5625ZM55.6875 10.3125H43.3125V22.6875H55.6875V10.3125ZM51.5625 18.5625H47.4375V14.4375H51.5625V18.5625ZM68.0625 92.8125H121.688V63.9375H68.0625V92.8125ZM72.1875 68.0625H117.562V88.6875H72.1875V68.0625Z" fill="black"/>
<path d="M101.062 76.3125H105.188V80.4375H101.062V76.3125ZM92.8125 76.3125H96.9375V80.4375H92.8125V76.3125ZM84.5625 76.3125H88.6875V80.4375H84.5625V76.3125ZM76.3125 76.3125H80.4375V80.4375H76.3125V76.3125ZM109.312 76.3125H113.438V80.4375H109.312V76.3125Z" fill="black"/>
<path d="M35.0625 59.8125H10.3125V35.0625H35.0625V59.8125ZM59.8125 47.4375H39.1875V35.0625H59.8125V47.4375ZM84.5625 47.4375H63.9375V35.0625H84.5625V47.4375ZM121.688 59.8125H88.6875V35.0625H121.688V59.8125Z" fill="#FFA801"/>
</svg>
