<svg width="134" height="134" viewBox="0 0 134 134" fill="none" xmlns="http://www.w3.org/2000/svg">
<path d="M43.9688 64.9062H14.6562V35.5938H43.9688V64.9062ZM43.9688 98.4062H14.6562V69.0938H43.9688V98.4062Z" fill="#FFA801"/>
<path d="M125.625 2.09375H8.375C4.91194 2.09375 2.09375 4.91194 2.09375 8.375V100.5C2.09375 103.963 4.91194 106.781 8.375 106.781H64.9062V107.933C64.9062 110.181 65.4339 112.436 66.4347 114.451L71.1875 124.021V131.812L108.875 131.91V124.228L112.225 119.763C114.122 117.223 115.15 114.139 115.156 110.969V106.781H125.625C129.088 106.781 131.906 103.963 131.906 100.5V8.375C131.906 4.91194 129.088 2.09375 125.625 2.09375ZM8.375 6.28125H125.625C126.779 6.28125 127.719 7.22134 127.719 8.375V27.2188H6.28125V8.375C6.28125 7.22134 7.22134 6.28125 8.375 6.28125ZM83.75 52.3438C80.2869 52.3438 77.4688 55.1619 77.4688 58.625V60.7188H52.3438V39.7812H119.344V60.7188H90.0312V58.625C90.0312 55.1619 87.2131 52.3438 83.75 52.3438ZM77.4688 86.3818C76.0177 84.8544 74.2699 83.6395 72.3325 82.8118C70.3951 81.984 68.3091 81.5609 66.2023 81.5683C65.2684 81.5705 64.3506 81.8107 63.5354 82.2664C62.7202 82.722 62.0348 83.378 61.5437 84.1724C61.0526 84.9667 60.7722 85.8731 60.729 86.806C60.6858 87.7388 60.8811 88.6673 61.2966 89.5036L63.6563 94.2188H52.3438V73.2812H77.4688V86.3818ZM110.969 110.969C110.965 113.233 110.23 115.436 108.875 117.25L104.688 122.834V127.715L75.375 127.635V123.039L70.1846 112.587C69.4686 111.14 69.0953 109.547 69.0938 107.933V99.3317C69.0911 96.9634 68.54 94.6278 67.4837 92.5082L65.0444 87.6297C64.954 87.4497 64.9067 87.2512 64.9062 87.0498C64.9062 86.3358 65.4883 85.7558 66.4012 85.7558C69.3358 85.7591 72.1493 86.9265 74.2242 89.0018C76.2991 91.0771 77.466 93.8908 77.4688 96.8255V104.6H81.6562V58.625C81.6562 57.4713 82.5963 56.5312 83.75 56.5312C84.9037 56.5312 85.8438 57.4713 85.8438 58.625V92.125H90.0312V83.75C90.0312 82.5963 90.9713 81.6562 92.125 81.6562C93.2787 81.6562 94.2188 82.5963 94.2188 83.75V92.125H98.4062V83.75C98.4062 82.5963 99.3463 81.6562 100.5 81.6562C101.654 81.6562 102.594 82.5963 102.594 83.75V92.125H106.781V87.9375C106.781 86.7838 107.721 85.8438 108.875 85.8438C110.029 85.8438 110.969 86.7838 110.969 87.9375V110.969ZM108.875 81.6562C108.048 81.6562 107.263 81.8258 106.538 82.1169C106.182 80.7865 105.398 79.6105 104.306 78.7704C103.215 77.9303 101.877 77.4729 100.5 77.4688C98.9498 77.474 97.457 78.0562 96.3125 79.1019C95.1685 78.0555 93.6754 77.4732 92.125 77.4688C91.388 77.4688 90.6887 77.6195 90.0312 77.854V73.2812H119.344V94.2188H115.156V87.9375C115.156 84.4744 112.338 81.6562 108.875 81.6562ZM125.625 102.594H115.156V98.4062H123.531V69.0938H90.0312V64.9062H123.531V35.5938H48.1562V64.9062H77.4688V69.0938H48.1562V98.4062H64.8518C64.879 98.714 64.9062 99.0239 64.9062 99.3317V102.594H8.375C7.22134 102.594 6.28125 101.654 6.28125 100.5V31.4062H127.719V100.5C127.719 101.654 126.779 102.594 125.625 102.594Z" fill="black"/>
<path d="M23.0312 10.4688H10.4688V23.0312H23.0312V10.4688ZM18.8438 18.8438H14.6562V14.6562H18.8438V18.8438ZM39.7812 10.4688H27.2188V23.0312H39.7812V10.4688ZM35.5938 18.8438H31.4062V14.6562H35.5938V18.8438ZM56.5312 10.4688H43.9688V23.0312H56.5312V10.4688ZM52.3438 18.8438H48.1562V14.6562H52.3438V18.8438ZM56.5312 43.9688H60.7188V48.1562H56.5312V43.9688ZM64.9062 43.9688H115.156V48.1562H64.9062V43.9688ZM94.2188 52.3438H115.156V56.5312H94.2188V52.3438ZM56.5312 52.3438H73.2812V56.5312H56.5312V52.3438ZM27.2188 51.4769L24.5115 48.7697L21.551 51.7303L27.2188 57.3981L39.1678 45.449L36.2072 42.4885L27.2188 51.4769ZM27.2188 84.9769L24.5115 82.2697L21.551 85.2303L27.2188 90.8981L39.1678 78.949L36.2072 75.9885L27.2188 84.9769Z" fill="black"/>
</svg>
