<svg width="21" height="22" viewBox="0 0 21 22" fill="none" xmlns="http://www.w3.org/2000/svg">
<g clip-path="url(#clip0_11_385)">
<path d="M20.6822 16.8878L12.5301 2.76801C12.1063 2.03408 11.3474 1.59595 10.5 1.59595C9.65254 1.59595 8.89359 2.03412 8.46986 2.76801L0.317799 16.8878C-0.105933 17.6217 -0.105933 18.498 0.317799 19.232C0.741532 19.9659 1.50044 20.404 2.34791 20.404H18.6521C19.4995 20.404 20.2584 19.9659 20.6822 19.232C21.1059 18.498 21.1059 17.6217 20.6822 16.8878ZM19.6158 18.6162C19.4146 18.9646 19.0544 19.1726 18.6521 19.1726H2.34791C1.94563 19.1726 1.58535 18.9646 1.38421 18.6162C1.18307 18.2679 1.18307 17.8518 1.38421 17.5034L9.53627 3.38365C9.73745 3.03527 10.0977 2.82728 10.5 2.82728C10.9023 2.82728 11.2625 3.03527 11.4637 3.38365L19.6158 17.5034C19.8169 17.8518 19.8169 18.2679 19.6158 18.6162Z" fill="#F25959"/>
<path d="M10.4999 15.0681C10.0472 15.0681 9.67896 15.4364 9.67896 15.889C9.67896 16.3417 10.0472 16.7099 10.4999 16.7099C10.9525 16.7099 11.3208 16.3417 11.3208 15.889C11.3208 15.4364 10.9525 15.0681 10.4999 15.0681ZM9.88416 7.47449H11.1155V13.8366H9.88416V7.47449Z" fill="#F25959"/>
</g>
<defs>
<clipPath id="clip0_11_385">
<rect width="21" height="21" fill="white" transform="translate(0 0.5)"/>
</clipPath>
</defs>
</svg>
