<svg width="40" height="25" viewBox="0 0 40 25" fill="none" xmlns="http://www.w3.org/2000/svg">
<path d="M36.4493 0.0979614H9.46339C9.14721 0.0979614 8.89088 0.360494 8.89088 0.684496C8.89088 1.0085 9.14721 1.27103 9.46339 1.27103H36.4493C37.3295 1.27103 38.0455 2.00459 38.0455 2.90629V15.3949C38.0455 16.2966 37.3295 17.0301 36.4493 17.0301H35.0784V13.2085C35.0784 12.8845 34.8221 12.622 34.5059 12.622H4.87493C4.55875 12.622 4.30242 12.8845 4.30242 13.2085V17.0301H2.9316C2.05146 17.0301 1.33545 16.2966 1.33545 15.3949V2.90629C1.33545 2.00459 2.05146 1.27103 2.9316 1.27103H7.17336C7.48953 1.27103 7.74587 1.0085 7.74587 0.684496C7.74587 0.360494 7.48953 0.0979614 7.17336 0.0979614H2.9316C1.4201 0.0979614 0.19043 1.35776 0.19043 2.90629V15.3949C0.19043 16.9434 1.4201 18.2032 2.9316 18.2032H8.89111C9.20729 18.2032 9.46362 17.9407 9.46362 17.6167C9.46362 17.2927 9.20729 17.0301 8.89111 17.0301H5.44743V15.9991H28.1998C28.5159 15.9991 28.7723 15.7365 28.7723 15.4125C28.7723 15.0885 28.5159 14.826 28.1998 14.826H5.44743V13.7949H33.9334V14.826H30.4898C30.1736 14.826 29.9173 15.0885 29.9173 15.4125C29.9173 15.7365 30.1736 15.9991 30.4898 15.9991H33.9334V17.0301H11.1811C10.8649 17.0301 10.6086 17.2927 10.6086 17.6167C10.6086 17.9407 10.8649 18.2032 11.1811 18.2032H36.4493C37.9608 18.2032 39.1905 16.9434 39.1905 15.3949V2.90629C39.1904 1.35784 37.9607 0.0979614 36.4493 0.0979614Z" fill="#565656"/>
<path d="M34.5059 4.86758C34.8221 4.86758 35.0784 4.60492 35.0784 4.28075C35.0784 3.95658 34.8221 3.69391 34.5059 3.69391H32.8127C32.4966 3.69391 32.2402 3.95658 32.2402 4.28075C32.2402 4.60492 32.4966 4.86758 32.8127 4.86758H34.5059Z" fill="#565656"/>
<path d="M30.2007 4.86758C30.5169 4.86758 30.7732 4.60492 30.7732 4.28075C30.7732 3.95658 30.5169 3.69391 30.2007 3.69391H19.3645C19.0483 3.69391 18.792 3.95658 18.792 4.28075C18.792 4.60492 19.0483 4.86758 19.3645 4.86758H30.2007Z" fill="#565656"/>
<path d="M10.9601 19.7725C10.6439 19.7725 10.3875 20.0351 10.3875 20.3591C10.3875 20.3765 10.3692 22.1153 8.78092 23.2718C8.52321 23.4594 8.46275 23.8256 8.64596 24.0896C8.75764 24.2507 8.93397 24.3365 9.11313 24.3365C9.22786 24.3365 9.34374 24.3012 9.44435 24.2279C11.5089 22.7245 11.5327 20.4549 11.5327 20.359C11.5326 20.0351 11.2762 19.7725 10.9601 19.7725Z" fill="#565656"/>
<path d="M15.0588 19.7725C14.7427 19.7725 14.4863 20.0351 14.4863 20.3591V23.7499C14.4863 24.0739 14.7427 24.3364 15.0588 24.3364C15.375 24.3364 15.6313 24.0739 15.6313 23.7499V20.3591C15.6313 20.0351 15.375 19.7725 15.0588 19.7725Z" fill="#565656"/>
<path d="M19.8513 19.7725C19.5351 19.7725 19.2788 20.0351 19.2788 20.3591V23.7499C19.2788 24.0739 19.5351 24.3364 19.8513 24.3364C20.1675 24.3364 20.4238 24.0739 20.4238 23.7499V20.3591C20.4238 20.0351 20.1675 19.7725 19.8513 19.7725Z" fill="#565656"/>
<path d="M30.6003 23.2718C29.0334 22.1309 28.9945 20.4345 28.9937 20.3564C28.9923 20.0336 28.7365 19.7725 28.4211 19.7725C28.105 19.7725 27.8486 20.0351 27.8486 20.3591C27.8486 20.4549 27.8724 22.7246 29.9369 24.228C30.0375 24.3013 30.1534 24.3366 30.2682 24.3366C30.4472 24.3365 30.6236 24.2506 30.7353 24.0898C30.9185 23.8257 30.858 23.4594 30.6003 23.2718Z" fill="#565656"/>
<path d="M24.3215 19.7725C24.0054 19.7725 23.749 20.0351 23.749 20.3591V23.7499C23.749 24.0739 24.0054 24.3364 24.3215 24.3364C24.6377 24.3364 24.894 24.0739 24.894 23.7499V20.3591C24.894 20.0351 24.6377 19.7725 24.3215 19.7725Z" fill="#565656"/>
</svg>
