<svg width="31" height="32" viewBox="0 0 31 32" fill="none" xmlns="http://www.w3.org/2000/svg">
<path d="M26.8247 24.9185C26.8787 24.9436 26.937 24.9575 26.9962 24.9595C27.0555 24.9615 27.1145 24.9515 27.17 24.9301C27.2255 24.9086 27.2763 24.8762 27.3196 24.8347C27.3628 24.7932 27.3976 24.7433 27.4221 24.6879C27.7201 24.0146 27.8735 23.2836 27.8719 22.5443C27.8719 22.4217 27.8244 22.3041 27.7398 22.2174C27.6552 22.1308 27.5404 22.0821 27.4208 22.0821C27.3011 22.0821 27.1863 22.1308 27.1017 22.2174C27.0171 22.3041 26.9696 22.4217 26.9696 22.5443C26.971 23.1522 26.8448 23.7533 26.5996 24.3068C26.5504 24.4185 26.5464 24.5457 26.5886 24.6604C26.6308 24.7751 26.7157 24.8679 26.8247 24.9185Z" fill="#565656"/>
<path d="M30.4954 15.5892C30.3502 15.472 30.1807 15.3904 29.9999 15.3507C29.8191 15.311 29.6319 15.3143 29.4525 15.3602C28.6976 15.552 27.8236 15.7245 26.8584 15.8769C26.8303 14.9079 26.4351 13.9882 25.7567 13.3124C25.0782 12.6367 24.1697 12.258 23.2235 12.2565C22.3311 12.2533 21.4693 12.5897 20.8052 13.2005C20.0858 13.0009 19.3236 13.0358 18.6244 13.3003C18.0438 12.9205 17.369 12.7196 16.6802 12.7213C15.7384 12.7216 14.8335 13.0965 14.1562 13.767C13.7028 13.6016 13.2063 13.61 12.7584 13.7905C12.3106 13.9711 11.9417 14.3117 11.7199 14.7493C11.1491 14.7706 10.5911 14.9283 10.0905 15.21C9.58986 15.4917 9.16051 15.8895 8.83678 16.3716C6.51137 16.2202 4.20116 15.882 1.9274 15.3602C1.61215 15.2807 1.27898 15.3328 1.00119 15.5049C0.723404 15.6771 0.523743 15.9552 0.446136 16.2782C0.368529 16.6012 0.419333 16.9425 0.587371 17.2271C0.755409 17.5117 1.02692 17.7163 1.34216 17.7958C1.54094 17.8457 1.74822 17.8946 1.96091 17.9421V22.5443C1.96293 24.1139 2.49391 25.6346 3.46411 26.8494C4.4343 28.0641 5.78418 28.8984 7.28552 29.2112L7.96486 31.4906C7.99308 31.5853 8.05026 31.6682 8.12795 31.7271C8.20565 31.7861 8.29977 31.8179 8.39643 31.8178H9.94331C10.0629 31.8178 10.1777 31.769 10.2623 31.6824C10.3469 31.5957 10.3944 31.4782 10.3945 31.3556V29.3456H20.9857V31.3556C20.9857 31.4782 21.0332 31.5958 21.1178 31.6825C21.2024 31.7691 21.3172 31.8178 21.4369 31.8178H22.9837C23.0804 31.8179 23.1745 31.7861 23.2522 31.7271C23.3299 31.6682 23.3871 31.5853 23.4153 31.4906L24.0949 29.2112C25.5961 28.8982 26.9458 28.0639 27.9158 26.8491C28.8858 25.6344 29.4167 24.1137 29.4187 22.5443V17.9424C29.6317 17.8948 29.839 17.846 30.0375 17.7958C30.26 17.7387 30.4625 17.6187 30.6218 17.4495C30.781 17.2803 30.8908 17.0687 30.9384 16.8388C30.9861 16.6088 30.9698 16.3698 30.8914 16.1489C30.8129 15.928 30.6756 15.7341 30.4948 15.5892H30.4954ZM11.8411 15.6716C11.871 15.6716 11.9001 15.6738 11.9295 15.6753L11.9973 15.679C12.0961 15.6823 12.1932 15.6527 12.2742 15.5946C12.3551 15.5366 12.4155 15.4532 12.4464 15.3571C12.4951 15.1968 12.5784 15.0498 12.6901 14.927C12.8019 14.8042 12.9392 14.7088 13.0919 14.6479C13.2446 14.587 13.4088 14.5621 13.5721 14.5752C13.7355 14.5882 13.8939 14.6388 14.0356 14.7232C14.1266 14.7768 14.2329 14.7963 14.3364 14.7783C14.4399 14.7603 14.5341 14.706 14.6028 14.6246C14.8597 14.3177 15.1784 14.0713 15.5369 13.9023C15.8955 13.7334 16.2855 13.6459 16.6802 13.6458C17.2642 13.6443 17.833 13.8367 18.3013 14.1941C18.3661 14.2432 18.4425 14.2736 18.5226 14.2823C18.6026 14.291 18.6836 14.2776 18.7569 14.2435C19.3938 13.9476 20.1181 13.9171 20.7766 14.1585C20.8582 14.1881 20.9465 14.1929 21.0307 14.1724C21.1149 14.1519 21.1916 14.1068 21.2515 14.0428C21.5058 13.7694 21.8118 13.552 22.1509 13.4038C22.4899 13.2557 22.8549 13.1798 23.2235 13.1809C23.9494 13.1818 24.6453 13.4776 25.1586 14.0035C25.6718 14.5293 25.9606 15.2423 25.9615 15.986V16.0095C22.5542 16.441 19.1234 16.6484 15.6902 16.6304C13.7066 16.6304 11.7694 16.5676 9.95388 16.4506C10.4625 15.9531 11.1379 15.6743 11.8411 15.6716ZM9.4924 30.8934H8.73056L8.2665 29.3369C8.37701 29.3427 8.48822 29.3456 8.60011 29.3456H9.49214L9.4924 30.8934ZM22.6499 30.8934H21.888V29.3456H22.7801C22.892 29.3456 23.0032 29.3427 23.1137 29.3369L22.6499 30.8934ZM28.5164 22.5443C28.5147 23.9387 28.0297 25.2873 27.148 26.3495C26.2662 27.4118 25.0449 28.1188 23.7017 28.3445C23.6919 28.3445 23.6827 28.3482 23.6729 28.3498C23.3775 28.3974 23.079 28.4213 22.7801 28.4214H8.60036C8.30376 28.4214 8.0076 28.3979 7.71452 28.3512C7.7024 28.349 7.69054 28.3456 7.67817 28.3445C6.33515 28.1186 5.11404 27.4115 4.2324 26.3493C3.35075 25.287 2.86583 23.9386 2.86403 22.5443V18.1278C6.19575 18.7672 10.8382 19.1397 15.6902 19.1397C20.5422 19.1397 25.1873 18.7675 28.5164 18.1283V22.5443ZM30.0633 16.5787C30.0639 16.6519 30.0405 16.7232 29.9968 16.7811C29.9532 16.8391 29.8918 16.8803 29.8225 16.8983C26.5506 17.7229 21.2675 18.2152 15.6902 18.2152C10.1171 18.2152 4.83398 17.7229 1.55795 16.898C1.4997 16.8824 1.44687 16.8503 1.40543 16.8056C1.364 16.7608 1.3356 16.705 1.32346 16.6446C1.31131 16.5842 1.3159 16.5215 1.3367 16.4636C1.3575 16.4057 1.39368 16.3549 1.44116 16.3169C1.49596 16.2725 1.56363 16.2481 1.63349 16.2474C1.65957 16.2476 1.68554 16.251 1.71084 16.2575C4.90978 17.0699 10.1359 17.5549 15.6902 17.5549C21.2445 17.5549 26.4704 17.0699 29.6696 16.2577C29.716 16.2456 29.7645 16.2447 29.8112 16.255C29.858 16.2653 29.9019 16.2866 29.9393 16.3172C29.978 16.3482 30.0093 16.3878 30.0308 16.4331C30.0523 16.4783 30.0634 16.5281 30.0633 16.5784V16.5787Z" fill="#565656"/>
<path d="M12.1582 4.61258C12.5534 4.61258 12.9397 4.49253 13.2683 4.2676C13.5968 4.04268 13.8529 3.72298 14.0042 3.34894C14.1554 2.97491 14.195 2.56333 14.1179 2.16625C14.0408 1.76918 13.8505 1.40444 13.571 1.11816C13.2916 0.831888 12.9356 0.636932 12.548 0.557949C12.1604 0.478966 11.7587 0.519503 11.3936 0.674434C11.0285 0.829365 10.7164 1.09173 10.4969 1.42836C10.2773 1.76498 10.1602 2.16074 10.1602 2.5656C10.1608 3.1083 10.3715 3.62859 10.746 4.01234C11.1206 4.39609 11.6285 4.61195 12.1582 4.61258ZM12.1582 1.44306C12.3749 1.44306 12.5868 1.5089 12.7669 1.63224C12.9471 1.75559 13.0876 1.9309 13.1705 2.13602C13.2534 2.34114 13.2751 2.56684 13.2329 2.78459C13.1906 3.00235 13.0862 3.20236 12.933 3.35935C12.7797 3.51634 12.5845 3.62325 12.372 3.66657C12.1594 3.70988 11.9391 3.68765 11.7389 3.60269C11.5387 3.51773 11.3676 3.37385 11.2472 3.18925C11.1268 3.00465 11.0625 2.78762 11.0625 2.5656C11.0628 2.26799 11.1784 1.98267 11.3838 1.77223C11.5892 1.56179 11.8677 1.44341 12.1582 1.44306Z" fill="#565656"/>
<path d="M18.1518 7.91421C18.4705 7.91432 18.7821 7.81759 19.0472 7.63626C19.3122 7.45493 19.5188 7.19714 19.6409 6.8955C19.7629 6.59387 19.7949 6.26192 19.7328 5.94166C19.6707 5.6214 19.5172 5.3272 19.2919 5.09628C19.0666 4.86536 18.7795 4.70808 18.4669 4.64434C18.1543 4.5806 17.8303 4.61326 17.5358 4.73819C17.2414 4.86312 16.9897 5.07471 16.8126 5.3462C16.6355 5.61768 16.541 5.93687 16.541 6.2634C16.5415 6.70098 16.7113 7.12051 17.0133 7.42997C17.3153 7.73944 17.7247 7.91359 18.1518 7.91421ZM18.1518 5.53704C18.2921 5.53693 18.4292 5.57944 18.5459 5.65919C18.6625 5.73894 18.7535 5.85235 18.8072 5.98507C18.861 6.11778 18.8751 6.26384 18.8478 6.40478C18.8205 6.54571 18.753 6.67519 18.6539 6.77682C18.5547 6.87846 18.4284 6.94769 18.2908 6.97576C18.1533 7.00383 18.0107 6.98948 17.8811 6.93452C17.7516 6.87956 17.6408 6.78646 17.5629 6.667C17.485 6.54754 17.4434 6.40708 17.4434 6.2634C17.4436 6.07091 17.5183 5.88636 17.6511 5.7502C17.7839 5.61404 17.9639 5.53739 18.1518 5.53704Z" fill="#565656"/>
<path d="M11.7065 9.64636C11.7065 9.8945 11.7784 10.1371 11.9129 10.3434C12.0475 10.5497 12.2387 10.7105 12.4625 10.8055C12.6863 10.9004 12.9325 10.9253 13.1701 10.8769C13.4076 10.8285 13.6258 10.709 13.7971 10.5335C13.9683 10.358 14.085 10.1345 14.1322 9.89112C14.1795 9.64775 14.1552 9.39549 14.0625 9.16624C13.9699 8.937 13.8129 8.74105 13.6115 8.60319C13.4101 8.46534 13.1734 8.39175 12.9312 8.39175C12.6065 8.39217 12.2952 8.52449 12.0657 8.75968C11.8361 8.99488 11.707 9.31375 11.7065 9.64636ZM13.2534 9.64636C13.2534 9.71166 13.2345 9.7755 13.1991 9.82979C13.1637 9.88408 13.1134 9.9264 13.0545 9.95139C12.9956 9.97638 12.9308 9.98292 12.8683 9.97018C12.8058 9.95744 12.7483 9.92599 12.7033 9.87982C12.6582 9.83365 12.6275 9.77482 12.6151 9.71077C12.6026 9.64673 12.609 9.58034 12.6334 9.52002C12.6578 9.45969 12.6991 9.40812 12.7521 9.37184C12.8051 9.33557 12.8674 9.3162 12.9312 9.3162C13.0166 9.31627 13.0985 9.35108 13.159 9.41298C13.2194 9.47488 13.2533 9.55882 13.2534 9.64636Z" fill="#565656"/>
</svg>
