<svg width="34" height="30" viewBox="0 0 34 30" fill="none" xmlns="http://www.w3.org/2000/svg">
<path d="M32.6404 17.4711H32.0904V15.7807C32.089 14.6618 31.4414 13.6498 30.4404 13.2022V4.51121C30.4403 4.28723 30.3108 4.08466 30.1104 3.99507C30.325 3.64276 30.4393 3.23607 30.4404 2.82079C30.4404 1.57601 29.4554 0.566895 28.2404 0.566895C27.0254 0.566895 26.0404 1.57601 26.0404 2.82079C26.0427 3.21762 26.1483 3.60663 26.3462 3.94774H7.03463C7.23256 3.60663 7.33816 3.21762 7.34043 2.82079C7.34043 1.57601 6.35545 0.566895 5.14043 0.566895C3.92541 0.566895 2.94043 1.57601 2.94043 2.82079C2.9416 3.23607 3.05586 3.64276 3.27043 3.99507C3.07009 4.08466 2.94057 4.28723 2.94043 4.51121V13.2022C1.93943 13.6498 1.29187 14.6618 1.29043 15.7807V17.4711H0.74043C0.436692 17.4711 0.19043 17.7234 0.19043 18.0346V25.9232C0.19043 26.2344 0.436692 26.4867 0.74043 26.4867H1.29043V29.3041C1.29043 29.6153 1.53669 29.8676 1.84043 29.8676H4.04043C4.34417 29.8676 4.59043 29.6153 4.59043 29.3041V26.4867H28.7904V29.3041C28.7904 29.6153 29.0367 29.8676 29.3404 29.8676H31.5404C31.8442 29.8676 32.0904 29.6153 32.0904 29.3041V26.4867H32.6404C32.9442 26.4867 33.1904 26.2344 33.1904 25.9232V18.0346C33.1904 17.7234 32.9442 17.4711 32.6404 17.4711ZM28.2404 1.69384C28.848 1.69384 29.3404 2.19836 29.3404 2.82079C29.3404 3.44322 28.848 3.94774 28.2404 3.94774C27.6329 3.94774 27.1404 3.44322 27.1404 2.82079C27.1404 2.19836 27.6329 1.69384 28.2404 1.69384ZM5.14043 1.69384C5.74797 1.69384 6.24043 2.19836 6.24043 2.82079C6.24043 3.44322 5.74797 3.94774 5.14043 3.94774C4.53289 3.94774 4.04043 3.44322 4.04043 2.82079C4.04043 2.19836 4.53289 1.69384 5.14043 1.69384ZM4.04043 5.07469H29.3404V12.9633H27.1261C27.4901 12.4785 27.6884 11.8846 27.6904 11.2729V10.146C27.6886 8.59077 26.4584 7.33042 24.9404 7.32859H20.5404C19.0224 7.33042 17.7922 8.59077 17.7904 10.146V11.2729C17.7924 11.8846 17.9908 12.4785 18.3547 12.9633H15.0261C15.3901 12.4785 15.5884 11.8846 15.5904 11.2729V10.146C15.5886 8.59077 14.3584 7.33042 12.8404 7.32859H8.44043C6.92243 7.33042 5.69222 8.59077 5.69043 10.146V11.2729C5.69242 11.8846 5.89077 12.4785 6.25473 12.9633H4.04043V5.07469ZM26.5904 10.146V11.2729C26.5904 12.2065 25.8517 12.9633 24.9404 12.9633H20.5404C19.6291 12.9633 18.8904 12.2065 18.8904 11.2729V10.146C18.8904 9.21235 19.6291 8.45553 20.5404 8.45553H24.9404C25.8517 8.45553 26.5904 9.21235 26.5904 10.146ZM14.4904 10.146V11.2729C14.4904 12.2065 13.7517 12.9633 12.8404 12.9633H8.44043C7.52915 12.9633 6.79043 12.2065 6.79043 11.2729V10.146C6.79043 9.21235 7.52915 8.45553 8.44043 8.45553H12.8404C13.7517 8.45553 14.4904 9.21235 14.4904 10.146ZM2.39043 15.7807C2.39043 14.8471 3.12915 14.0903 4.04043 14.0903H29.3404C30.2517 14.0903 30.9904 14.8471 30.9904 15.7807V17.4711H2.39043V15.7807ZM3.49043 28.7406H2.39043V26.4867H3.49043V28.7406ZM30.9904 28.7406H29.8904V26.4867H30.9904V28.7406ZM32.0904 25.3598H1.29043V18.5981H32.0904V25.3598Z" fill="#565656"/>
<path d="M5.14061 23.1058H2.94062C2.63689 23.1058 2.39062 23.3583 2.39062 23.6696C2.39062 23.981 2.63689 24.2334 2.94062 24.2334H5.14061C5.44435 24.2334 5.69061 23.981 5.69061 23.6696C5.69061 23.3583 5.44435 23.1058 5.14061 23.1058Z" fill="#565656"/>
<path d="M30.4405 23.1058H7.34053C7.03679 23.1058 6.79053 23.3583 6.79053 23.6696C6.79053 23.981 7.03679 24.2334 7.34053 24.2334H30.4405C30.7443 24.2334 30.9905 23.981 30.9905 23.6696C30.9905 23.3583 30.7443 23.1058 30.4405 23.1058Z" fill="#565656"/>
</svg>
