<svg width="23" height="26" viewBox="0 0 23 26" fill="none" xmlns="http://www.w3.org/2000/svg">
<path d="M21.2736 2.09396H2.10693C1.41777 2.09396 0.856934 2.66854 0.856934 3.37459V24.7183C0.856934 25.4244 1.41777 25.9989 2.10693 25.9989H21.2736C21.9627 25.9989 22.5236 25.4244 22.5236 24.7183V3.37459C22.5236 2.66854 21.9628 2.09396 21.2736 2.09396ZM21.6903 24.7183C21.6903 24.9535 21.5036 25.1452 21.2736 25.1452H2.10693C1.87695 25.1452 1.69028 24.9535 1.69028 24.7183V3.37459C1.69028 3.13937 1.87695 2.94773 2.10693 2.94773H21.2736C21.5036 2.94773 21.6902 3.13937 21.6902 3.37459V24.7183H21.6903Z" fill="#565656"/>
<path d="M9.60675 0.386475H3.77344C3.08428 0.386475 2.52344 0.961062 2.52344 1.66711V2.52089C2.52344 2.75651 2.70967 2.94775 2.94009 2.94775H10.4401C10.6705 2.94775 10.8568 2.75651 10.8568 2.52089V1.66711C10.8568 0.961062 10.2959 0.386475 9.60675 0.386475ZM10.0234 2.09398H3.35674V1.66711C3.35674 1.4319 3.54341 1.24025 3.77339 1.24025H9.60675C9.83673 1.24025 10.0234 1.4319 10.0234 1.66711V2.09398H10.0234Z" fill="#565656"/>
<path d="M19.6072 0.386475H13.7739C13.0848 0.386475 12.5239 0.961062 12.5239 1.66711V2.52089C12.5239 2.75651 12.7102 2.94775 12.9406 2.94775H20.4406C20.671 2.94775 20.8572 2.75651 20.8572 2.52089V1.66711C20.8572 0.961062 20.2964 0.386475 19.6072 0.386475ZM20.0239 2.09398H13.3572V1.66711C13.3572 1.4319 13.5439 1.24025 13.7739 1.24025H19.6072C19.8372 1.24025 20.0239 1.4319 20.0239 1.66711V2.09398H20.0239Z" fill="#565656"/>
<path d="M21.2736 2.09396H2.10693C1.41777 2.09396 0.856934 2.66855 0.856934 3.37459V7.64333C0.856934 7.87895 1.04316 8.07019 1.27358 8.07019H22.1069C22.3374 8.07019 22.5236 7.87895 22.5236 7.64333V3.37459C22.5236 2.66855 21.9628 2.09396 21.2736 2.09396ZM21.6903 7.21647H1.69028V3.37459C1.69028 3.13938 1.87695 2.94773 2.10693 2.94773H21.2736C21.5036 2.94773 21.6902 3.13938 21.6902 3.37459V7.21647H21.6903Z" fill="#565656"/>
<path d="M13.7737 3.80148H9.60708C9.37666 3.80148 9.19043 3.99273 9.19043 4.22834V5.93581C9.19043 6.17143 9.37666 6.36267 9.60708 6.36267H13.7737C14.0041 6.36267 14.1904 6.17143 14.1904 5.93581V4.22834C14.1904 3.99273 14.0041 3.80148 13.7737 3.80148ZM13.357 5.50896H10.0237V4.6552H13.357V5.50896Z" fill="#565656"/>
<path d="M7.94025 3.80148H6.27359C6.04317 3.80148 5.85693 3.99273 5.85693 4.22834V5.93581C5.85693 6.17143 6.04317 6.36267 6.27359 6.36267H7.94025C8.17067 6.36267 8.3569 6.17143 8.3569 5.93581V4.22834C8.3569 3.99273 8.17067 3.80148 7.94025 3.80148ZM7.5236 5.50896H6.69024V4.6552H7.5236V5.50896Z" fill="#565656"/>
<path d="M4.60673 3.80148H2.94009C2.70967 3.80148 2.52344 3.99273 2.52344 4.22834V5.93581C2.52344 6.17143 2.70967 6.36267 2.94009 6.36267H4.60673C4.83715 6.36267 5.02338 6.17143 5.02338 5.93581V4.22834C5.02343 3.99273 4.83715 3.80148 4.60673 3.80148ZM4.19008 5.50896H3.35673V4.6552H4.19008V5.50896Z" fill="#565656"/>
<path d="M20.4402 3.80148H18.7736C18.5432 3.80148 18.3569 3.99273 18.3569 4.22834V5.93581C18.3569 6.17143 18.5432 6.36267 18.7736 6.36267H20.4402C20.6706 6.36267 20.8569 6.17143 20.8569 5.93581V4.22834C20.8569 3.99273 20.6706 3.80148 20.4402 3.80148ZM20.0236 5.50896H19.1902V4.6552H20.0236V5.50896Z" fill="#565656"/>
<path d="M17.1067 3.80148H15.4401C15.2097 3.80148 15.0234 3.99273 15.0234 4.22834V5.93581C15.0234 6.17143 15.2097 6.36267 15.4401 6.36267H17.1067C17.3371 6.36267 17.5234 6.17143 17.5234 5.93581V4.22834C17.5234 3.99273 17.3371 3.80148 17.1067 3.80148ZM16.6901 5.50896H15.8567V4.6552H16.6901V5.50896Z" fill="#565656"/>
<path d="M20.0238 8.92398H3.35708C3.12666 8.92398 2.94043 9.11522 2.94043 9.35084V11.9121C2.94043 12.1477 3.12666 12.339 3.35708 12.339H20.0237C20.2541 12.339 20.4404 12.1477 20.4404 11.9121V9.35084C20.4404 9.11522 20.2542 8.92398 20.0238 8.92398ZM19.6071 11.4852H3.77378V9.77775H19.6071V11.4852H19.6071Z" fill="#565656"/>
<path d="M20.0238 11.4852H3.35708C3.12666 11.4852 2.94043 11.6765 2.94043 11.9121V22.1571C2.94043 22.3927 3.12666 22.584 3.35708 22.584H20.0237C20.2541 22.584 20.4404 22.3927 20.4404 22.1571V11.9121C20.4404 11.6765 20.2542 11.4852 20.0238 11.4852ZM19.6071 21.7302H3.77378V12.3389H19.6071V21.7302H19.6071Z" fill="#565656"/>
<path d="M7.52379 23.4377H5.44043C4.75127 23.4377 4.19043 24.0123 4.19043 24.7183V25.5721C4.19043 25.8077 4.37666 25.9989 4.60708 25.9989H8.35709C8.58751 25.9989 8.77374 25.8077 8.77374 25.5721V24.7183C8.77379 24.0123 8.21295 23.4377 7.52379 23.4377ZM7.94044 25.1452H5.02378V24.7183C5.02378 24.4831 5.21045 24.2915 5.44043 24.2915H7.52379C7.75377 24.2915 7.94044 24.4831 7.94044 24.7183V25.1452Z" fill="#565656"/>
<path d="M7.40166 13.3178C7.23872 13.1509 6.97539 13.1509 6.8125 13.3178L4.72914 15.4522C4.5662 15.6191 4.5662 15.8889 4.72914 16.0558C4.81039 16.139 4.91708 16.1808 5.02372 16.1808C5.13041 16.1808 5.23705 16.139 5.3183 16.0558L7.40166 13.9214C7.5646 13.7545 7.5646 13.4847 7.40166 13.3178Z" fill="#565656"/>
<path d="M9.48528 13.3178C9.32234 13.1509 9.05901 13.1509 8.89612 13.3178L7.64613 14.5984C7.48319 14.7653 7.48319 15.0351 7.64613 15.202C7.72738 15.2852 7.83407 15.3271 7.94071 15.3271C8.0474 15.3271 8.15404 15.2852 8.23529 15.202L9.48528 13.9214C9.64822 13.7545 9.64822 13.4847 9.48528 13.3178Z" fill="#565656"/>
<path d="M6.15166 16.7329C5.98872 16.5658 5.72539 16.5658 5.56249 16.7329L4.72914 17.5871C4.5662 17.7541 4.5662 18.0241 4.72914 18.191C4.81039 18.2743 4.91708 18.3162 5.02372 18.3162C5.13041 18.3162 5.23705 18.2743 5.3183 18.191L6.15166 17.3368C6.3146 17.1698 6.3146 16.8998 6.15166 16.7329Z" fill="#565656"/>
<path d="M7.4019 15.4522C7.23896 15.2853 6.97564 15.2853 6.81274 15.4522L6.39609 15.8793C6.2332 16.0463 6.2332 16.3163 6.39609 16.4832C6.47734 16.5665 6.58403 16.6084 6.69067 16.6084C6.79736 16.6084 6.904 16.5665 6.98525 16.4832L7.4019 16.0561C7.56484 15.8892 7.56484 15.6192 7.4019 15.4522Z" fill="#565656"/>
</svg>
