<svg width="42" height="28" viewBox="0 0 42 28" fill="none" xmlns="http://www.w3.org/2000/svg">
<path d="M41.4133 20.0995L39.6031 10.5441C39.4082 9.70216 39.0198 8.9174 38.4687 8.25226L39.5312 7.18534C39.6439 7.07246 39.7073 6.91938 39.7073 6.75978C39.7073 6.60017 39.6439 6.44709 39.5312 6.33421L39.325 6.12771C39.6741 5.8714 39.9673 5.54637 40.1864 5.17258C40.4056 4.79878 40.5462 4.38409 40.5996 3.95395C40.6128 3.45915 40.5235 2.96699 40.3373 2.50844C40.2082 2.18316 40.1314 1.83943 40.1098 1.49005C40.1098 1.33031 40.0464 1.17712 39.9336 1.06416C39.8208 0.951212 39.6678 0.887756 39.5082 0.887756C39.3487 0.887756 39.1957 0.951212 39.0828 1.06416C38.97 1.17712 38.9066 1.33031 38.9066 1.49005C38.9254 1.96894 39.023 2.44143 39.1957 2.8884C39.3248 3.19645 39.3941 3.52631 39.3999 3.86033C39.3493 4.14641 39.2409 4.41913 39.0813 4.66177C38.9217 4.90441 38.7143 5.11187 38.4718 5.27142L38.0734 4.87253C37.9585 4.76371 37.8063 4.70306 37.6482 4.70306C37.49 4.70306 37.3379 4.76371 37.223 4.87253L35.6159 6.4853C35.2456 6.39968 34.8668 6.35581 34.4867 6.35452H22.3936C12.036 6.35452 4.42265 15.0761 2.11231 23.8437H1.42481C1.26526 23.8437 1.11225 23.9072 0.999436 24.0202C0.886621 24.1331 0.823242 24.2863 0.823242 24.446V26.8865C0.823242 27.0463 0.886621 27.1995 0.999436 27.3124C1.11225 27.4254 1.26526 27.4888 1.42481 27.4888H38.0411C38.2006 27.4887 38.3536 27.4253 38.4663 27.3123C38.5791 27.1994 38.6426 27.0462 38.6426 26.8865V24.5737C38.6516 24.5322 38.6562 24.4899 38.6564 24.4474C38.6564 22.4395 39.381 21.31 41.0066 20.7851C41.1462 20.7401 41.2645 20.6455 41.3394 20.5193C41.4143 20.3931 41.4405 20.2438 41.4133 20.0995ZM37.6492 6.15318L38.2563 6.76098L37.6031 7.41765C37.3694 7.23898 37.1211 7.08044 36.8606 6.94373L37.6492 6.15318ZM2.02637 26.2842V25.0483H2.56434H2.57637H37.4395V26.2829L2.02637 26.2842ZM37.4742 23.8437H3.35462C5.63953 15.6305 12.7665 7.5591 22.3936 7.5591H34.4867C35.4954 7.56209 36.4649 7.95104 37.1965 8.64633C37.2016 8.65184 37.2051 8.65803 37.2106 8.66354C37.224 8.67696 37.2395 8.68694 37.2539 8.69796C37.8366 9.26939 38.2435 9.99605 38.4264 10.7919L40.1366 19.8239C38.4924 20.5246 37.6169 21.8465 37.4742 23.8437Z" fill="#565656"/>
<path d="M26.5481 20.7476H16.2583C16.0988 20.7476 15.9457 20.8111 15.8329 20.9241C15.7201 21.0371 15.6567 21.1904 15.6567 21.3502C15.6567 21.51 15.7201 21.6633 15.8329 21.7763C15.9457 21.8893 16.0988 21.9528 16.2583 21.9528H26.5481C26.7076 21.9528 26.8607 21.8893 26.9735 21.7763C27.0863 21.6633 27.1497 21.51 27.1497 21.3502C27.1497 21.1904 27.0863 21.0371 26.9735 20.9241C26.8607 20.8111 26.7076 20.7476 26.5481 20.7476Z" fill="#565656"/>
<path d="M36.2055 11.2905C36.1631 11.0554 36.0425 10.8416 35.8633 10.6837C35.6842 10.5259 35.4569 10.4334 35.2186 10.4212H24.6493C20.5322 10.4212 16.9287 13.2089 15.6822 17.3582C15.6552 17.4481 15.6496 17.5431 15.6658 17.6356C15.682 17.728 15.7195 17.8155 15.7755 17.8908C15.8314 17.9661 15.9042 18.0273 15.988 18.0695C16.0718 18.1117 16.1642 18.1336 16.258 18.1336H36.4706C36.6177 18.1323 36.7626 18.0968 36.8938 18.0301C37.025 17.9633 37.139 17.8671 37.2268 17.7488C37.3444 17.5977 37.4263 17.4219 37.4663 17.2345C37.5063 17.0472 37.5034 16.8532 37.4578 16.6671L36.2055 11.2905ZM26.1274 16.929V15.2426H29.2253V16.929H26.1274ZM30.4284 16.929V14.642C30.4284 14.4823 30.3651 14.3291 30.2523 14.2161C30.1394 14.1032 29.9864 14.0397 29.8269 14.0397H25.5259C25.3663 14.0397 25.2133 14.1032 25.1005 14.2161C24.9877 14.3291 24.9243 14.4823 24.9243 14.642V16.9297H17.105C18.3872 13.7265 21.3287 11.6264 24.6493 11.6264H35.0478L36.2853 16.9297L30.4284 16.929Z" fill="#565656"/>
</svg>
