<svg width="29" height="29" viewBox="0 0 29 29" fill="none" xmlns="http://www.w3.org/2000/svg">
<path d="M25.9649 0.260559H3.03553C2.3213 0.260559 1.74023 0.841621 1.74023 1.55585V24.4853C1.74023 25.1995 2.3213 25.7806 3.03553 25.7806H6.56313C9.35705 25.7806 12.0676 25.2333 14.6195 24.1539C17.0841 23.1114 19.2976 21.6191 21.1982 19.7185C23.0988 17.8178 24.5911 15.6044 25.6336 13.1398C26.713 10.5879 27.2602 7.87737 27.2602 5.08345V1.55585C27.2602 0.841621 26.6792 0.260559 25.9649 0.260559ZM26.4335 5.08345C26.4335 10.391 24.3666 15.3809 20.6136 19.1339C16.8605 22.8869 11.8707 24.9538 6.56313 24.9538H3.03553C2.77718 24.9538 2.56702 24.7436 2.56702 24.4853V1.55585C2.56702 1.29751 2.77718 1.08734 3.03553 1.08734H25.9649C26.2233 1.08734 26.4335 1.29751 26.4335 1.55585V5.08345Z" fill="#565656"/>
<path d="M22.4372 2.4653H6.56297C5.1193 2.4653 3.94482 3.63977 3.94482 5.08344V20.9577C3.94482 22.4013 5.11935 23.5758 6.56297 23.5758C9.91149 23.5758 13.194 22.6692 16.0555 20.954C16.1647 20.8885 16.2377 20.7764 16.2533 20.65C16.2689 20.5237 16.2253 20.3972 16.1353 20.3071C15.8463 20.0182 15.6871 19.6339 15.6871 19.2252C15.6871 18.8165 15.8463 18.4323 16.1353 18.1433L17.5867 16.6918L18.6173 17.7224C18.698 17.8031 18.8038 17.8435 18.9096 17.8435C19.0153 17.8435 19.1212 17.8032 19.2019 17.7224C19.3633 17.561 19.3633 17.2992 19.2019 17.1378L18.1713 16.1072L19.6228 14.6558C20.2194 14.0592 21.1901 14.0592 21.7867 14.6558C21.8767 14.7458 22.0033 14.7892 22.1296 14.7738C22.2559 14.7582 22.3681 14.6852 22.4335 14.576C24.1487 11.7144 25.0553 8.43191 25.0553 5.08344C25.0553 3.63977 23.8808 2.4653 22.4372 2.4653ZM21.9613 13.7434C21.0509 13.1696 19.8304 13.2789 19.0382 14.0711L17.5867 15.5226L16.3357 14.2715C16.1742 14.1101 15.9125 14.1101 15.7511 14.2715C15.5897 14.433 15.5897 14.6947 15.7511 14.8561L17.0021 16.1071L15.5507 17.5586C14.7584 18.3509 14.6492 19.5714 15.223 20.4817C12.5877 21.9663 9.60381 22.749 6.56297 22.749C5.57524 22.749 4.77161 21.9454 4.77161 20.9577V5.08344C4.77161 4.09566 5.57518 3.29208 6.56297 3.29208H22.4372C23.4249 3.29208 24.2285 4.09572 24.2285 5.08344C24.2285 8.12429 23.4458 11.1082 21.9613 13.7434Z" fill="#565656"/>
<path d="M20.2327 15.6938C20.1236 15.6938 20.0172 15.7379 19.9406 15.8151C19.8634 15.8917 19.8193 15.9986 19.8193 16.1072C19.8193 16.2163 19.8634 16.3227 19.9406 16.3993C20.0172 16.4765 20.1241 16.5206 20.2327 16.5206C20.3413 16.5206 20.4482 16.4765 20.5249 16.3993C20.602 16.3227 20.6461 16.2158 20.6461 16.1072C20.6461 15.9986 20.602 15.8917 20.5249 15.8151C20.4482 15.7379 20.3419 15.6938 20.2327 15.6938Z" fill="#565656"/>
<path d="M17.5867 18.3395C17.4781 18.3395 17.3712 18.3836 17.2946 18.4608C17.2174 18.5374 17.1733 18.6443 17.1733 18.7529C17.1733 18.862 17.2174 18.9684 17.2946 19.045C17.3712 19.1222 17.4781 19.1663 17.5867 19.1663C17.6953 19.1663 17.8022 19.1222 17.8789 19.045C17.956 18.9684 18.0001 18.8615 18.0001 18.7529C18.0001 18.6443 17.956 18.5374 17.8789 18.4608C17.8022 18.3836 17.6953 18.3395 17.5867 18.3395Z" fill="#565656"/>
<path d="M14.5003 4.22913C14.3917 4.22913 14.2848 4.27322 14.2082 4.35039C14.131 4.427 14.0869 4.53393 14.0869 4.64252C14.0869 4.7511 14.131 4.85803 14.2082 4.93465C14.2848 5.01181 14.3917 5.05591 14.5003 5.05591C14.6089 5.05591 14.7158 5.01181 14.7924 4.93465C14.8696 4.85803 14.9137 4.7511 14.9137 4.64252C14.9137 4.53393 14.8696 4.427 14.7924 4.35039C14.7158 4.27322 14.6089 4.22913 14.5003 4.22913Z" fill="#565656"/>
<path d="M6.12238 12.6072C6.01379 12.6072 5.90686 12.6513 5.83025 12.7284C5.75308 12.8051 5.70898 12.9114 5.70898 13.0206C5.70898 13.1292 5.75308 13.2361 5.83025 13.3127C5.90686 13.3899 6.01379 13.434 6.12238 13.434C6.23096 13.434 6.33789 13.3899 6.41451 13.3127C6.49167 13.2361 6.53577 13.1292 6.53577 13.0206C6.53577 12.9114 6.49167 12.8051 6.41451 12.7284C6.33789 12.6513 6.23096 12.6072 6.12238 12.6072Z" fill="#565656"/>
<path d="M6.12238 10.8434C6.01379 10.8434 5.90686 10.8874 5.83025 10.9646C5.75308 11.0412 5.70898 11.1482 5.70898 11.2567C5.70898 11.3653 5.75308 11.4723 5.83025 11.5489C5.90686 11.626 6.01379 11.6701 6.12238 11.6701C6.23096 11.6701 6.33789 11.626 6.41451 11.5489C6.49167 11.4723 6.53577 11.3653 6.53577 11.2567C6.53577 11.1476 6.49167 11.0412 6.41451 10.9646C6.33789 10.8874 6.23096 10.8434 6.12238 10.8434Z" fill="#565656"/>
<path d="M6.12238 14.371C6.01324 14.371 5.90686 14.4151 5.83025 14.4922C5.75308 14.5688 5.70898 14.6758 5.70898 14.7844C5.70898 14.8935 5.75308 14.9999 5.83025 15.0765C5.90686 15.1537 6.01324 15.1978 6.12238 15.1978C6.23096 15.1978 6.33789 15.1537 6.41451 15.0765C6.49167 14.9999 6.53577 14.8935 6.53577 14.7844C6.53577 14.6752 6.49167 14.5688 6.41451 14.4922C6.33789 14.4151 6.23096 14.371 6.12238 14.371Z" fill="#565656"/>
<path d="M12.7366 4.22913C12.628 4.22913 12.5211 4.27322 12.4445 4.35039C12.3673 4.427 12.3232 4.53393 12.3232 4.64252C12.3232 4.7511 12.3673 4.85803 12.4445 4.93465C12.5211 5.01181 12.628 5.05591 12.7366 5.05591C12.8452 5.05591 12.9521 5.01181 13.0288 4.93465C13.1059 4.85803 13.15 4.7511 13.15 4.64252C13.15 4.53393 13.1059 4.427 13.0288 4.35039C12.9521 4.27322 12.8452 4.22913 12.7366 4.22913Z" fill="#565656"/>
<path d="M16.264 4.22913C16.1554 4.22913 16.0485 4.27322 15.9718 4.35039C15.8947 4.427 15.8506 4.53338 15.8506 4.64252C15.8506 4.7511 15.8947 4.85803 15.9718 4.93465C16.0485 5.01181 16.1554 5.05591 16.264 5.05591C16.3726 5.05591 16.4795 5.01181 16.5561 4.93465C16.6333 4.85803 16.6774 4.7511 16.6774 4.64252C16.6774 4.53393 16.6333 4.427 16.5561 4.35039C16.4795 4.27322 16.3726 4.22913 16.264 4.22913Z" fill="#565656"/>
</svg>
