<svg width="35" height="25" viewBox="0 0 35 25" fill="none" xmlns="http://www.w3.org/2000/svg">
<path d="M33.6238 0.238434H0.757096C0.444155 0.238434 0.19043 0.50602 0.19043 0.836058V21.1553C0.19043 21.4853 0.444155 21.7529 0.757096 21.7529H2.51376C2.82515 23.3702 4.32072 24.415 5.85426 24.0866C6.96925 23.8479 7.84071 22.9288 8.0671 21.7529H26.3138C26.6251 23.3702 28.1207 24.415 29.6543 24.0866C30.7692 23.8479 31.6407 22.9288 31.8671 21.7529H33.6238C33.9367 21.7529 34.1904 21.4853 34.1904 21.1553V0.836058C34.1904 0.50602 33.9367 0.238434 33.6238 0.238434ZM5.29043 22.9482C4.5702 22.9473 3.92838 22.4687 3.68733 21.7529H6.89353C6.65248 22.4687 6.01066 22.9473 5.29043 22.9482ZM29.0904 22.9482C28.3702 22.9473 27.7284 22.4687 27.4873 21.7529H30.6935C30.4525 22.4687 29.8107 22.9473 29.0904 22.9482ZM33.0571 20.5577H1.32376V1.43368H33.0571V20.5577Z" fill="#565656"/>
<path d="M29.1022 13.3861C28.5432 13.3849 27.9964 13.5581 27.5305 13.884L27.2245 13.5612C26.9994 13.3319 26.6407 13.3385 26.4232 13.5759C26.2111 13.8075 26.2111 14.1747 26.4232 14.4063L26.7292 14.729C25.8651 16.1017 26.2198 17.9533 27.5214 18.8646C27.9864 19.1901 28.5323 19.3634 29.0905 19.3624C30.6553 19.3658 31.9265 18.0307 31.9297 16.3805C31.9329 14.7301 30.6671 13.3896 29.1022 13.3861ZM29.0905 18.1671C28.1516 18.1671 27.3905 17.3645 27.3905 16.3743C27.3915 16.108 27.4496 15.8455 27.5605 15.6063L28.6893 16.7968C28.9144 17.0261 29.2731 17.0196 29.4906 16.7821C29.7027 16.5506 29.7027 16.1833 29.4906 15.9517L28.3623 14.7607C28.5892 14.6437 28.8381 14.5824 29.0905 14.5814C30.0294 14.5814 30.7905 15.3841 30.7905 16.3743C30.7905 17.3645 30.0294 18.1671 29.0905 18.1671Z" fill="#565656"/>
<path d="M19.18 3.82419H6.13414C4.10476 3.82777 2.46043 5.56193 2.45703 7.70217V14.2892C2.46043 16.4294 4.10476 18.1636 6.13414 18.1672H19.18C21.2093 18.1636 22.8537 16.4294 22.8571 14.2892V7.70217C22.8537 5.56193 21.2093 3.82785 19.18 3.82419ZM21.7237 14.2892C21.7222 15.7701 20.5842 16.9703 19.18 16.9719H6.13414C4.72993 16.9703 3.59192 15.7701 3.59037 14.2892V7.70217C3.59192 6.22119 4.72986 5.02108 6.13414 5.01944H19.18C20.5842 5.02108 21.7222 6.22119 21.7237 7.70217V14.2892Z" fill="#565656"/>
<path d="M31.3569 2.62891H26.8235C26.5106 2.62891 26.2568 2.8965 26.2568 3.22654V5.61706C26.2568 5.9471 26.5106 6.21469 26.8235 6.21469H31.3569C31.6698 6.21469 31.9235 5.9471 31.9235 5.61706V3.22654C31.9235 2.8965 31.6698 2.62891 31.3569 2.62891ZM30.7902 5.01943H27.3902V3.82417H30.7902V5.01943Z" fill="#565656"/>
<path d="M30.7904 9.80045H27.3904C27.0775 9.80045 26.8237 10.0682 26.8237 10.3984C26.8237 10.7286 27.0775 10.9963 27.3904 10.9963H30.7904C31.1033 10.9963 31.3571 10.7286 31.3571 10.3984C31.3571 10.0682 31.1033 9.80045 30.7904 9.80045Z" fill="#565656"/>
<path d="M30.7904 7.40994H27.3904C27.0775 7.40994 26.8237 7.67767 26.8237 8.00789C26.8237 8.3381 27.0775 8.60583 27.3904 8.60583H30.7904C31.1033 8.60583 31.3571 8.3381 31.3571 8.00789C31.3571 7.67767 31.1033 7.40994 30.7904 7.40994Z" fill="#565656"/>
<path d="M24.5569 2.62891C24.244 2.62891 23.9902 2.89649 23.9902 3.22653V18.7648C23.9902 19.0948 24.244 19.3624 24.5569 19.3624C24.8699 19.3624 25.1236 19.0948 25.1236 18.7648V3.22653C25.1236 2.89649 24.8699 2.62891 24.5569 2.62891Z" fill="#565656"/>
<path d="M19.4572 12.1909H5.85719C5.54425 12.1909 5.29053 12.4585 5.29053 12.7886C5.29237 14.438 6.55986 15.7747 8.12386 15.7767H17.1905C18.7545 15.7747 20.022 14.438 20.0239 12.7886C20.0239 12.4585 19.7701 12.1909 19.4572 12.1909ZM17.1905 14.5814H8.12386C7.40363 14.5805 6.76181 14.102 6.52076 13.3862H18.7936C18.5526 14.102 17.9108 14.5805 17.1905 14.5814Z" fill="#565656"/>
<path d="M12.4912 7.23483C12.7086 6.99742 12.7023 6.61905 12.4772 6.38979C12.2576 6.16613 11.9095 6.16613 11.6899 6.38979L11.1232 6.98741C10.5905 7.55149 10.5905 8.46362 11.1232 9.0277C11.2147 9.12451 11.2147 9.28109 11.1232 9.3779L10.5565 9.97553C10.3353 10.209 10.3353 10.5873 10.5567 10.8207C10.6629 10.9327 10.807 10.9957 10.9572 10.9957C11.1075 10.9957 11.2516 10.9326 11.3578 10.8206L11.9245 10.2229C12.4572 9.65886 12.4572 8.74674 11.9245 8.18266C11.833 8.08584 11.833 7.92927 11.9245 7.83245L12.4912 7.23483Z" fill="#565656"/>
<path d="M15.3247 7.23483C15.542 6.99742 15.5358 6.61905 15.3107 6.38979C15.0911 6.16613 14.743 6.16613 14.5234 6.38979L13.9567 6.98741C13.424 7.55149 13.424 8.46362 13.9567 9.0277C14.0482 9.12451 14.0482 9.28109 13.9567 9.3779L13.39 9.97553C13.1688 10.209 13.1688 10.5873 13.3902 10.8207C13.4964 10.9327 13.6405 10.9957 13.7907 10.9957C13.941 10.9957 14.0851 10.9326 14.1913 10.8206L14.758 10.2229C15.2907 9.65886 15.2907 8.74674 14.758 8.18266C14.6665 8.08584 14.6665 7.92927 14.758 7.83245L15.3247 7.23483Z" fill="#565656"/>
</svg>
