<svg width="24" height="34" viewBox="0 0 24 34" fill="none" xmlns="http://www.w3.org/2000/svg">
<g filter="url(#filter0_d)">
<path d="M4 0.386475V2.26239V2.63757V24.4982H5.46484V25.9989H8.38008V24.4982H15.0008V25.9989H17.916V24.4982H19.3809V22.9975H18.6484V23.7478H4.73242V13.5679H7.65063V12.8175H4.73242V2.63757H13.5214V1.8872H4.73242V1.13684H18.6484V1.8872H14.2539V2.63757H18.6484V12.8175H8.38301V13.5679H18.6484V22.2471H19.3809V2.63757V2.26239V0.386475H4ZM7.64766 25.2486H6.19727V24.4982H7.64766V25.2486ZM17.1836 25.2486H15.7332V24.4982H17.1836V25.2486Z" fill="#565656"/>
<path d="M10.2025 3.61121H5.83105V11.844H10.2025V3.61121ZM9.47012 4.36157V5.97351L7.65054 6.72382V8.2246L6.56348 8.67287V4.36157H9.47012ZM6.56348 11.0936V9.48166L8.38301 8.73135V7.23057L9.47017 6.7823V11.0936H6.56348Z" fill="#565656"/>
<path d="M14.6157 6.22681V9.22827C14.6157 9.84887 15.1086 10.3538 15.7143 10.3538C16.3201 10.3538 16.8129 9.84887 16.8129 9.22827V6.22681C16.8129 5.6062 16.3201 5.10126 15.7143 5.10126C15.1085 5.10126 14.6157 5.6062 14.6157 6.22681ZM16.0805 6.22681V9.22827C16.0805 9.43517 15.9163 9.60345 15.7143 9.60345C15.5124 9.60345 15.3481 9.43517 15.3481 9.22827V6.22681C15.3481 6.01991 15.5124 5.85162 15.7143 5.85162H15.7143C15.9163 5.85162 16.0805 6.01991 16.0805 6.22681Z" fill="#565656"/>
<path d="M16.8129 17.1571C16.8129 16.5365 16.3201 16.0316 15.7143 16.0316C15.1085 16.0316 14.6157 16.5365 14.6157 17.1571V20.1586C14.6157 20.7792 15.1086 21.2842 15.7143 21.2842C16.3201 21.2842 16.8129 20.7792 16.8129 20.1586V17.1571ZM16.0805 20.1586C16.0805 20.3655 15.9163 20.5338 15.7143 20.5338C15.5124 20.5338 15.3481 20.3655 15.3481 20.1586V17.1571C15.3481 16.9502 15.5124 16.782 15.7143 16.782H15.7143C15.9163 16.782 16.0805 16.9502 16.0805 17.1571V20.1586Z" fill="#565656"/>
<path d="M17.1836 3.38794H17.916V4.1387H17.1836V3.38794Z" fill="#565656"/>
<path d="M15.7188 3.38794H16.4512V4.1387H15.7188V3.38794Z" fill="#565656"/>
<path d="M12.4185 22.2471H15.3481V22.9979H12.4185V22.2471Z" fill="#565656"/>
<path d="M16.0806 22.2471H16.813V22.9979H16.0806V22.2471Z" fill="#565656"/>
</g>
<defs>
<filter id="filter0_d" x="0" y="0.386475" width="23.3809" height="33.6125" filterUnits="userSpaceOnUse" color-interpolation-filters="sRGB">
<feFlood flood-opacity="0" result="BackgroundImageFix"/>
<feColorMatrix in="SourceAlpha" type="matrix" values="0 0 0 0 0 0 0 0 0 0 0 0 0 0 0 0 0 0 127 0"/>
<feOffset dy="4"/>
<feGaussianBlur stdDeviation="2"/>
<feColorMatrix type="matrix" values="0 0 0 0 0 0 0 0 0 0 0 0 0 0 0 0 0 0 0.25 0"/>
<feBlend mode="normal" in2="BackgroundImageFix" result="effect1_dropShadow"/>
<feBlend mode="normal" in="SourceGraphic" in2="effect1_dropShadow" result="shape"/>
</filter>
</defs>
</svg>
