<svg width="23" height="30" viewBox="0 0 23 30" fill="none" xmlns="http://www.w3.org/2000/svg">
<path d="M20.757 0.386475C19.9838 0.386475 19.357 1.02862 19.357 1.82077V2.29887H9.09031C7.80231 2.30042 6.75849 3.36981 6.75697 4.68937V7.07986H5.82364C5.05043 7.07986 4.42364 7.72201 4.42364 8.51416V10.1612C2.39089 11.4448 1.15417 13.7174 1.15697 16.1637V16.7298C0.599591 16.9317 0.226083 17.4705 0.223633 18.0761V19.0323C0.223633 19.2964 0.432583 19.5104 0.6903 19.5104H15.6236C15.8814 19.5104 16.0903 19.2964 16.0903 19.0323V18.0761C16.0879 17.4705 15.7144 16.9317 15.157 16.7298V16.1637C15.1597 14.26 14.4206 12.4338 13.1036 11.0906C12.7377 10.7291 12.3302 10.4142 11.8903 10.1531V8.51416C11.8903 7.72201 11.2635 7.07986 10.4903 7.07986H9.55697V5.64556C9.55697 5.38153 9.76592 5.16747 10.0236 5.16747H19.357V6.12366C19.357 6.91581 19.9838 7.55796 20.757 7.55796H22.157V0.386475H20.757ZM15.157 18.0761V18.5542H1.15697V18.0761C1.15697 17.8121 1.36592 17.598 1.62363 17.598H14.6903C14.948 17.598 15.157 17.8121 15.157 18.0761ZM12.4461 11.7681C13.5865 12.9322 14.2263 14.5144 14.2236 16.1637V16.6418H2.0903V16.1637C2.08878 14.0035 3.20214 12.0033 5.0177 10.9047H11.2995C11.7169 11.1398 12.1025 11.4301 12.4461 11.7681ZM10.4903 8.03606C10.748 8.03606 10.957 8.25013 10.957 8.51416V9.94846H5.35697V8.51416C5.35697 8.25013 5.56592 8.03606 5.82364 8.03606H10.4903ZM19.357 4.21127H10.0236C9.25043 4.21127 8.62364 4.85341 8.62364 5.64556V7.07986H7.69031V4.68937C7.69031 3.89722 8.3171 3.25507 9.09031 3.25507H19.357V4.21127ZM21.2236 6.60176H20.757C20.4993 6.60176 20.2903 6.38769 20.2903 6.12366V1.82077C20.2903 1.55674 20.4993 1.34267 20.757 1.34267H21.2236V6.60176Z" fill="#565656"/>
<path d="M8.1571 20.4667C7.89938 20.4667 7.69043 20.6807 7.69043 20.9448V22.8571C7.69043 23.1212 7.89938 23.3352 8.1571 23.3352C8.41483 23.3352 8.62378 23.1212 8.62378 22.8571V20.9448C8.62378 20.6807 8.41483 20.4667 8.1571 20.4667Z" fill="#565656"/>
<path d="M8.1571 24.2915C7.89938 24.2915 7.69043 24.5055 7.69043 24.7696V26.6819C7.69043 26.946 7.89938 27.16 8.1571 27.16C8.41483 27.16 8.62378 26.946 8.62378 26.6819V24.7696C8.62378 24.5055 8.41483 24.2915 8.1571 24.2915Z" fill="#565656"/>
<path d="M13.7572 22.3791C13.4995 22.3791 13.2905 22.5931 13.2905 22.8572V24.7696C13.2905 25.0336 13.4995 25.2477 13.7572 25.2477C14.0149 25.2477 14.2239 25.0336 14.2239 24.7696V22.8572C14.2239 22.5931 14.0149 22.3791 13.7572 22.3791Z" fill="#565656"/>
<path d="M10.0238 22.3791C9.76608 22.3791 9.55713 22.5931 9.55713 22.8572V24.7696C9.55713 25.0336 9.76608 25.2477 10.0238 25.2477C10.2815 25.2477 10.4905 25.0336 10.4905 24.7696V22.8572C10.4905 22.5931 10.2815 22.3791 10.0238 22.3791Z" fill="#565656"/>
<path d="M6.29041 22.3791C6.03268 22.3791 5.82373 22.5931 5.82373 22.8572V24.7696C5.82373 25.0336 6.03268 25.2477 6.29041 25.2477C6.54813 25.2477 6.75708 25.0336 6.75708 24.7696V22.8572C6.75708 22.5931 6.54813 22.3791 6.29041 22.3791Z" fill="#565656"/>
<path d="M2.55701 22.3791C2.29929 22.3791 2.09033 22.5931 2.09033 22.8572V24.7696C2.09033 25.0336 2.29929 25.2477 2.55701 25.2477C2.81473 25.2477 3.02368 25.0336 3.02368 24.7696V22.8572C3.02368 22.5931 2.81473 22.3791 2.55701 22.3791Z" fill="#565656"/>
<path d="M4.42371 20.4667C4.16598 20.4667 3.95703 20.6807 3.95703 20.9448V22.8571C3.95703 23.1212 4.16598 23.3352 4.42371 23.3352C4.68143 23.3352 4.89038 23.1212 4.89038 22.8571V20.9448C4.89038 20.6807 4.68143 20.4667 4.42371 20.4667Z" fill="#565656"/>
<path d="M11.8905 20.4667C11.6328 20.4667 11.4238 20.6807 11.4238 20.9448V22.8571C11.4238 23.1212 11.6328 23.3352 11.8905 23.3352C12.1482 23.3352 12.3572 23.1212 12.3572 22.8571V20.9448C12.3572 20.6807 12.1482 20.4667 11.8905 20.4667Z" fill="#565656"/>
<path d="M11.8905 24.2915C11.6328 24.2915 11.4238 24.5055 11.4238 24.7696V26.6819C11.4238 26.946 11.6328 27.16 11.8905 27.16C12.1482 27.16 12.3572 26.946 12.3572 26.6819V24.7696C12.3572 24.5055 12.1482 24.2915 11.8905 24.2915Z" fill="#565656"/>
<path d="M4.42371 24.2915C4.16598 24.2915 3.95703 24.5055 3.95703 24.7696V26.6819C3.95703 26.946 4.16598 27.16 4.42371 27.16C4.68143 27.16 4.89038 26.946 4.89038 26.6819V24.7696C4.89038 24.5055 4.68143 24.2915 4.42371 24.2915Z" fill="#565656"/>
<path d="M6.29041 26.2039C6.03268 26.2039 5.82373 26.4179 5.82373 26.682V28.5944C5.82373 28.8584 6.03268 29.0724 6.29041 29.0724C6.54813 29.0724 6.75708 28.8584 6.75708 28.5944V26.682C6.75708 26.4179 6.54813 26.2039 6.29041 26.2039Z" fill="#565656"/>
<path d="M10.0238 26.2039C9.76608 26.2039 9.55713 26.4179 9.55713 26.682V28.5944C9.55713 28.8584 9.76608 29.0724 10.0238 29.0724C10.2815 29.0724 10.4905 28.8584 10.4905 28.5944V26.682C10.4905 26.4179 10.2815 26.2039 10.0238 26.2039Z" fill="#565656"/>
</svg>
