<svg width="45" height="26" viewBox="0 0 45 26" fill="none" xmlns="http://www.w3.org/2000/svg">
<path d="M42.0098 7.02696H41.1356V3.6985C41.1356 1.73083 39.5731 0.130035 37.6525 0.130035H25.029C23.8588 0.130035 22.8223 0.724941 22.1904 1.63434C21.5585 0.724853 20.522 0.130035 19.3518 0.130035H11.4213C11.0654 0.130035 10.7768 0.425683 10.7768 0.790357C10.7768 1.15503 11.0654 1.45068 11.4213 1.45068H19.3518C20.5617 1.45068 21.5459 2.45903 21.5459 3.6985V10.3026C21.5324 10.2893 21.5181 10.2769 21.5045 10.2638C20.7405 9.53398 19.705 9.11331 18.6599 9.11331H7.92386C7.86705 8.22672 7.27709 7.44692 6.46301 7.15128C6.23364 7.06799 5.99113 7.02696 5.74784 7.02696H4.53431V3.6985C4.53431 2.45903 5.51856 1.45068 6.72838 1.45068H8.84322C9.19917 1.45068 9.48775 1.15503 9.48775 0.790357C9.48775 0.425683 9.19917 0.130035 8.84322 0.130035H6.72838C4.80777 0.130035 3.24525 1.73083 3.24525 3.6985V7.02696H2.37109C1.16866 7.02696 0.19043 8.02933 0.19043 9.26105V16.1558C0.19043 18.7212 2.22766 20.8083 4.73171 20.8083H5.05561C5.05561 20.8083 4.34989 22.753 4.34938 22.7545C3.90413 23.9813 4.82057 25.3289 6.09606 25.3289H7.13298C7.7134 25.3289 8.26898 25.0458 8.61918 24.5715L11.3976 20.8083H32.9834L35.7619 24.5716C36.112 25.0458 36.6676 25.3289 37.248 25.3289C37.248 25.3289 38.2842 25.3289 38.2848 25.3289C39.5618 25.3289 40.4766 23.981 40.0315 22.7545L39.3252 20.8083H39.6491C42.1532 20.8083 44.1904 18.7212 44.1904 16.1558V9.26105C44.1904 8.02933 43.2122 7.02696 42.0098 7.02696ZM22.835 3.69868C22.835 2.45912 23.8192 1.45077 25.029 1.45077H37.6525C38.8623 1.45077 39.8465 2.45912 39.8465 3.69859V7.02705C39.8465 7.02705 38.6334 7.02705 38.6329 7.02705C37.776 7.02705 36.9539 7.59052 36.6215 8.39893C36.5284 8.62529 36.4726 8.86846 36.457 9.11349C36.457 9.11349 25.7213 9.11349 25.721 9.11349C24.6597 9.11349 23.6019 9.55097 22.835 10.3028V3.69868ZM7.92859 10.434H18.6599C20.2513 10.4341 21.5459 11.7605 21.5459 13.3909V14.3298H7.92859V10.434ZM7.59111 23.7748C7.48317 23.9211 7.31181 24.0083 7.13289 24.0083C7.13289 24.0083 6.09958 24.0083 6.09597 24.0083C5.70134 24.0083 5.42007 23.5935 5.55757 23.2148L6.43087 20.8083H9.78123L7.59111 23.7748ZM38.2848 24.0082H37.248C37.069 24.0082 36.8978 23.921 36.7898 23.7748L34.5996 20.8083H37.95C37.95 20.8083 38.8203 23.2063 38.8233 23.2147C38.961 23.5943 38.6778 24.0082 38.2848 24.0082ZM39.6491 19.4877H4.73171C2.93845 19.4877 1.47949 17.993 1.47949 16.1558V9.26105C1.47949 8.75735 1.87945 8.3476 2.37109 8.3476H5.74784C6.23948 8.3476 6.63944 8.75735 6.63944 9.26105V14.9901C6.63944 15.3548 6.92802 15.6504 7.28397 15.6504H30.9578C31.3137 15.6504 31.6023 15.3548 31.6023 14.9901C31.6023 14.6254 31.3137 14.3298 30.9578 14.3298H22.835V13.3908C22.835 11.7604 24.1296 10.434 25.721 10.434H36.4523V14.3298H33.5359C33.1799 14.3298 32.8914 14.6255 32.8914 14.9902C32.8914 15.3548 33.1799 15.6505 33.5359 15.6505H37.0968C37.4528 15.6505 37.7413 15.3548 37.7413 14.9902V9.26113C37.7413 8.75744 38.1413 8.34769 38.6329 8.34769H42.0097C42.5013 8.34769 42.9013 8.75744 42.9013 9.26113V16.1558H42.9014C42.9014 17.993 41.4424 19.4877 39.6491 19.4877Z" fill="#565656"/>
</svg>
