<svg width="29" height="25" viewBox="0 0 29 25" fill="none" xmlns="http://www.w3.org/2000/svg">
<path d="M26.4404 0.752533H1.94043C0.975578 0.752533 0.19043 1.55692 0.19043 2.5454V19.2789C0.19043 20.2674 0.975578 21.0718 1.94043 21.0718H11.8571V22.359L5.34473 23.4706C5.02738 23.5244 4.81273 23.8328 4.86523 24.1579C4.91308 24.4508 5.16038 24.6575 5.44037 24.6575C5.47188 24.6575 5.50338 24.6551 5.53602 24.6492L12.4871 23.4622H15.8926L22.8436 24.6491C22.8762 24.6551 22.9089 24.6574 22.9404 24.6574C23.2216 24.6574 23.4689 24.4506 23.5144 24.1578C23.5681 23.8327 23.3523 23.5243 23.0349 23.4706L16.5238 22.359V21.0717H26.4404C27.4053 21.0717 28.1904 20.2673 28.1904 19.2788V2.5454C28.1904 1.55692 27.4053 0.752533 26.4404 0.752533ZM15.3571 22.267H13.0237V21.0718H15.3571V22.267ZM27.0238 19.2788C27.0238 19.6087 26.7624 19.8765 26.4404 19.8765H1.94043C1.61843 19.8765 1.35708 19.6087 1.35708 19.2788V2.5454C1.35708 2.21552 1.61843 1.94776 1.94043 1.94776H26.4404C26.7624 1.94776 27.0238 2.21552 27.0238 2.5454V19.2788Z" fill="#565656"/>
</svg>
