<svg width="21" height="27" viewBox="0 0 21 27" fill="none" xmlns="http://www.w3.org/2000/svg">
<path d="M19.5498 25.2111C19.5498 25.2397 19.5387 25.2672 19.5189 25.2875C19.4991 25.3077 19.4723 25.3191 19.4443 25.3191H1.93652C1.90855 25.3191 1.88172 25.3077 1.86195 25.2875C1.84217 25.2672 1.83105 25.2397 1.83105 25.2111V9.75952H0.987305V25.2111C0.987598 25.4689 1.0877 25.7161 1.26565 25.8984C1.4436 26.0807 1.68486 26.1832 1.93652 26.1835H19.4443C19.696 26.1832 19.9373 26.0807 20.1152 25.8984C20.2932 25.7161 20.3933 25.4689 20.3936 25.2111V20.5648H19.5498V25.2111Z" fill="#565656"/>
<path d="M19.4443 0.250885H15.3311V1.11531H19.4443C19.4723 1.11531 19.4991 1.12669 19.5189 1.14695C19.5387 1.16722 19.5498 1.1947 19.5498 1.22336V5.43742H1.83105V1.22336C1.83105 1.1947 1.84217 1.16722 1.86195 1.14695C1.88172 1.12669 1.90855 1.11531 1.93652 1.11531H14.4696V0.250885H1.93652C1.68486 0.251185 1.4436 0.353739 1.26565 0.536048C1.0877 0.718357 0.987598 0.965536 0.987305 1.22336V8.8951H1.83105V6.30184H19.5498V19.7004H20.3936V1.22336C20.3933 0.965536 20.2932 0.718357 20.1152 0.536048C19.9373 0.353739 19.696 0.251185 19.4443 0.250885Z" fill="#565656"/>
<path d="M10.6904 7.16626C6.50332 7.16626 3.09668 10.6564 3.09668 14.946C3.09668 19.2357 6.50332 22.7258 10.6904 22.7258C14.8775 22.7258 18.2842 19.2357 18.2842 14.946C18.2842 10.6564 14.8775 7.16626 10.6904 7.16626ZM10.6904 21.8614C9.35541 21.8614 8.05036 21.4558 6.94033 20.696C5.8303 19.9361 4.96513 18.8561 4.45424 17.5924C3.94335 16.3288 3.80968 14.9384 4.07013 13.5969C4.33058 12.2555 4.97345 11.0233 5.91746 10.0561C6.86146 9.08901 8.0642 8.43039 9.37357 8.16356C10.6829 7.89673 12.0401 8.03367 13.2735 8.55708C14.5069 9.08049 15.5611 9.96685 16.3028 11.1041C17.0445 12.2413 17.4404 13.5783 17.4404 14.946C17.4384 16.7795 16.7266 18.5372 15.4611 19.8336C14.1957 21.1301 12.48 21.8593 10.6904 21.8614Z" fill="#565656"/>
<path d="M9.00293 1.54825C8.89104 1.54825 8.78374 1.59378 8.70462 1.67484C8.6255 1.75589 8.58105 1.86583 8.58105 1.98046V4.57371C8.58105 4.68834 8.6255 4.79827 8.70462 4.87933C8.78374 4.96038 8.89104 5.00592 9.00293 5.00592H12.3779C12.4898 5.00592 12.5971 4.96038 12.6762 4.87933C12.7554 4.79827 12.7998 4.68834 12.7998 4.57371V1.98046C12.7998 1.86583 12.7554 1.75589 12.6762 1.67484C12.5971 1.59378 12.4898 1.54825 12.3779 1.54825H9.00293ZM11.9561 4.1415H9.4248V2.41267H11.9561V4.1415Z" fill="#565656"/>
<path d="M13.6436 1.98068H14.4873V2.84558H13.6436V1.98068Z" fill="#565656"/>
<path d="M14.0654 3.70859H14.9092V4.57346H14.0654V3.70859Z" fill="#565656"/>
<path d="M8.58105 17.5393H9.4248V18.4042H8.58105V17.5393Z" fill="#565656"/>
<path d="M11.1123 16.2427H11.9561V17.1076H11.1123V16.2427Z" fill="#565656"/>
<path d="M13.6436 16.6749H14.4873V17.5398H13.6436V16.6749Z" fill="#565656"/>
<path d="M14.3254 10.1797L13.8053 10.8605C14.6126 11.5041 15.2103 12.3836 15.5191 13.3827C13.4491 13.6529 12.0756 14.2154 10.7445 14.761C9.90599 15.1047 9.10706 15.432 8.1406 15.6947C8.15292 15.5897 8.1591 15.484 8.15911 15.3783V14.5138C8.16173 13.9781 8.00138 13.4547 7.70034 13.0166C7.3993 12.5785 6.97252 12.2473 6.47932 12.0692C7.17107 11.0053 8.22215 10.2409 9.4306 9.9228C10.6391 9.60468 11.9196 9.7553 13.0263 10.3457L13.4169 9.57951C12.7283 9.21199 11.9756 8.98725 11.2021 8.91817C10.4285 8.84909 9.64926 8.93703 8.90893 9.17695C8.1686 9.41687 7.48174 9.80406 6.88769 10.3163C6.29363 10.8286 5.80406 11.4559 5.44699 12.1623C5.41505 12.2253 5.39872 12.2953 5.39944 12.3662C5.40016 12.4372 5.41791 12.5068 5.45113 12.5691C5.48435 12.6313 5.53201 12.6842 5.58991 12.7232C5.64781 12.7621 5.71416 12.7858 5.78312 12.7922C6.20285 12.8297 6.59345 13.0276 6.87733 13.3465C7.1612 13.6655 7.31757 14.0822 7.31537 14.5138V15.3783C7.31757 15.8099 7.1612 16.2266 6.87733 16.5456C6.59345 16.8645 6.20285 17.0624 5.78312 17.0999C5.71416 17.1063 5.64781 17.13 5.58991 17.1689C5.53201 17.2079 5.48435 17.2608 5.45113 17.323C5.41791 17.3853 5.40016 17.4549 5.39944 17.5259C5.39872 17.5968 5.41505 17.6668 5.44699 17.7298C5.8527 18.5327 6.42893 19.2323 7.13329 19.7771C7.83765 20.3218 8.65224 20.698 9.51715 20.8777C10.3821 21.0575 11.2753 21.0364 12.1312 20.8159C12.9871 20.5955 13.7839 20.1813 14.463 19.6038C15.1421 19.0263 15.6862 18.3003 16.0553 17.479C16.4245 16.6577 16.6092 15.7621 16.596 14.858C16.5828 13.954 16.372 13.0644 15.9791 12.2548C15.5861 11.4452 15.0211 10.7362 14.3254 10.1797ZM10.6904 20.1326C9.85689 20.1336 9.03614 19.9233 8.30135 19.5203C7.56656 19.1173 6.94059 18.5341 6.47932 17.8229C7.05212 17.6165 7.5325 17.2044 7.83148 16.663C9.09478 16.368 10.0928 15.959 11.058 15.5635C12.415 15.0074 13.7012 14.4803 15.7051 14.2299C15.7369 14.4672 15.7529 14.7065 15.7528 14.9461C15.7513 16.3211 15.2175 17.6394 14.2684 18.6118C13.3193 19.5841 12.0325 20.131 10.6904 20.1326Z" fill="#565656"/>
<path d="M18.7061 3.27708C18.7061 2.93515 18.6071 2.6009 18.4217 2.3166C18.2362 2.03229 17.9727 1.8107 17.6643 1.67985C17.356 1.549 17.0167 1.51476 16.6893 1.58147C16.362 1.64818 16.0613 1.81283 15.8253 2.05461C15.5893 2.2964 15.4286 2.60444 15.3635 2.93981C15.2984 3.27517 15.3318 3.62278 15.4595 3.93868C15.5872 4.25459 15.8035 4.52459 16.081 4.71456C16.3585 4.90453 16.6848 5.00592 17.0186 5.00592C17.466 5.00541 17.8949 4.8231 18.2112 4.49899C18.5276 4.17488 18.7056 3.73544 18.7061 3.27708ZM16.1748 3.27708C16.1748 3.10612 16.2243 2.93899 16.317 2.79684C16.4097 2.65469 16.5415 2.54389 16.6957 2.47847C16.8498 2.41304 17.0195 2.39592 17.1832 2.42928C17.3468 2.46263 17.4972 2.54496 17.6152 2.66585C17.7332 2.78674 17.8135 2.94076 17.8461 3.10845C17.8786 3.27613 17.8619 3.44993 17.7981 3.60788C17.7342 3.76583 17.6261 3.90084 17.4873 3.99582C17.3486 4.09081 17.1854 4.1415 17.0186 4.1415C16.7949 4.14123 16.5804 4.05007 16.4222 3.88802C16.264 3.72597 16.1751 3.50626 16.1748 3.27708Z" fill="#565656"/>
<path d="M6.89355 1.98068H7.7373V2.84558H6.89355V1.98068Z" fill="#565656"/>
<path d="M6.47168 3.70859H7.31543V4.57346H6.47168V3.70859Z" fill="#565656"/>
<path d="M2.6748 3.27708C2.6748 3.61902 2.77377 3.95327 2.9592 4.23757C3.14462 4.52188 3.40818 4.74347 3.71653 4.87432C4.02488 5.00517 4.36418 5.03941 4.69152 4.9727C5.01886 4.90599 5.31955 4.74134 5.55555 4.49956C5.79155 4.25777 5.95227 3.94972 6.01738 3.61436C6.08249 3.279 6.04907 2.93139 5.92135 2.61549C5.79363 2.29958 5.57734 2.02958 5.29983 1.83961C5.02232 1.64964 4.69606 1.54825 4.3623 1.54825C3.91491 1.54876 3.48598 1.73107 3.16962 2.05518C2.85326 2.37929 2.67531 2.81873 2.6748 3.27708ZM5.20605 3.27708C5.20605 3.44805 5.15657 3.61518 5.06386 3.75733C4.97114 3.89948 4.83937 4.01028 4.68519 4.0757C4.53102 4.14113 4.36137 4.15825 4.1977 4.12489C4.03403 4.09154 3.88368 4.00921 3.76568 3.88832C3.64768 3.76743 3.56732 3.6134 3.53477 3.44572C3.50221 3.27804 3.51892 3.10424 3.58278 2.94629C3.64664 2.78833 3.75479 2.65333 3.89354 2.55835C4.0323 2.46336 4.19543 2.41267 4.3623 2.41267C4.586 2.41294 4.80046 2.5041 4.95863 2.66615C5.11681 2.8282 5.20579 3.04791 5.20605 3.27708Z" fill="#565656"/>
<path d="M17.2295 20.997C16.854 20.997 16.487 21.1111 16.1748 21.3248C15.8626 21.5385 15.6193 21.8423 15.4756 22.1977C15.3319 22.553 15.2943 22.9441 15.3675 23.3214C15.4408 23.6987 15.6216 24.0452 15.8871 24.3172C16.1526 24.5892 16.4909 24.7745 16.8591 24.8495C17.2274 24.9246 17.6091 24.8861 17.956 24.7389C18.3029 24.5916 18.5994 24.3424 18.808 24.0225C19.0166 23.7027 19.1279 23.3266 19.1279 22.942C19.1274 22.4263 18.9272 21.9319 18.5713 21.5673C18.2154 21.2027 17.7328 20.9976 17.2295 20.997ZM17.2295 24.0225C17.0209 24.0225 16.817 23.9591 16.6435 23.8404C16.4701 23.7216 16.3349 23.5529 16.2551 23.3555C16.1753 23.158 16.1544 22.9408 16.1951 22.7312C16.2358 22.5216 16.3362 22.329 16.4837 22.1779C16.6312 22.0268 16.8191 21.9239 17.0237 21.8822C17.2283 21.8405 17.4404 21.8619 17.6331 21.9437C17.8258 22.0255 17.9905 22.164 18.1064 22.3416C18.2223 22.5193 18.2842 22.7282 18.2842 22.942C18.2839 23.2284 18.1726 23.5031 17.9749 23.7056C17.7772 23.9082 17.5091 24.0222 17.2295 24.0225Z" fill="#565656"/>
<path d="M17.8623 7.16626H18.7061V8.03116H17.8623V7.16626Z" fill="#565656"/>
<path d="M2.6748 7.16626H3.51855V8.03116H2.6748V7.16626Z" fill="#565656"/>
<path d="M2.6748 23.5903H3.51855V24.4551H2.6748V23.5903Z" fill="#565656"/>
</svg>
