<svg width="26" height="22" viewBox="0 0 26 22" fill="none" xmlns="http://www.w3.org/2000/svg">
<path d="M12.6416 21.7228C13.5315 21.7228 14.2529 20.9837 14.2529 20.072C14.2529 19.1603 13.5315 18.4212 12.6416 18.4212C11.7517 18.4212 11.0303 19.1603 11.0303 20.072C11.0303 20.9837 11.7517 21.7228 12.6416 21.7228Z" fill="#565656"/>
<path d="M24.9283 6.13345C21.7188 2.60559 17.3728 0.662648 12.6902 0.662598C8.00813 0.662648 3.66209 2.60559 0.452573 6.13345C0.0848976 6.53765 0.106626 7.17075 0.501157 7.54749C0.895736 7.92417 1.51366 7.90196 1.88138 7.49771C4.71731 4.3804 8.55598 2.66362 12.6906 2.66357C16.8249 2.66362 20.6635 4.3804 23.4995 7.49771C23.6918 7.70912 23.9526 7.81607 24.2141 7.81607C24.4525 7.81607 24.6915 7.72712 24.8797 7.54749C25.2742 7.1707 25.296 6.53765 24.9283 6.13345Z" fill="#565656"/>
<path d="M21.3425 10.2651C18.9701 7.81618 15.8974 6.46758 12.6904 6.46768C9.48266 6.46773 6.40991 7.81638 4.03823 10.2652C3.65835 10.6574 3.66074 11.2909 4.0436 11.68C4.42646 12.0692 5.04477 12.0668 5.42466 11.6745C7.42685 9.60725 10.0072 8.4687 12.6904 8.46865C15.3729 8.46855 17.9533 9.60715 19.9562 11.6746C20.1471 11.8717 20.3982 11.9703 20.6494 11.9703C20.898 11.9703 21.1468 11.8736 21.3374 11.6799C21.7201 11.2907 21.7225 10.6573 21.3425 10.2651Z" fill="#565656"/>
<path d="M17.4338 14.4089C16.1633 13.1193 14.3422 12.3183 12.681 12.3183C12.6808 12.3183 12.6804 12.3183 12.6802 12.3183H12.6099C12.6096 12.3183 12.6094 12.3183 12.6091 12.3183C10.9479 12.3183 9.12657 13.1194 7.85611 14.4089C7.47301 14.7978 7.47013 15.4312 7.84972 15.8238C8.04068 16.0212 8.29205 16.1201 8.54347 16.1201C8.79185 16.1201 9.04034 16.0236 9.23072 15.8304C10.1352 14.9123 11.4612 14.3192 12.6092 14.3192C12.6094 14.3192 12.6096 14.3192 12.6097 14.3192H12.6804C12.6806 14.3192 12.6806 14.3192 12.6808 14.3192C13.8287 14.3192 15.1548 14.9124 16.0592 15.8304C16.4423 16.2192 17.0607 16.2164 17.4402 15.8238C17.8199 15.4313 17.817 14.7978 17.4338 14.4089Z" fill="#565656"/>
</svg>
