<svg width="47" height="54" viewBox="0 0 47 54" fill="none" xmlns="http://www.w3.org/2000/svg">
<path d="M32.43 35.6801C38.1222 26.6625 37.4016 27.791 37.5687 27.5484C39.6367 24.5953 40.7333 21.1254 40.7333 17.5078C40.7333 7.91016 33.0149 0 23.5 0C14.0164 0 6.26667 7.88906 6.26667 17.5078C6.26667 21.1254 7.38422 24.6902 9.52533 27.675L14.57 35.6695C9.17022 36.5133 0 39.0129 0 44.5078C0 46.5117 1.29511 49.3699 7.46778 51.5953C11.7709 53.1457 17.4631 54 23.5 54C34.78 54 47 50.7832 47 44.5078C47 39.0129 37.8402 36.5133 32.43 35.6801ZM12.1364 25.9348C12.1156 25.9031 12.1051 25.882 12.0842 25.8504C10.3087 23.3824 9.4 20.4504 9.4 17.5078C9.4 9.59766 15.7084 3.16406 23.5 3.16406C31.2707 3.16406 37.6 9.59766 37.6 17.5078C37.6 20.4609 36.7122 23.2875 35.0307 25.7027C34.8844 25.9031 35.6678 24.6691 23.5 43.9383L12.1364 25.9348ZM23.5 50.8359C11.1756 50.8359 3.13333 47.1762 3.13333 44.5078C3.13333 42.7148 7.26933 39.7617 16.4187 38.6121L22.1736 47.7352C22.466 48.1887 22.9569 48.4629 23.4896 48.4629C24.0222 48.4629 24.5236 48.1887 24.8056 47.7352L30.5604 38.6121C39.7307 39.7617 43.8667 42.7148 43.8667 44.5078C43.8667 47.1551 35.8976 50.8359 23.5 50.8359Z" fill="#FFA801"/>
<path d="M23.5003 9.59766C19.1763 9.59766 15.667 13.1414 15.667 17.5078C15.667 21.8742 19.1763 25.418 23.5003 25.418C27.8243 25.418 31.3337 21.8742 31.3337 17.5078C31.3337 13.1414 27.8243 9.59766 23.5003 9.59766ZM23.5003 22.2539C20.9101 22.2539 18.8003 20.1234 18.8003 17.5078C18.8003 14.8922 20.9101 12.7617 23.5003 12.7617C26.0905 12.7617 28.2003 14.8922 28.2003 17.5078C28.2003 20.1234 26.0905 22.2539 23.5003 22.2539Z" fill="#FFA801"/>
</svg>
