<svg xmlns="http://www.w3.org/2000/svg" viewBox="0 0 48 48"><defs><style>.cls-1{fill:#ffa801;}</style></defs><title>2Ресурс 1</title><g id="Слой_2" data-name="Слой 2"><g id="Слой_1-2" data-name="Слой 1"><path class="cls-1" d="M28.89,9.74l-2.5-.37L25.26,7.11a1.41,1.41,0,0,0-2.52,0L21.61,9.37l-2.5.37a1.41,1.41,0,0,0-.78,2.4l1.8,1.77-.41,2.5a1.4,1.4,0,0,0,2,1.48L24,16.72l2.25,1.17a1.4,1.4,0,0,0,2-1.48l-.41-2.5,1.8-1.77a1.41,1.41,0,0,0-.78-2.4Zm-3.52,2.68A1.71,1.71,0,0,0,25,14.09l-.39-.2a1.42,1.42,0,0,0-1.3,0l-.39.2A2.23,2.23,0,0,0,23,13a2.18,2.18,0,0,0-.67-.88l.45-.07A1.7,1.7,0,0,0,24,10.88l.2.4a1.72,1.72,0,0,0,1.49.83Z"/><path class="cls-1" d="M46.59,2.81H39.45c0-.46,0-.93,0-1.4A1.41,1.41,0,0,0,38.06,0H9.94A1.41,1.41,0,0,0,8.53,1.41c0,.47,0,.94,0,1.4H1.41A1.41,1.41,0,0,0,0,4.22V7.78a14.78,14.78,0,0,0,14.07,14.7,14,14,0,0,0,5.69,4.75,20.55,20.55,0,0,1-2.57,8.86,18.45,18.45,0,0,1-2.62,3.7h0a1.39,1.39,0,0,0-.41,1v4.41H12.75a1.41,1.41,0,1,0,0,2.81h22.5a1.41,1.41,0,1,0,0-2.81H33.84V40.78a1.4,1.4,0,0,0-.41-1h0a20.64,20.64,0,0,1-5.19-12.56,14,14,0,0,0,5.69-4.75A14.78,14.78,0,0,0,48,7.78V4.22A1.41,1.41,0,0,0,46.59,2.81Zm-43.78,5V5.62H8.69a37.23,37.23,0,0,0,3.5,13.78A12,12,0,0,1,2.81,7.78ZM17,45.19v-3H31v3Zm9.41-20.26a1.41,1.41,0,0,0-1,1.34,23.36,23.36,0,0,0,4.11,13.11h-11a23.36,23.36,0,0,0,4.11-13.11,1.41,1.41,0,0,0-1-1.34c-3.34-1.07-5.68-4.17-7.19-7.36A37.23,37.23,0,0,1,11.36,2.81H36.64a37.23,37.23,0,0,1-3.07,14.76C32.08,20.73,29.74,23.86,26.38,24.93ZM45.19,7.78A12,12,0,0,1,35.81,19.4a37.23,37.23,0,0,0,3.5-13.78h5.88Z"/></g></g></svg>