<svg width="262" height="119" viewBox="0 0 262 119" fill="none" xmlns="http://www.w3.org/2000/svg">
<path d="M54.072 85.48C51.94 89.088 49.357 92.737 46.323 96.427C43.371 100.035 40.009 103.561 36.237 107.005C32.465 110.367 28.324 113.114 23.814 115.246C19.304 117.378 14.917 118.444 10.653 118.444C3.847 118.444 0.444 113.36 0.444 103.192C0.444 90.318 4.175 76.829 11.637 62.725C19.181 48.621 28.775 37.1 40.419 28.162C41.157 27.588 42.141 26.932 43.371 26.194C44.683 25.374 47.061 24.308 50.505 22.996C54.031 21.602 57.229 20.905 60.099 20.905C62.313 20.905 64.24 21.233 65.88 21.889C66.044 21.971 66.249 22.012 66.495 22.012C67.069 22.012 67.52 21.725 67.848 21.151C69.57 19.757 72.317 19.06 76.089 19.06H77.073C78.221 19.06 78.795 19.634 78.795 20.782C78.795 22.586 77.442 25.456 74.736 29.392C72.112 33.328 69.652 36.649 67.356 39.355C65.06 42.061 63.01 44.398 61.206 46.366C58.172 49.564 56.04 51.163 54.81 51.163C54.236 51.163 53.949 50.753 53.949 49.933C53.949 47.063 56.286 41.446 60.96 33.082C61.042 32.918 61.452 32.262 62.19 31.114C62.928 29.966 63.461 29.023 63.789 28.285C64.117 27.465 64.281 26.727 64.281 26.071C64.281 24.677 63.174 23.98 60.96 23.98C59.156 23.98 57.147 24.554 54.933 25.702C52.801 26.85 51.12 27.998 49.89 29.146L47.922 30.868C39.23 38.904 31.358 49.523 24.306 62.725C17.336 75.845 13.851 87.776 13.851 98.518C13.851 106.308 16.311 110.203 21.231 110.203C21.887 110.203 22.625 110.121 23.445 109.957C24.347 109.793 25.823 109.26 27.873 108.358C30.005 107.374 32.055 106.062 34.023 104.422C36.073 102.7 38.41 100.117 41.034 96.673C43.74 93.147 46.282 89.047 48.66 84.373C49.316 83.061 50.177 81.216 51.243 78.838C52.309 76.378 53.129 74.574 53.703 73.426C54.359 72.278 54.892 71.704 55.302 71.704C55.876 71.704 56.327 72.237 56.655 73.303C56.983 74.287 57.147 75.148 57.147 75.886C57.147 78.92 56.122 82.118 54.072 85.48ZM67.4146 101.839C67.9066 101.429 68.5626 100.855 69.3826 100.117C70.2846 99.297 71.9656 97.657 74.4256 95.197C76.8856 92.655 79.2226 90.072 81.4366 87.448C83.7326 84.742 86.2336 81.421 88.9396 77.485C91.7276 73.549 94.1056 69.654 96.0736 65.8C96.1556 65.636 96.1966 65.472 96.1966 65.308L96.0736 64.939C95.4996 64.611 94.8436 64.447 94.1056 64.447C90.5796 64.447 86.1926 67.071 80.9446 72.319C75.7786 77.567 71.3506 83.225 67.6606 89.293C64.0526 95.279 62.2486 99.584 62.2486 102.208C62.2486 103.356 62.6996 103.93 63.6016 103.93C64.5856 103.93 65.8566 103.233 67.4146 101.839ZM94.5976 96.427C98.0416 92.983 102.593 88.022 108.251 81.544C108.497 81.298 108.702 81.175 108.866 81.175C109.03 81.175 109.112 81.339 109.112 81.667C109.112 83.225 108.497 84.742 107.267 86.218C101.199 92.942 95.8276 98.559 91.1536 103.069C81.4776 112.089 75.1226 116.599 72.0886 116.599C70.9406 116.599 70.3666 115.984 70.3666 114.754C70.3666 113.196 71.1456 110.736 72.7036 107.374C74.2616 104.012 75.8606 101.019 77.5006 98.395L79.8376 94.459C80.1656 94.049 80.3296 93.68 80.3296 93.352C80.3296 93.188 80.2476 93.106 80.0836 93.106C79.7556 93.106 79.3046 93.393 78.7306 93.967C76.1886 96.919 73.2776 99.953 69.9976 103.069C66.7176 106.185 64.0526 108.604 62.0026 110.326L59.0506 112.786C55.7706 115.328 53.3106 116.599 51.6706 116.599L51.1786 116.476C49.7846 116.394 49.0876 115.164 49.0876 112.786C49.0876 106.554 51.2606 99.461 55.6066 91.507C60.0346 83.471 65.7336 76.501 72.7036 70.597C79.6736 64.693 86.3976 61.741 92.8756 61.741C93.5316 61.741 94.1466 61.823 94.7206 61.987C95.2946 62.069 95.7046 62.151 95.9506 62.233C96.2786 62.315 96.5656 62.438 96.8116 62.602L97.1806 62.725C97.3446 62.725 97.5496 62.602 97.7956 62.356C112.966 34.968 124.61 16.067 132.728 5.65299C135.188 2.373 136.951 0.732998 138.017 0.732998C138.427 0.732998 138.632 1.061 138.632 1.71699C138.632 3.43899 137.32 6.965 134.696 12.295C122.068 35.419 113.212 51.45 108.128 60.388C99.0256 76.624 93.4906 86.382 91.5226 89.662C87.5046 96.55 85.4956 100.732 85.4956 102.208C85.4956 102.782 85.7416 103.069 86.2336 103.069C86.6436 103.069 87.0946 102.946 87.5866 102.7C88.1606 102.372 88.7756 101.921 89.4316 101.347C90.0876 100.773 90.6616 100.24 91.1536 99.748C91.7276 99.256 92.3836 98.641 93.1216 97.903C93.8596 97.165 94.3516 96.673 94.5976 96.427ZM132.37 107.251C125.564 113.483 120.89 116.599 118.348 116.599C117.2 116.599 116.626 115.943 116.626 114.631C116.626 112.991 117.323 110.49 118.717 107.128C120.193 103.766 121.669 100.814 123.145 98.272L125.359 94.459C125.687 93.885 125.851 93.516 125.851 93.352C125.851 93.188 125.769 93.106 125.605 93.106C125.277 93.106 124.662 93.557 123.76 94.459C121.3 97.165 118.471 100.076 115.273 103.192C112.157 106.226 109.615 108.604 107.647 110.326L104.818 112.786C101.62 115.246 99.1601 116.476 97.4381 116.476C95.6341 116.476 94.7321 115.082 94.7321 112.294C94.7321 110.9 95.1421 108.768 95.9621 105.898C96.7001 103.028 97.2741 101.101 97.6841 100.117C99.5701 95.525 101.907 91.056 104.695 86.71C107.565 82.364 110.927 78.223 114.781 74.287C118.635 70.269 123.104 67.03 128.188 64.57C133.354 62.11 138.684 60.88 144.178 60.88C148.77 60.88 151.066 61.577 151.066 62.971C151.066 63.791 150.041 64.201 147.991 64.201C140.447 64.201 133.354 67.44 126.712 73.918C120.152 80.314 114.822 87.694 110.722 96.058C109.574 98.354 109 100.281 109 101.839C109 102.741 109.287 103.192 109.861 103.192C110.845 103.192 112.116 102.495 113.674 101.101C114.658 100.199 115.97 99.01 117.61 97.534C119.332 96.058 122.079 93.229 125.851 89.047C129.623 84.865 132.616 80.97 134.83 77.362C135.158 76.706 135.65 75.927 136.306 75.025C137.044 74.123 138.397 72.934 140.365 71.458C142.333 69.9 144.301 69.121 146.269 69.121C147.335 69.121 147.868 69.408 147.868 69.982C147.868 70.146 147.745 70.433 147.499 70.843C147.171 71.499 146.228 73.139 144.67 75.763C143.194 78.387 141.8 80.888 140.488 83.266C139.176 85.562 137.782 88.104 136.306 90.892C134.83 93.598 133.641 95.935 132.739 97.903C131.919 99.871 131.509 101.183 131.509 101.839C131.509 102.331 131.714 102.577 132.124 102.577C133.354 102.577 136.347 100.199 141.103 95.443C144.711 91.671 148.934 87.038 153.772 81.544C154.018 81.298 154.223 81.175 154.387 81.175C154.551 81.175 154.633 81.339 154.633 81.667C154.633 83.225 154.018 84.742 152.788 86.218C144.752 95.156 137.946 102.167 132.37 107.251ZM175.927 73.303C176.911 71.253 177.403 69.449 177.403 67.891C177.403 66.579 176.993 65.923 176.173 65.923C175.681 65.923 175.107 66.087 174.451 66.415C173.877 66.661 173.426 66.948 173.098 67.276L172.483 67.768C169.941 69.982 166.743 74.041 162.889 79.945C159.117 85.767 157.231 89.498 157.231 91.138C157.231 91.466 157.313 91.63 157.477 91.63C157.969 91.63 159.035 91.22 160.675 90.4C162.397 89.58 164.816 87.653 167.932 84.619C171.13 81.585 173.795 77.813 175.927 73.303ZM170.392 101.47C174.738 97.452 180.97 90.81 189.088 81.544C189.334 81.298 189.539 81.175 189.703 81.175C189.867 81.175 189.949 81.339 189.949 81.667C189.949 83.225 189.334 84.742 188.104 86.218C182.036 92.942 176.665 98.559 171.991 103.069C168.547 106.513 164.447 109.834 159.691 113.032C154.935 116.148 150.999 117.706 147.883 117.706C144.111 117.706 142.225 115.082 142.225 109.834C142.225 101.142 145.423 92.04 151.819 82.528C158.297 73.016 165.759 66.579 174.205 63.217C177.731 61.741 180.929 61.003 183.799 61.003C186.997 61.003 188.596 62.274 188.596 64.816C188.596 69.572 185.234 75.025 178.51 81.175C171.786 87.325 164.242 91.999 155.878 95.197C155.55 95.279 155.263 95.566 155.017 96.058C153.787 99.42 153.172 102.413 153.172 105.037C153.172 107.989 154.279 109.465 156.493 109.465C160.019 109.465 164.652 106.8 170.392 101.47ZM246.788 96.427C250.232 92.983 254.783 88.022 260.441 81.544C260.687 81.298 260.892 81.175 261.056 81.175C261.22 81.175 261.302 81.339 261.302 81.667C261.302 83.225 260.687 84.742 259.457 86.218C253.389 92.942 248.018 98.559 243.344 103.069C233.668 112.089 227.313 116.599 224.279 116.599C222.967 116.599 222.311 115.82 222.311 114.262C222.311 112.704 223.131 110.121 224.771 106.513C226.493 102.905 228.174 99.625 229.814 96.673C231.536 93.721 233.668 90.113 236.21 85.849C238.834 81.585 240.228 79.289 240.392 78.961C241.868 76.583 242.606 75.066 242.606 74.41C242.606 74 242.401 73.795 241.991 73.795L240.269 74.41C236.497 77.116 231.987 81.339 226.739 87.079C221.491 92.737 217.186 97.698 213.824 101.962L208.781 108.481C205.009 113.893 201.319 116.599 197.711 116.599C196.645 116.599 196.112 116.271 196.112 115.615C196.112 114.877 196.891 112.95 198.449 109.834C200.007 106.636 201.565 103.643 203.123 100.855L205.46 96.673C206.034 95.525 207.428 93.065 209.642 89.293C211.938 85.439 213.824 82.159 215.3 79.453C216.858 76.665 217.637 74.943 217.637 74.287C217.637 73.877 217.473 73.672 217.145 73.672L215.423 74.41C211.569 77.116 207.018 81.339 201.77 87.079C196.522 92.737 192.258 97.698 188.978 101.962L183.935 108.481C180.081 113.811 176.391 116.476 172.865 116.476C171.799 116.476 171.266 116.189 171.266 115.615C171.266 114.877 172.045 112.95 173.603 109.834C175.161 106.636 176.719 103.643 178.277 100.855L180.614 96.673L192.545 75.517C194.513 71.827 196.891 68.547 199.679 65.677C202.467 62.725 205.378 61.249 208.412 61.249C209.068 61.249 209.396 61.536 209.396 62.11C209.396 62.602 208.904 63.668 207.92 65.308C207.018 66.866 205.665 69.08 203.861 71.95C202.139 74.738 200.663 77.321 199.433 79.699C198.695 81.093 197.793 82.692 196.727 84.496C195.743 86.218 194.923 87.694 194.267 88.924C193.611 90.072 193.16 90.892 192.914 91.384C192.668 91.876 192.545 92.245 192.545 92.491C192.545 92.655 192.627 92.737 192.791 92.737C193.037 92.737 193.447 92.45 194.021 91.876C195.579 90.072 197.588 87.817 200.048 85.111C202.59 82.405 206.854 78.346 212.84 72.934C218.826 67.44 223.746 63.75 227.6 61.864C228.42 61.454 229.24 61.249 230.06 61.249C231.208 61.249 231.782 61.823 231.782 62.971C231.782 65.103 229.363 70.638 224.525 79.576C224.115 80.314 223.254 81.749 221.942 83.881C220.712 86.013 219.646 87.858 218.744 89.416C217.924 90.974 217.514 91.958 217.514 92.368C217.514 92.614 217.596 92.737 217.76 92.737C218.006 92.737 218.416 92.45 218.99 91.876C220.548 90.072 222.557 87.817 225.017 85.111C227.559 82.405 231.782 78.346 237.686 72.934C243.672 67.44 248.592 63.75 252.446 61.864C253.43 61.454 254.291 61.249 255.029 61.249C256.259 61.249 256.874 61.823 256.874 62.971C256.874 63.299 256.71 64.037 256.382 65.185C256.054 66.251 255.111 68.506 253.553 71.95C251.995 75.312 249.945 79.043 247.403 83.143C241.171 92.737 238.055 98.764 238.055 101.224C238.055 101.962 238.301 102.331 238.793 102.331C240.187 102.331 242.852 100.363 246.788 96.427Z" fill="#E6E6E6"/>
</svg>
