<svg width="39" height="39" viewBox="0 0 39 39" fill="none" xmlns="http://www.w3.org/2000/svg">
<g clip-path="url(#clip0)">
<path d="M36.2589 7.67056H9.27297C8.95679 7.67056 8.70046 7.92682 8.70046 8.24307C8.70046 8.55933 8.95679 8.81558 9.27297 8.81558H36.2589C37.139 8.81558 37.8551 9.5316 37.8551 10.4117V22.6017C37.8551 23.4818 37.139 24.1978 36.2589 24.1978H34.888V20.4676C34.888 20.1513 34.6317 19.8951 34.3155 19.8951H4.6845C4.36832 19.8951 4.11199 20.1513 4.11199 20.4676V24.1978H2.74117C1.86104 24.1978 1.14502 23.4818 1.14502 22.6017V10.4117C1.14502 9.5316 1.86104 8.81558 2.74117 8.81558H6.98293C7.29911 8.81558 7.55544 8.55933 7.55544 8.24307C7.55544 7.92682 7.29911 7.67056 6.98293 7.67056H2.74117C1.22967 7.67056 0 8.90023 0 10.4117V22.6017C0 24.1132 1.22967 25.3428 2.74117 25.3428H8.70069C9.01686 25.3428 9.2732 25.0866 9.2732 24.7703C9.2732 24.4542 9.01686 24.1978 8.70069 24.1978H5.25701V23.1914H28.0094C28.3255 23.1914 28.5819 22.9352 28.5819 22.6189C28.5819 22.3027 28.3255 22.0464 28.0094 22.0464H5.25701V21.04H33.743V22.0464H30.2994C29.9832 22.0464 29.7269 22.3027 29.7269 22.6189C29.7269 22.9352 29.9832 23.1914 30.2994 23.1914H33.743V24.1978H10.9906C10.6745 24.1978 10.4181 24.4542 10.4181 24.7703C10.4181 25.0866 10.6745 25.3428 10.9906 25.3428H36.2589C37.7704 25.3428 39.0001 24.1132 39.0001 22.6017V10.4117C39 8.90031 37.7703 7.67056 36.2589 7.67056Z" fill="#565656"/>
<path d="M34.3155 12.3255C34.6317 12.3255 34.888 12.0693 34.888 11.753C34.888 11.4368 34.6317 11.1805 34.3155 11.1805H32.6223C32.3061 11.1805 32.0498 11.4368 32.0498 11.753C32.0498 12.0693 32.3061 12.3255 32.6223 12.3255H34.3155Z" fill="#565656"/>
<path d="M30.0102 12.3255C30.3264 12.3255 30.5827 12.0693 30.5827 11.753C30.5827 11.4368 30.3264 11.1805 30.0102 11.1805H19.1741C18.8579 11.1805 18.6016 11.4368 18.6016 11.753C18.6016 12.0693 18.8579 12.3255 19.1741 12.3255H30.0102Z" fill="#565656"/>
<path d="M10.7696 26.8746C10.4534 26.8746 10.1971 27.1309 10.1971 27.4471C10.1971 27.4642 10.1787 29.1614 8.59049 30.2902C8.33278 30.4733 8.27232 30.8308 8.45553 31.0885C8.56721 31.2457 8.74354 31.3294 8.9227 31.3294C9.03743 31.3294 9.1533 31.295 9.25391 31.2235C11.3185 29.756 11.3422 27.5407 11.3422 27.4471C11.3421 27.1309 11.0858 26.8746 10.7696 26.8746Z" fill="#565656"/>
<path d="M14.8684 26.8746C14.5522 26.8746 14.2959 27.1309 14.2959 27.4471V30.7569C14.2959 31.0731 14.5522 31.3294 14.8684 31.3294C15.1846 31.3294 15.4409 31.0731 15.4409 30.7569V27.4471C15.4409 27.1309 15.1846 26.8746 14.8684 26.8746Z" fill="#565656"/>
<path d="M19.6609 26.8746C19.3447 26.8746 19.0884 27.1309 19.0884 27.4471V30.7569C19.0884 31.0731 19.3447 31.3294 19.6609 31.3294C19.9771 31.3294 20.2334 31.0731 20.2334 30.7569V27.4471C20.2334 27.1309 19.9771 26.8746 19.6609 26.8746Z" fill="#565656"/>
<path d="M30.4098 30.2902C28.843 29.1766 28.8041 27.5207 28.8032 27.4445C28.8018 27.1295 28.546 26.8746 28.2307 26.8746C27.9145 26.8746 27.6582 27.1309 27.6582 27.4471C27.6582 27.5407 27.6819 29.7561 29.7465 31.2236C29.8471 31.2951 29.963 31.3295 30.0777 31.3295C30.2568 31.3294 30.4332 31.2456 30.5449 31.0886C30.728 30.8308 30.6675 30.4733 30.4098 30.2902Z" fill="#565656"/>
<path d="M24.1311 26.8746C23.8149 26.8746 23.5586 27.1309 23.5586 27.4471V30.7569C23.5586 31.0731 23.8149 31.3294 24.1311 31.3294C24.4473 31.3294 24.7036 31.0731 24.7036 30.7569V27.4471C24.7036 27.1309 24.4473 26.8746 24.1311 26.8746Z" fill="#565656"/>
</g>
<defs>
<clipPath id="clip0">
<rect width="39" height="39" fill="white"/>
</clipPath>
</defs>
</svg>
