<svg width="44" height="26" viewBox="0 0 44 26" fill="none" xmlns="http://www.w3.org/2000/svg">
<path d="M41.8193 7.43384H40.9452V4.18498C40.9452 2.26436 39.3827 0.701843 37.462 0.701843H24.8386C23.6684 0.701843 22.6319 1.28252 22 2.17017C21.3681 1.28244 20.3316 0.701843 19.1614 0.701843H11.2309C10.875 0.701843 10.5864 0.990421 10.5864 1.34637C10.5864 1.70233 10.875 1.99091 11.2309 1.99091H19.1614C20.3712 1.99091 21.3555 2.97515 21.3555 4.18498V10.6311C21.342 10.6182 21.3277 10.6061 21.314 10.5932C20.5501 9.88091 19.5146 9.4703 18.4694 9.4703H7.73343C7.67662 8.60491 7.08666 7.84376 6.27258 7.55519C6.04321 7.47389 5.8007 7.43384 5.55741 7.43384H4.34388V4.18498C4.34388 2.97515 5.32813 1.99091 6.53795 1.99091H8.65279C9.00874 1.99091 9.29732 1.70233 9.29732 1.34637C9.29732 0.990421 9.00874 0.701843 8.65279 0.701843H6.53795C4.61734 0.701843 3.05482 2.26436 3.05482 4.18498V7.43384H2.18066C0.978227 7.43384 0 8.41224 0 9.61451V16.3444C0 18.8484 2.03723 20.8856 4.54128 20.8856H4.86518C4.86518 20.8856 4.15946 22.7838 4.15895 22.7853C3.7137 23.9827 4.63014 25.2982 5.90563 25.2982H6.94255C7.52297 25.2982 8.07856 25.0218 8.42875 24.5589L11.2072 20.8856H32.793L35.5714 24.5589C35.9216 25.0218 36.4772 25.2982 37.0575 25.2982C37.0575 25.2982 38.0938 25.2982 38.0944 25.2982C39.3714 25.2982 40.2862 23.9825 39.8411 22.7853L39.1347 20.8856H39.4587C41.9628 20.8856 44 18.8484 44 16.3444V9.61451C44 8.41224 43.0218 7.43384 41.8193 7.43384ZM22.6445 4.18515C22.6445 2.97523 23.6288 1.99099 24.8386 1.99099H37.462C38.6719 1.99099 39.6561 2.97523 39.6561 4.18506V7.43393C39.6561 7.43393 38.4429 7.43393 38.4425 7.43393C37.5855 7.43393 36.7635 7.98393 36.4311 8.77301C36.338 8.99395 36.2822 9.23131 36.2666 9.47048C36.2666 9.47048 25.5309 9.47048 25.5306 9.47048C24.4692 9.47048 23.4114 9.8975 22.6445 10.6313V4.18515ZM7.73816 10.7595H18.4694C20.0608 10.7595 21.3555 12.0542 21.3555 13.6456V14.5621H7.73816V10.7595ZM7.40068 23.7812C7.29274 23.924 7.12138 24.0091 6.94246 24.0091C6.94246 24.0091 5.90915 24.0091 5.90554 24.0091C5.51091 24.0091 5.22964 23.6043 5.36714 23.2346L6.24044 20.8856H9.5908L7.40068 23.7812ZM38.0944 24.009H37.0575C36.8786 24.009 36.7073 23.9239 36.5994 23.7812L34.4092 20.8856H37.7596C37.7596 20.8856 38.6299 23.2263 38.6329 23.2345C38.7706 23.605 38.4874 24.009 38.0944 24.009ZM39.4587 19.5966H4.54128C2.74802 19.5967 1.28906 18.1376 1.28906 16.3444V9.61451C1.28906 9.12286 1.68902 8.72291 2.18066 8.72291H5.55741C6.04905 8.72291 6.44901 9.12286 6.44901 9.61451V15.2065C6.44901 15.5625 6.73759 15.8511 7.09354 15.8511H30.7673C31.1233 15.8511 31.4119 15.5625 31.4119 15.2065C31.4119 14.8506 31.1233 14.562 30.7673 14.562H22.6445V13.6455C22.6445 12.0541 23.9392 10.7595 25.5306 10.7595H36.2618V14.5621H33.3455C32.9895 14.5621 32.7009 14.8507 32.7009 15.2066C32.7009 15.5626 32.9895 15.8512 33.3455 15.8512H36.9064C37.2623 15.8512 37.5509 15.5626 37.5509 15.2066V9.61459C37.5509 9.12294 37.9509 8.72299 38.4425 8.72299H41.8192C42.3109 8.72299 42.7108 9.12294 42.7108 9.61459V16.3444H42.7109C42.7109 18.1376 41.252 19.5966 39.4587 19.5966Z" fill="#565656"/>
</svg>
