<svg width="17" height="25" viewBox="0 0 17 25" fill="none" xmlns="http://www.w3.org/2000/svg">
<path d="M0.80957 0V1.83105V2.19727V23.5352H2.27441V25H5.18965V23.5352H11.8104V25H14.7256V23.5352H16.1904V22.0703H15.458V22.8027H1.54199V12.8662H4.46021V12.1338H1.54199V2.19727H10.331V1.46484H1.54199V0.732422H15.458V1.46484H11.0634V2.19727H15.458V12.1338H5.19258V12.8662H15.458V21.3379H16.1904V2.19727V1.83105V0H0.80957ZM4.45723 24.2676H3.00684V23.5352H4.45723V24.2676ZM13.9932 24.2676H12.5428V23.5352H13.9932V24.2676Z" fill="#565656"/>
<path d="M7.01211 3.14761H2.64062V11.1835H7.01211V3.14761ZM6.27969 3.88004V5.45342L4.46011 6.1858V7.65069L3.37305 8.08824V3.88004H6.27969ZM3.37305 10.4511V8.87769L5.19258 8.14532V6.68043L6.27974 6.24288V10.4511H3.37305Z" fill="#565656"/>
<path d="M11.4253 5.70068V8.63037C11.4253 9.23613 11.9182 9.729 12.5239 9.729C13.1297 9.729 13.6225 9.23613 13.6225 8.63037V5.70068C13.6225 5.09492 13.1296 4.60205 12.5239 4.60205C11.9181 4.60205 11.4253 5.09492 11.4253 5.70068ZM12.8901 5.70068V8.63037C12.8901 8.83232 12.7258 8.99658 12.5239 8.99658C12.322 8.99658 12.1577 8.83232 12.1577 8.63037V5.70068C12.1577 5.49873 12.322 5.33447 12.5239 5.33447H12.5239C12.7258 5.33447 12.8901 5.49873 12.8901 5.70068Z" fill="#565656"/>
<path d="M13.6225 16.3696C13.6225 15.7639 13.1296 15.271 12.5239 15.271C11.9181 15.271 11.4253 15.7639 11.4253 16.3696V19.2993C11.4253 19.9051 11.9182 20.3979 12.5239 20.3979C13.1297 20.3979 13.6225 19.9051 13.6225 19.2993V16.3696ZM12.8901 19.2993C12.8901 19.5013 12.7258 19.6655 12.5239 19.6655C12.322 19.6655 12.1577 19.5013 12.1577 19.2993V16.3696C12.1577 16.1677 12.322 16.0034 12.5239 16.0034H12.5239C12.7258 16.0034 12.8901 16.1677 12.8901 16.3696V19.2993Z" fill="#565656"/>
<path d="M13.9932 2.92969H14.7256V3.66211H13.9932V2.92969Z" fill="#565656"/>
<path d="M12.5283 2.92969H13.2607V3.66211H12.5283V2.92969Z" fill="#565656"/>
<path d="M9.22803 21.3379H12.1577V22.0703H9.22803V21.3379Z" fill="#565656"/>
<path d="M12.8901 21.3379H13.6226V22.0703H12.8901V21.3379Z" fill="#565656"/>
</svg>
