<svg width="44" height="43" viewBox="0 0 44 43" fill="none" xmlns="http://www.w3.org/2000/svg">
<path d="M42.2228 26.2895L40.4126 16.9625C40.2178 16.1407 39.8294 15.3747 39.2783 14.7255L40.3408 13.6841C40.4535 13.5739 40.5168 13.4245 40.5168 13.2687C40.5168 13.1129 40.4535 12.9635 40.3408 12.8533L40.1345 12.6518C40.4837 12.4016 40.7768 12.0843 40.996 11.7195C41.2152 11.3546 41.3558 10.9498 41.4092 10.53C41.4223 10.047 41.333 9.56662 41.1469 9.11904C41.0177 8.80154 40.9409 8.46602 40.9193 8.125C40.9193 7.96908 40.8559 7.81955 40.7431 7.7093C40.6303 7.59905 40.4773 7.53711 40.3178 7.53711C40.1582 7.53711 40.0052 7.59905 39.8924 7.7093C39.7796 7.81955 39.7162 7.96908 39.7162 8.125C39.7349 8.59243 39.8326 9.05362 40.0053 9.48991C40.1344 9.7906 40.2037 10.1126 40.2095 10.4386C40.1589 10.7178 40.0504 10.984 39.8908 11.2209C39.7313 11.4577 39.5238 11.6602 39.2813 11.8159L38.8829 11.4266C38.768 11.3204 38.6159 11.2612 38.4577 11.2612C38.2996 11.2612 38.1474 11.3204 38.0325 11.4266L36.4255 13.0008C36.0551 12.9172 35.6764 12.8744 35.2963 12.8731H23.2031C12.8456 12.8731 5.23222 21.3861 2.92188 29.9441H2.23438C2.07483 29.9441 1.92182 30.0061 1.80901 30.1163C1.69619 30.2266 1.63281 30.3761 1.63281 30.532V32.9142C1.63281 33.0701 1.69619 33.2196 1.80901 33.3299C1.92182 33.4401 2.07483 33.5021 2.23438 33.5021H38.8506C39.0101 33.502 39.1631 33.44 39.2759 33.3298C39.3887 33.2195 39.4521 33.0701 39.4522 32.9142V30.6567C39.4612 30.6162 39.4658 30.5748 39.4659 30.5334C39.4659 28.5735 40.1906 27.471 41.8162 26.9587C41.9557 26.9147 42.0741 26.8224 42.1489 26.6992C42.2238 26.576 42.2501 26.4303 42.2228 26.2895ZM38.4588 12.6766L39.0658 13.2699L38.4127 13.9109C38.179 13.7365 37.9306 13.5817 37.6702 13.4483L38.4588 12.6766ZM2.83594 32.3263V31.1199H3.37391H3.38594H38.2491V32.3249L2.83594 32.3263ZM38.2838 29.9441H4.16419C6.44909 21.9273 13.5761 14.0489 23.2031 14.0489H35.2963C36.305 14.0518 37.2744 14.4315 38.006 15.1101C38.0112 15.1155 38.0146 15.1216 38.0201 15.1269C38.0335 15.14 38.049 15.1498 38.0634 15.1605C38.6461 15.7183 39.053 16.4276 39.236 17.2044L40.9461 26.0204C39.302 26.7044 38.4264 27.9947 38.2838 29.9441Z" fill="#565656"/>
<path d="M27.3577 26.922H17.0679C16.9083 26.922 16.7553 26.984 16.6425 27.0942C16.5297 27.2045 16.4663 27.354 16.4663 27.5099C16.4663 27.6658 16.5297 27.8154 16.6425 27.9256C16.7553 28.0359 16.9083 28.0978 17.0679 28.0978H27.3577C27.5172 28.0978 27.6702 28.0359 27.7831 27.9256C27.8959 27.8154 27.9592 27.6658 27.9592 27.5099C27.9592 27.354 27.8959 27.2045 27.7831 27.0942C27.6702 26.984 27.5172 26.922 27.3577 26.922Z" fill="#565656"/>
<path d="M37.0151 17.6911C36.9726 17.4616 36.852 17.2529 36.6729 17.0988C36.4937 16.9448 36.2665 16.8545 36.0282 16.8426H25.4589C21.3418 16.8426 17.7382 19.5637 16.4918 23.6137C16.4648 23.7015 16.4591 23.7942 16.4753 23.8845C16.4915 23.9747 16.5291 24.06 16.585 24.1336C16.641 24.2071 16.7138 24.2669 16.7976 24.308C16.8813 24.3492 16.9738 24.3706 17.0676 24.3706H37.2801C37.4273 24.3693 37.5721 24.3347 37.7033 24.2695C37.8345 24.2044 37.9485 24.1104 38.0363 23.995C38.154 23.8475 38.2359 23.6759 38.2759 23.493C38.3159 23.3101 38.313 23.1208 38.2673 22.9392L37.0151 17.6911ZM26.937 23.1948V21.5487H30.0349V23.1948H26.937ZM31.238 23.1948V20.9625C31.238 20.8066 31.1746 20.657 31.0618 20.5468C30.949 20.4365 30.796 20.3746 30.6364 20.3746H26.3354C26.1759 20.3746 26.0229 20.4365 25.9101 20.5468C25.7973 20.657 25.7339 20.8066 25.7339 20.9625V23.1955H17.9146C19.1968 20.0689 22.1383 18.019 25.4589 18.019H35.8573L37.0948 23.1955L31.238 23.1948Z" fill="#565656"/>
</svg>
