<svg width="25" height="25" viewBox="0 0 25 25" fill="none" xmlns="http://www.w3.org/2000/svg">
<path d="M23.7311 0H1.2689C0.569222 0 0 0.569222 0 1.2689V23.7311C0 24.4308 0.569222 25 1.2689 25H4.72462C7.46161 25 10.1169 24.4639 12.6168 23.4065C15.0313 22.3853 17.1996 20.9234 19.0614 19.0614C20.9233 17.1995 22.3853 15.0312 23.4065 12.6168C24.4639 10.1169 25 7.46161 25 4.72462V1.2689C25 0.569222 24.4308 0 23.7311 0ZM24.1901 4.72462C24.1901 9.92403 22.1653 14.8122 18.4888 18.4888C14.8122 22.1653 9.92403 24.1901 4.72462 24.1901H1.2689C1.01582 24.1901 0.809935 23.9842 0.809935 23.7311V1.2689C0.809935 1.01582 1.01582 0.809935 1.2689 0.809935H23.7311C23.9842 0.809935 24.1901 1.01582 24.1901 1.2689V4.72462Z" fill="#565656"/>
<path d="M20.2752 2.15982H4.72446C3.31021 2.15982 2.15967 3.31036 2.15967 4.72462V20.2754C2.15967 21.6896 3.31026 22.8402 4.72446 22.8402C8.00475 22.8402 11.2204 21.952 14.0236 20.2718C14.1306 20.2077 14.2021 20.0978 14.2173 19.974C14.2326 19.8503 14.19 19.7263 14.1017 19.6381C13.8186 19.355 13.6627 18.9786 13.6627 18.5782C13.6627 18.1779 13.8186 17.8014 14.1017 17.5184L15.5236 16.0965L16.5332 17.106C16.6122 17.1851 16.7159 17.2247 16.8195 17.2247C16.9231 17.2247 17.0268 17.1851 17.1058 17.106C17.264 16.9479 17.264 16.6915 17.1058 16.5334L16.0963 15.5238L17.5181 14.1019C18.1026 13.5175 19.0535 13.5175 19.638 14.1019C19.7262 14.1901 19.8502 14.2326 19.9739 14.2175C20.0977 14.2022 20.2075 14.1308 20.2717 14.0238C21.9519 11.2205 22.84 8.00485 22.84 4.72462C22.84 3.31036 21.6895 2.15982 20.2752 2.15982ZM19.809 13.2081C18.9172 12.6461 17.7215 12.7531 16.9455 13.5292L15.5236 14.951L14.2981 13.7255C14.1399 13.5673 13.8835 13.5673 13.7254 13.7255C13.5672 13.8836 13.5672 14.1401 13.7254 14.2982L14.9509 15.5237L13.5291 16.9456C12.7529 17.7217 12.6459 18.9173 13.208 19.8091C10.6265 21.2635 7.70335 22.0302 4.72446 22.0302C3.75686 22.0302 2.9696 21.243 2.9696 20.2754V4.72462C2.9696 3.75696 3.75681 2.96976 4.72446 2.96976H20.2752C21.2428 2.96976 22.0301 3.75701 22.0301 4.72462C22.0301 7.7035 21.2633 10.6266 19.809 13.2081Z" fill="#565656"/>
<path d="M18.1154 15.1188C18.0085 15.1188 17.9043 15.162 17.8292 15.2376C17.7536 15.3126 17.7104 15.4174 17.7104 15.5237C17.7104 15.6307 17.7536 15.7349 17.8292 15.8099C17.9043 15.8855 18.009 15.9287 18.1154 15.9287C18.2218 15.9287 18.3265 15.8855 18.4016 15.8099C18.4772 15.7349 18.5204 15.6301 18.5204 15.5237C18.5204 15.4174 18.4772 15.3126 18.4016 15.2376C18.3265 15.162 18.2223 15.1188 18.1154 15.1188Z" fill="#565656"/>
<path d="M15.5236 17.7106C15.4172 17.7106 15.3125 17.7538 15.2374 17.8294C15.1618 17.9044 15.1187 18.0092 15.1187 18.1155C15.1187 18.2224 15.1618 18.3267 15.2374 18.4017C15.3125 18.4773 15.4172 18.5205 15.5236 18.5205C15.63 18.5205 15.7347 18.4773 15.8098 18.4017C15.8854 18.3267 15.9286 18.2219 15.9286 18.1155C15.9286 18.0092 15.8854 17.9044 15.8098 17.8294C15.7347 17.7538 15.63 17.7106 15.5236 17.7106Z" fill="#565656"/>
<path d="M12.5002 3.8877C12.3938 3.8877 12.2891 3.93089 12.214 4.00649C12.1384 4.08154 12.0952 4.18629 12.0952 4.29266C12.0952 4.39903 12.1384 4.50379 12.214 4.57884C12.2891 4.65443 12.3938 4.69763 12.5002 4.69763C12.6066 4.69763 12.7113 4.65443 12.7864 4.57884C12.862 4.50379 12.9051 4.39903 12.9051 4.29266C12.9051 4.18629 12.862 4.08154 12.7864 4.00649C12.7113 3.93089 12.6066 3.8877 12.5002 3.8877Z" fill="#565656"/>
<path d="M4.29266 12.095C4.18629 12.095 4.08154 12.1382 4.00649 12.2138C3.93089 12.2889 3.8877 12.3931 3.8877 12.5C3.8877 12.6064 3.93089 12.7111 4.00649 12.7862C4.08154 12.8618 4.18629 12.905 4.29266 12.905C4.39903 12.905 4.50379 12.8618 4.57884 12.7862C4.65443 12.7111 4.69763 12.6064 4.69763 12.5C4.69763 12.3931 4.65443 12.2889 4.57884 12.2138C4.50379 12.1382 4.39903 12.095 4.29266 12.095Z" fill="#565656"/>
<path d="M4.29266 10.3672C4.18629 10.3672 4.08154 10.4104 4.00649 10.4859C3.93089 10.561 3.8877 10.6658 3.8877 10.7721C3.8877 10.8785 3.93089 10.9832 4.00649 11.0583C4.08154 11.1339 4.18629 11.1771 4.29266 11.1771C4.39903 11.1771 4.50379 11.1339 4.57884 11.0583C4.65443 10.9832 4.69763 10.8785 4.69763 10.7721C4.69763 10.6652 4.65443 10.561 4.57884 10.4859C4.50379 10.4104 4.39903 10.3672 4.29266 10.3672Z" fill="#565656"/>
<path d="M4.29266 13.8229C4.18575 13.8229 4.08154 13.8661 4.00649 13.9417C3.93089 14.0168 3.8877 14.1215 3.8877 14.2279C3.8877 14.3348 3.93089 14.439 4.00649 14.5141C4.08154 14.5896 4.18575 14.6328 4.29266 14.6328C4.39903 14.6328 4.50379 14.5896 4.57884 14.5141C4.65443 14.439 4.69763 14.3348 4.69763 14.2279C4.69763 14.121 4.65443 14.0168 4.57884 13.9417C4.50379 13.8661 4.39903 13.8229 4.29266 13.8229Z" fill="#565656"/>
<path d="M10.7722 3.8877C10.6658 3.8877 10.561 3.93089 10.486 4.00649C10.4104 4.08154 10.3672 4.18629 10.3672 4.29266C10.3672 4.39903 10.4104 4.50379 10.486 4.57884C10.561 4.65443 10.6658 4.69763 10.7722 4.69763C10.8785 4.69763 10.9833 4.65443 11.0583 4.57884C11.1339 4.50379 11.1771 4.39903 11.1771 4.29266C11.1771 4.18629 11.1339 4.08154 11.0583 4.00649C10.9833 3.93089 10.8785 3.8877 10.7722 3.8877Z" fill="#565656"/>
<path d="M14.2277 3.8877C14.1214 3.8877 14.0166 3.93089 13.9415 4.00649C13.866 4.08154 13.8228 4.18575 13.8228 4.29266C13.8228 4.39903 13.866 4.50379 13.9415 4.57884C14.0166 4.65443 14.1214 4.69763 14.2277 4.69763C14.3341 4.69763 14.4388 4.65443 14.5139 4.57884C14.5895 4.50379 14.6327 4.39903 14.6327 4.29266C14.6327 4.18629 14.5895 4.08154 14.5139 4.00649C14.4388 3.93089 14.3341 3.8877 14.2277 3.8877Z" fill="#565656"/>
</svg>
