<svg width="34" height="35" viewBox="0 0 34 35" fill="none" xmlns="http://www.w3.org/2000/svg">
<path d="M33.4333 5.83157H0.566667C0.253725 5.83157 0 6.09276 0 6.41491V26.2482C0 26.5704 0.253725 26.8316 0.566667 26.8316H2.32333C2.63472 28.4102 4.13029 29.43 5.66383 29.1095C6.77882 28.8765 7.65028 27.9794 7.87667 26.8316H26.1233C26.4347 28.4102 27.9303 29.43 29.4638 29.1095C30.5788 28.8765 31.4503 27.9794 31.6767 26.8316H33.4333C33.7463 26.8316 34 26.5704 34 26.2482V6.41491C34 6.09276 33.7463 5.83157 33.4333 5.83157ZM5.1 27.9982C4.37977 27.9974 3.73795 27.5303 3.4969 26.8316H6.7031C6.46205 27.5303 5.82023 27.9974 5.1 27.9982ZM28.9 27.9982C28.1798 27.9974 27.5379 27.5303 27.2969 26.8316H30.5031C30.2621 27.5303 29.6202 27.9974 28.9 27.9982ZM32.8667 25.6649H1.13333V6.99824H32.8667V25.6649Z" fill="#565656"/>
<path d="M28.9118 18.6649C28.3527 18.6637 27.8059 18.8327 27.34 19.1508L27.034 18.8358C26.8089 18.612 26.4502 18.6184 26.2328 18.8501C26.0206 19.0761 26.0206 19.4346 26.2328 19.6606L26.5388 19.9756C25.6747 21.3155 26.0293 23.1228 27.331 24.0123C27.796 24.3301 28.3419 24.4992 28.9001 24.4982C30.4649 24.5016 31.736 23.1984 31.7393 21.5876C31.7425 19.9767 30.4766 18.6682 28.9118 18.6649ZM28.9001 23.3316C27.9612 23.3316 27.2001 22.5481 27.2001 21.5816C27.2011 21.3217 27.2592 21.0655 27.3701 20.832L28.4989 21.994C28.724 22.2178 29.0827 22.2114 29.3001 21.9797C29.5123 21.7536 29.5123 21.3952 29.3001 21.1691L28.1719 20.0066C28.3987 19.8924 28.6476 19.8326 28.9001 19.8316C29.839 19.8316 30.6001 20.6151 30.6001 21.5816C30.6001 22.5481 29.839 23.3316 28.9001 23.3316Z" fill="#565656"/>
<path d="M18.9895 9.33157H5.9437C3.91433 9.33507 2.27 11.0278 2.2666 13.1168V19.5463C2.27 21.6354 3.91433 23.3281 5.9437 23.3316H18.9895C21.0189 23.3281 22.6632 21.6354 22.6666 19.5463V13.1168C22.6632 11.0278 21.0189 9.33515 18.9895 9.33157ZM21.5333 19.5463C21.5317 20.9918 20.3938 22.1633 18.9895 22.1649H5.9437C4.5395 22.1633 3.40149 20.9918 3.39993 19.5463V13.1168C3.40149 11.6712 4.53943 10.4998 5.9437 10.4982H18.9895C20.3938 10.4998 21.5317 11.6712 21.5333 13.1168V19.5463Z" fill="#565656"/>
<path d="M31.1664 8.16492H26.6331C26.3201 8.16492 26.0664 8.4261 26.0664 8.74825V11.0816C26.0664 11.4037 26.3201 11.6649 26.6331 11.6649H31.1664C31.4793 11.6649 31.7331 11.4037 31.7331 11.0816V8.74825C31.7331 8.4261 31.4793 8.16492 31.1664 8.16492ZM30.5997 10.4983H27.1997V9.33158H30.5997V10.4983Z" fill="#565656"/>
<path d="M30.6 15.1649H27.2C26.887 15.1649 26.6333 15.4261 26.6333 15.7483C26.6333 16.0704 26.887 16.3316 27.2 16.3316H30.6C30.9129 16.3316 31.1666 16.0704 31.1666 15.7483C31.1666 15.4261 30.9129 15.1649 30.6 15.1649Z" fill="#565656"/>
<path d="M30.6 12.8316H27.2C26.887 12.8316 26.6333 13.0928 26.6333 13.4149C26.6333 13.7371 26.887 13.9982 27.2 13.9982H30.6C30.9129 13.9982 31.1666 13.7371 31.1666 13.4149C31.1666 13.0928 30.9129 12.8316 30.6 12.8316Z" fill="#565656"/>
<path d="M24.3665 8.16492C24.0535 8.16492 23.7998 8.4261 23.7998 8.74825V23.9149C23.7998 24.2371 24.0535 24.4983 24.3665 24.4983C24.6794 24.4983 24.9331 24.2371 24.9331 23.9149V8.74825C24.9331 8.4261 24.6794 8.16492 24.3665 8.16492Z" fill="#565656"/>
<path d="M19.2668 17.4983H5.66676C5.35382 17.4983 5.1001 17.7594 5.1001 18.0816C5.10194 19.6916 6.36943 20.9964 7.93343 20.9983H17.0001C18.5641 20.9964 19.8316 19.6916 19.8334 18.0816C19.8334 17.7594 19.5797 17.4983 19.2668 17.4983ZM17.0001 19.8316H7.93343C7.2132 19.8307 6.57138 19.3636 6.33033 18.6649H18.6032C18.3621 19.3636 17.7203 19.8307 17.0001 19.8316Z" fill="#565656"/>
<path d="M12.3007 12.6607C12.5181 12.4289 12.5119 12.0596 12.2868 11.8358C12.0672 11.6175 11.719 11.6175 11.4994 11.8358L10.9328 12.4192C10.4001 12.9697 10.4001 13.8601 10.9328 14.4107C11.0243 14.5052 11.0243 14.658 10.9328 14.7525L10.3661 15.3358C10.1448 15.5637 10.1449 15.933 10.3663 16.1608C10.4725 16.2701 10.6166 16.3316 10.7667 16.3316C10.9171 16.3316 11.0611 16.27 11.1674 16.1607L11.734 15.5773C12.2667 15.0267 12.2667 14.1364 11.734 13.5858C11.6425 13.4913 11.6425 13.3385 11.734 13.244L12.3007 12.6607Z" fill="#565656"/>
<path d="M15.1342 12.6607C15.3516 12.4289 15.3454 12.0596 15.1203 11.8358C14.9007 11.6175 14.5525 11.6175 14.3329 11.8358L13.7663 12.4192C13.2336 12.9697 13.2336 13.8601 13.7663 14.4107C13.8578 14.5052 13.8578 14.658 13.7663 14.7525L13.1996 15.3358C12.9783 15.5637 12.9784 15.933 13.1998 16.1608C13.306 16.2701 13.4501 16.3316 13.6002 16.3316C13.7506 16.3316 13.8946 16.27 14.0009 16.1607L14.5675 15.5773C15.1002 15.0267 15.1002 14.1364 14.5675 13.5858C14.476 13.4913 14.476 13.3385 14.5675 13.244L15.1342 12.6607Z" fill="#565656"/>
</svg>
