<svg width="28" height="28" viewBox="0 0 28 28" fill="none" xmlns="http://www.w3.org/2000/svg">
<g clip-path="url(#clip0)">
<path d="M23.5665 0C22.7933 0 22.1665 0.626792 22.1665 1.4V1.86667H11.8999C10.6119 1.86818 9.56805 2.912 9.56654 4.2V6.53333H8.6332C7.85999 6.53333 7.2332 7.16013 7.2332 7.93333V9.541C5.20046 10.7939 3.96374 13.0121 3.96654 15.4V15.9525C3.40916 16.1496 3.03565 16.6755 3.0332 17.2667V18.2C3.0332 18.4577 3.24215 18.6667 3.49987 18.6667H18.4332C18.6909 18.6667 18.8999 18.4577 18.8999 18.2V17.2667C18.8974 16.6755 18.5239 16.1496 17.9665 15.9525V15.4C17.9693 13.5417 17.2302 11.7592 15.9132 10.4482C15.5472 10.0953 15.1398 9.78798 14.6999 9.53307V7.93333C14.6999 7.16013 14.0731 6.53333 13.2999 6.53333H12.3665V5.13333C12.3665 4.87562 12.5755 4.66667 12.8332 4.66667H22.1665V5.6C22.1665 6.37321 22.7933 7 23.5665 7H24.9665V0H23.5665ZM17.9665 17.2667V17.7333H3.96654V17.2667C3.96654 17.009 4.17549 16.8 4.4332 16.8H17.4999C17.7576 16.8 17.9665 17.009 17.9665 17.2667ZM15.2557 11.1095C16.3961 12.2457 17.0359 13.7901 17.0332 15.4V15.8667H4.89987V15.4C4.89835 13.2914 6.0117 11.3391 7.82727 10.2667H14.1091C14.5265 10.4962 14.912 10.7795 15.2557 11.1095ZM13.2999 7.46667C13.5576 7.46667 13.7665 7.67562 13.7665 7.93333V9.33333H8.16654V7.93333C8.16654 7.67562 8.37549 7.46667 8.6332 7.46667H13.2999ZM22.1665 3.73333H12.8332C12.06 3.73333 11.4332 4.36013 11.4332 5.13333V6.53333H10.4999V4.2C10.4999 3.42679 11.1267 2.8 11.8999 2.8H22.1665V3.73333ZM24.0332 6.06667H23.5665C23.3088 6.06667 23.0999 5.85772 23.0999 5.6V1.4C23.0999 1.14228 23.3088 0.933333 23.5665 0.933333H24.0332V6.06667Z" fill="#565656"/>
<path d="M10.9667 19.6C10.7089 19.6 10.5 19.809 10.5 20.0667V21.9333C10.5 22.1911 10.7089 22.4 10.9667 22.4C11.2244 22.4 11.4333 22.1911 11.4333 21.9333V20.0667C11.4333 19.809 11.2244 19.6 10.9667 19.6Z" fill="#565656"/>
<path d="M10.9667 23.3333C10.7089 23.3333 10.5 23.5423 10.5 23.8V25.6667C10.5 25.9244 10.7089 26.1333 10.9667 26.1333C11.2244 26.1333 11.4333 25.9244 11.4333 25.6667V23.8C11.4333 23.5423 11.2244 23.3333 10.9667 23.3333Z" fill="#565656"/>
<path d="M16.5668 21.4667C16.309 21.4667 16.1001 21.6756 16.1001 21.9333V23.8C16.1001 24.0577 16.309 24.2667 16.5668 24.2667C16.8245 24.2667 17.0334 24.0577 17.0334 23.8V21.9333C17.0334 21.6756 16.8245 21.4667 16.5668 21.4667Z" fill="#565656"/>
<path d="M12.8334 21.4667C12.5756 21.4667 12.3667 21.6756 12.3667 21.9333V23.8C12.3667 24.0577 12.5756 24.2667 12.8334 24.2667C13.0911 24.2667 13.3 24.0577 13.3 23.8V21.9333C13.3 21.6756 13.0911 21.4667 12.8334 21.4667Z" fill="#565656"/>
<path d="M9.09997 21.4667C8.84225 21.4667 8.6333 21.6756 8.6333 21.9333V23.8C8.6333 24.0577 8.84225 24.2667 9.09997 24.2667C9.35768 24.2667 9.56664 24.0577 9.56664 23.8V21.9333C9.56664 21.6756 9.35768 21.4667 9.09997 21.4667Z" fill="#565656"/>
<path d="M5.36657 21.4667C5.10885 21.4667 4.8999 21.6756 4.8999 21.9333V23.8C4.8999 24.0577 5.10885 24.2667 5.36657 24.2667C5.62429 24.2667 5.83324 24.0577 5.83324 23.8V21.9333C5.83324 21.6756 5.62429 21.4667 5.36657 21.4667Z" fill="#565656"/>
<path d="M7.23327 19.6C6.97555 19.6 6.7666 19.809 6.7666 20.0667V21.9333C6.7666 22.1911 6.97555 22.4 7.23327 22.4C7.49099 22.4 7.69994 22.1911 7.69994 21.9333V20.0667C7.69994 19.809 7.49099 19.6 7.23327 19.6Z" fill="#565656"/>
<path d="M14.7001 19.6C14.4423 19.6 14.2334 19.809 14.2334 20.0667V21.9333C14.2334 22.1911 14.4423 22.4 14.7001 22.4C14.9578 22.4 15.1667 22.1911 15.1667 21.9333V20.0667C15.1667 19.809 14.9578 19.6 14.7001 19.6Z" fill="#565656"/>
<path d="M14.7001 23.3333C14.4423 23.3333 14.2334 23.5423 14.2334 23.8V25.6667C14.2334 25.9244 14.4423 26.1333 14.7001 26.1333C14.9578 26.1333 15.1667 25.9244 15.1667 25.6667V23.8C15.1667 23.5423 14.9578 23.3333 14.7001 23.3333Z" fill="#565656"/>
<path d="M7.23327 23.3333C6.97555 23.3333 6.7666 23.5423 6.7666 23.8V25.6667C6.7666 25.9244 6.97555 26.1333 7.23327 26.1333C7.49099 26.1333 7.69994 25.9244 7.69994 25.6667V23.8C7.69994 23.5423 7.49099 23.3333 7.23327 23.3333Z" fill="#565656"/>
<path d="M9.09997 25.2C8.84225 25.2 8.6333 25.409 8.6333 25.6667V27.5333C8.6333 27.7911 8.84225 28 9.09997 28C9.35768 28 9.56664 27.7911 9.56664 27.5333V25.6667C9.56664 25.409 9.35768 25.2 9.09997 25.2Z" fill="#565656"/>
<path d="M12.8334 25.2C12.5756 25.2 12.3667 25.409 12.3667 25.6667V27.5333C12.3667 27.7911 12.5756 28 12.8334 28C13.0911 28 13.3 27.7911 13.3 27.5333V25.6667C13.3 25.409 13.0911 25.2 12.8334 25.2Z" fill="#565656"/>
</g>
<defs>
<clipPath id="clip0">
<rect width="28" height="28" fill="white"/>
</clipPath>
</defs>
</svg>
