<svg width="28" height="28" viewBox="0 0 28 28" fill="none" xmlns="http://www.w3.org/2000/svg">
<path d="M26.25 2.33337H1.75C0.785148 2.33337 0 3.11852 0 4.08337V20.4167C0 21.3816 0.785148 22.1667 1.75 22.1667H11.6666V23.4232L5.1543 24.5082C4.83695 24.5607 4.6223 24.8617 4.6748 25.1791C4.72265 25.4649 4.96995 25.6667 5.24995 25.6667C5.28145 25.6667 5.31295 25.6644 5.34559 25.6586L12.2966 24.5H15.7021L22.6531 25.6585C22.6858 25.6644 22.7185 25.6667 22.75 25.6667C23.0311 25.6667 23.2785 25.4648 23.324 25.179C23.3776 24.8617 23.1619 24.5607 22.8445 24.5082L16.3334 23.4232V22.1667H26.25C27.2149 22.1667 28 21.3815 28 20.4167V4.08337C28 3.11852 27.2149 2.33337 26.25 2.33337ZM15.1666 23.3334H12.8333V22.1667H15.1666V23.3334ZM26.8334 20.4167C26.8334 20.7387 26.572 21 26.25 21H1.75C1.428 21 1.16665 20.7387 1.16665 20.4167V4.08337C1.16665 3.76137 1.428 3.50002 1.75 3.50002H26.25C26.572 3.50002 26.8334 3.76137 26.8334 4.08337V20.4167Z" fill="#565656"/>
</svg>
