<svg width="21" height="27" viewBox="0 0 21 27" fill="none" xmlns="http://www.w3.org/2000/svg">
<path d="M19.3594 25.207C19.3594 25.235 19.3483 25.2618 19.3285 25.2816C19.3087 25.3014 19.2819 25.3125 19.2539 25.3125H1.74609C1.71812 25.3125 1.6913 25.3014 1.67152 25.2816C1.65174 25.2618 1.64062 25.235 1.64062 25.207V10.125H0.796875V25.207C0.797168 25.4587 0.897269 25.7 1.07522 25.8779C1.25317 26.0559 1.49444 26.156 1.74609 26.1562H19.2539C19.5056 26.156 19.7468 26.0559 19.9248 25.8779C20.1027 25.7 20.2028 25.4587 20.2031 25.207V20.6719H19.3594V25.207Z" fill="#565656"/>
<path d="M19.2539 0.84375H15.1406V1.6875H19.2539C19.2819 1.6875 19.3087 1.69861 19.3285 1.71839C19.3483 1.73817 19.3594 1.765 19.3594 1.79297V5.90625H1.64062V1.79297C1.64062 1.765 1.65174 1.73817 1.67152 1.71839C1.6913 1.69861 1.71812 1.6875 1.74609 1.6875H14.2792V0.84375H1.74609C1.49444 0.844043 1.25317 0.944144 1.07522 1.12209C0.897269 1.30004 0.797168 1.54131 0.796875 1.79297V9.28125H1.64062V6.75H19.3594V19.8281H20.2031V1.79297C20.2028 1.54131 20.1027 1.30004 19.9248 1.12209C19.7468 0.944144 19.5056 0.844043 19.2539 0.84375Z" fill="#565656"/>
<path d="M10.5 7.59375C6.31289 7.59375 2.90625 11.0004 2.90625 15.1875C2.90625 19.3746 6.31289 22.7812 10.5 22.7812C14.6871 22.7812 18.0938 19.3746 18.0938 15.1875C18.0938 11.0004 14.6871 7.59375 10.5 7.59375ZM10.5 21.9375C9.16498 21.9375 7.85993 21.5416 6.7499 20.7999C5.63987 20.0582 4.7747 19.004 4.26381 17.7706C3.75292 16.5372 3.61925 15.18 3.8797 13.8706C4.14015 12.5613 4.78302 11.3585 5.72703 10.4145C6.67103 9.47052 7.87377 8.82765 9.18314 8.5672C10.4925 8.30675 11.8497 8.44042 13.0831 8.95131C14.3165 9.4622 15.3707 10.3274 16.1124 11.4374C16.8541 12.5474 17.25 13.8525 17.25 15.1875C17.248 16.9771 16.5361 18.6928 15.2707 19.9582C14.0053 21.2236 12.2896 21.9355 10.5 21.9375Z" fill="#565656"/>
<path d="M8.8125 2.10938C8.70061 2.10938 8.59331 2.15382 8.51419 2.23294C8.43507 2.31206 8.39062 2.41936 8.39062 2.53125V5.0625C8.39062 5.17439 8.43507 5.28169 8.51419 5.36081C8.59331 5.43993 8.70061 5.48438 8.8125 5.48438H12.1875C12.2994 5.48438 12.4067 5.43993 12.4858 5.36081C12.5649 5.28169 12.6094 5.17439 12.6094 5.0625V2.53125C12.6094 2.41936 12.5649 2.31206 12.4858 2.23294C12.4067 2.15382 12.2994 2.10938 12.1875 2.10938H8.8125ZM11.7656 4.64062H9.23438V2.95312H11.7656V4.64062Z" fill="#565656"/>
<path d="M13.4531 2.53125H14.2969V3.375H13.4531V2.53125Z" fill="#565656"/>
<path d="M13.875 4.21875H14.7188V5.0625H13.875V4.21875Z" fill="#565656"/>
<path d="M8.39062 17.7188H9.23438V18.5625H8.39062V17.7188Z" fill="#565656"/>
<path d="M10.9219 16.4531H11.7656V17.2969H10.9219V16.4531Z" fill="#565656"/>
<path d="M13.4531 16.875H14.2969V17.7188H13.4531V16.875Z" fill="#565656"/>
<path d="M14.135 10.5352L13.6149 11.1996C14.4222 11.8278 15.0199 12.6863 15.3287 13.6616C13.2587 13.9253 11.8852 14.4743 10.554 15.0068C9.71557 15.3423 8.91665 15.6618 7.95018 15.9183C7.96249 15.8158 7.96867 15.7126 7.96869 15.6094V14.7656C7.97131 14.2427 7.81096 13.7319 7.50992 13.3042C7.20887 12.8766 6.7821 12.5533 6.28889 12.3794C6.98065 11.341 8.03173 10.5949 9.24019 10.2844C10.4486 9.97386 11.7292 10.1209 12.8359 10.6972L13.2265 9.94929C12.5379 9.59055 11.7852 9.37119 11.0117 9.30376C10.2381 9.23634 9.45885 9.32217 8.71851 9.55636C7.97818 9.79054 7.29132 10.1685 6.69726 10.6685C6.10321 11.1685 5.61363 11.7808 5.25656 12.4704C5.22462 12.5318 5.20829 12.6002 5.20901 12.6694C5.20973 12.7386 5.22748 12.8066 5.2607 12.8674C5.29392 12.9281 5.34158 12.9798 5.39948 13.0178C5.45738 13.0557 5.52373 13.0789 5.59269 13.0851C6.01242 13.1217 6.40303 13.3149 6.6869 13.6262C6.97078 13.9376 7.12714 14.3443 7.12494 14.7656V15.6094C7.12714 16.0307 6.97078 16.4374 6.6869 16.7488C6.40303 17.0601 6.01242 17.2533 5.59269 17.2899C5.52373 17.2961 5.45738 17.3193 5.39948 17.3572C5.34158 17.3952 5.29392 17.4469 5.2607 17.5076C5.22748 17.5684 5.20973 17.6364 5.20901 17.7056C5.20829 17.7749 5.22462 17.8432 5.25656 17.9046C5.66228 18.6884 6.2385 19.3713 6.94286 19.903C7.64723 20.4348 8.46182 20.8019 9.32674 20.9773C10.1917 21.1528 11.0849 21.1322 11.9408 20.917C12.7967 20.7018 13.5935 20.2975 14.2726 19.7339C14.9517 19.1702 15.4958 18.4615 15.8649 17.6599C16.2341 16.8582 16.4188 15.984 16.4056 15.1016C16.3924 14.2192 16.1816 13.3509 15.7887 12.5606C15.3957 11.7704 14.8307 11.0783 14.135 10.5352ZM10.4999 20.25C9.66648 20.251 8.84572 20.0457 8.11093 19.6523C7.37614 19.259 6.75017 18.6898 6.28889 17.9956C6.8617 17.7941 7.34207 17.3919 7.64105 16.8633C8.90436 16.5754 9.90241 16.1762 10.8676 15.7902C12.2246 15.2474 13.5108 14.7329 15.5147 14.4885C15.5465 14.7201 15.5625 14.9537 15.5624 15.1875C15.5609 16.5297 15.0271 17.8165 14.078 18.7656C13.1289 19.7146 11.8421 20.2485 10.4999 20.25Z" fill="#565656"/>
<path d="M18.5156 3.79688C18.5156 3.46312 18.4167 3.13686 18.2312 2.85935C18.0458 2.58184 17.7823 2.36555 17.4739 2.23783C17.1656 2.11011 16.8263 2.07669 16.4989 2.1418C16.1716 2.20691 15.8709 2.36763 15.6349 2.60363C15.3989 2.83963 15.2382 3.14032 15.1731 3.46766C15.1079 3.795 15.1414 4.1343 15.2691 4.44265C15.3968 4.751 15.6131 5.01456 15.8906 5.19998C16.1681 5.38541 16.4944 5.48438 16.8281 5.48438C17.2755 5.48387 17.7045 5.30592 18.0208 4.98956C18.3372 4.6732 18.5151 4.24427 18.5156 3.79688ZM15.9844 3.79688C15.9844 3.63 16.0339 3.46687 16.1266 3.32811C16.2193 3.18936 16.3511 3.08121 16.5052 3.01735C16.6594 2.95349 16.8291 2.93678 16.9927 2.96934C17.1564 3.00189 17.3067 3.08225 17.4248 3.20025C17.5428 3.31825 17.6231 3.4686 17.6557 3.63227C17.6882 3.79594 17.6715 3.96559 17.6077 4.11977C17.5438 4.27394 17.4356 4.40572 17.2969 4.49843C17.1581 4.59114 16.995 4.64063 16.8281 4.64063C16.6044 4.64036 16.39 4.55138 16.2318 4.3932C16.0736 4.23503 15.9846 4.02057 15.9844 3.79688Z" fill="#565656"/>
<path d="M6.70312 2.53125H7.54688V3.375H6.70312V2.53125Z" fill="#565656"/>
<path d="M6.28125 4.21875H7.125V5.0625H6.28125V4.21875Z" fill="#565656"/>
<path d="M2.48438 3.79688C2.48438 4.13063 2.58335 4.45689 2.76877 4.7344C2.9542 5.01191 3.21775 5.2282 3.5261 5.35592C3.83445 5.48364 4.17375 5.51706 4.50109 5.45195C4.82843 5.38684 5.12912 5.22612 5.36512 4.99012C5.60112 4.75412 5.76184 4.45343 5.82695 4.12609C5.89206 3.79875 5.85864 3.45945 5.73092 3.1511C5.6032 2.84275 5.38691 2.57919 5.1094 2.39377C4.83189 2.20835 4.50563 2.10937 4.17188 2.10938C3.72448 2.10988 3.29555 2.28783 2.97919 2.60419C2.66283 2.92055 2.48488 3.34948 2.48438 3.79688ZM5.01563 3.79688C5.01563 3.96375 4.96614 4.12688 4.87343 4.26564C4.78072 4.40439 4.64894 4.51254 4.49476 4.5764C4.34059 4.64026 4.17094 4.65697 4.00727 4.62441C3.8436 4.59186 3.69325 4.5115 3.57525 4.3935C3.45725 4.2755 3.37689 4.12515 3.34434 3.96148C3.31178 3.79781 3.32849 3.62816 3.39235 3.47399C3.45621 3.31981 3.56436 3.18804 3.70311 3.09532C3.84187 3.00261 4.005 2.95313 4.17188 2.95313C4.39557 2.95339 4.61003 3.04237 4.7682 3.20055C4.92638 3.35872 5.01536 3.57318 5.01563 3.79688Z" fill="#565656"/>
<path d="M17.0391 21.0938C16.6636 21.0938 16.2965 21.2051 15.9843 21.4137C15.6722 21.6223 15.4288 21.9188 15.2851 22.2657C15.1414 22.6126 15.1039 22.9943 15.1771 23.3626C15.2504 23.7308 15.4312 24.0691 15.6967 24.3346C15.9622 24.6001 16.3004 24.7809 16.6687 24.8541C17.037 24.9274 17.4187 24.8898 17.7656 24.7461C18.1125 24.6024 18.409 24.3591 18.6176 24.0469C18.8262 23.7347 18.9375 23.3677 18.9375 22.9922C18.9369 22.4889 18.7368 22.0063 18.3808 21.6504C18.0249 21.2945 17.5424 21.0943 17.0391 21.0938ZM17.0391 24.0469C16.8305 24.0469 16.6266 23.985 16.4531 23.8691C16.2797 23.7532 16.1445 23.5885 16.0647 23.3958C15.9848 23.2031 15.9639 22.991 16.0046 22.7864C16.0453 22.5818 16.1458 22.3939 16.2933 22.2464C16.4408 22.0989 16.6287 21.9985 16.8333 21.9578C17.0379 21.9171 17.25 21.938 17.4427 22.0178C17.6354 22.0976 17.8001 22.2328 17.916 22.4062C18.0319 22.5797 18.0938 22.7836 18.0938 22.9922C18.0934 23.2718 17.9822 23.5399 17.7845 23.7376C17.5868 23.9353 17.3187 24.0466 17.0391 24.0469Z" fill="#565656"/>
<path d="M17.6719 7.59375H18.5156V8.4375H17.6719V7.59375Z" fill="#565656"/>
<path d="M2.48438 7.59375H3.32812V8.4375H2.48438V7.59375Z" fill="#565656"/>
<path d="M2.48438 23.625H3.32812V24.4688H2.48438V23.625Z" fill="#565656"/>
</svg>
