<svg width="20" height="20" viewBox="0 0 20 20" fill="none" xmlns="http://www.w3.org/2000/svg">
<g clip-path="url(#clip0_11_1578)">
<path d="M9.99996 10.8232C12.9887 10.8232 15.4116 8.40034 15.4116 5.41158C15.4116 2.42281 12.9887 0 9.99996 0C7.01119 0 4.58838 2.42285 4.58838 5.41162C4.59205 8.39882 7.01275 10.8195 9.99996 10.8232ZM9.99996 2.49766C11.6093 2.49766 12.9139 3.80226 12.9139 5.41162C12.9139 7.02097 11.6093 8.32557 9.99996 8.32557C8.3906 8.32557 7.086 7.02097 7.086 5.41162C7.086 3.80226 8.39064 2.49766 9.99996 2.49766Z" fill="#FF9800"/>
<path d="M15.301 13.3875C15.5905 13.1968 15.8283 12.9372 15.9929 12.6321C16.1575 12.327 16.2439 11.9858 16.2443 11.6391C16.2483 11.3528 16.1708 11.0712 16.0209 10.8273C15.871 10.5833 15.6548 10.387 15.3976 10.2612C15.1331 10.1291 14.837 10.0738 14.5426 10.1014C14.2483 10.1291 13.9677 10.2387 13.7325 10.4177C11.5086 12.039 8.49244 12.039 6.26863 10.4177C6.03301 10.2396 5.75241 10.1305 5.45831 10.1029C5.1642 10.0752 4.8682 10.1301 4.6035 10.2612C4.34637 10.387 4.13022 10.5831 3.98018 10.8269C3.83015 11.0707 3.7524 11.352 3.75598 11.6382C3.75659 11.9849 3.84306 12.326 4.00767 12.6311C4.17227 12.9362 4.40988 13.1958 4.69927 13.3866C5.45343 13.8881 6.27468 14.2805 7.13867 14.5522C7.28869 14.5987 7.44001 14.6409 7.59243 14.6788L5.07646 17.139C4.41645 17.7793 4.40049 18.8335 5.04087 19.4935C5.68125 20.1535 6.73538 20.1695 7.39542 19.5291C7.40916 19.5158 7.42266 19.5022 7.43593 19.4884L10.0002 16.8342L12.5695 19.4934C13.2093 20.1539 14.2635 20.1707 14.924 19.5309C15.5845 18.891 15.6013 17.8369 14.9615 17.1763C14.9481 17.1625 14.9345 17.1489 14.9206 17.1356L12.4088 14.6779C12.5615 14.6388 12.7133 14.5964 12.8642 14.5505C13.7273 14.2799 14.5477 13.8883 15.301 13.3875Z" fill="#FF9800"/>
</g>
<defs>
<clipPath id="clip0_11_1578">
<rect width="20" height="20" fill="white"/>
</clipPath>
</defs>
</svg>
