<svg width="19" height="19" viewBox="0 0 19 19" fill="none" xmlns="http://www.w3.org/2000/svg">
<g clip-path="url(#clip0_4_1678)">
<path d="M9.5 0.474998C4.2617 0.474998 0 4.31047 0 9.025C0 10.6729 0.521233 12.2692 1.50987 13.6496C1.32272 15.7197 0.821117 17.2564 0.0927833 17.9844C0.0458901 18.0314 0.0149342 18.0919 0.00428781 18.1574C-0.00635856 18.2229 0.00384271 18.2901 0.0334508 18.3495C0.0630588 18.4089 0.110577 18.4575 0.169294 18.4884C0.228012 18.5193 0.29496 18.531 0.360683 18.5218C0.488933 18.5038 3.46813 18.075 5.62305 16.8312C6.84665 17.3248 8.15005 17.575 9.5 17.575C14.7383 17.575 19 13.7395 19 9.025C19 4.31047 14.7383 0.474998 9.5 0.474998ZM5.06667 10.2917C4.3681 10.2917 3.8 9.72357 3.8 9.025C3.8 8.32643 4.3681 7.75833 5.06667 7.75833C5.76523 7.75833 6.33333 8.32643 6.33333 9.025C6.33333 9.72357 5.76523 10.2917 5.06667 10.2917ZM9.5 10.2917C8.80143 10.2917 8.23333 9.72357 8.23333 9.025C8.23333 8.32643 8.80143 7.75833 9.5 7.75833C10.1986 7.75833 10.7667 8.32643 10.7667 9.025C10.7667 9.72357 10.1986 10.2917 9.5 10.2917ZM13.9333 10.2917C13.2348 10.2917 12.6667 9.72357 12.6667 9.025C12.6667 8.32643 13.2348 7.75833 13.9333 7.75833C14.6319 7.75833 15.2 8.32643 15.2 9.025C15.2 9.72357 14.6319 10.2917 13.9333 10.2917Z" fill="#FFA801"/>
</g>
<defs>
<clipPath id="clip0_4_1678">
<rect width="19" height="19" fill="white"/>
</clipPath>
</defs>
</svg>
