<svg xmlns="http://www.w3.org/2000/svg" viewBox="0 0 20 20"><defs><style>.cls-1{fill:#ffa801;}.cls-2{fill:#fff;}</style></defs><title>1Ресурс 3</title><g id="Слой_2" data-name="Слой 2"><g id="Слой_1-2" data-name="Слой 1"><circle class="cls-1" cx="10" cy="10" r="10"/><path class="cls-2" d="M8.25,11.56c0-.94,1.21-1.09,1.21-1.6a.36.36,0,0,0-.39-.37.59.59,0,0,0-.47.31l-.35-.23a1,1,0,0,1,.86-.52.77.77,0,0,1,.84.77c0,.83-1.16,1-1.17,1.47H10v.4H8.27A2,2,0,0,1,8.25,11.56Zm2-.73,1.12-1.64h.56v1.54h.34v.39h-.34v.67h-.46v-.67H10.26Zm1.22-.1V9.92c0-.13,0-.27,0-.27h0a1.59,1.59,0,0,1-.13.24l-.6.83h.72Zm2.29-.14-.09.33a3.56,3.56,0,0,1-4.25,2.54A3.51,3.51,0,0,1,6.8,9.53l.54.15a.18.18,0,0,0,.21-.21L7,7.2a.17.17,0,0,0-.28-.08L5,8.76a.18.18,0,0,0,.07.29l.59.16a4.69,4.69,0,0,0,3.43,5.38,4.76,4.76,0,0,0,5.73-3.37l.08-.31a.16.16,0,0,0-.11-.21L14,10.47A.18.18,0,0,0,13.77,10.59Zm1-1.42-.85.11a.18.18,0,0,0-.15.19l0,.26a.16.16,0,0,0,.19.14l.84-.11A.16.16,0,0,0,15,9.57l0-.25A.18.18,0,0,0,14.73,9.17Zm-.66-1.6L13.33,8a.18.18,0,0,0-.07.23l.13.22a.18.18,0,0,0,.23.07l.75-.42a.17.17,0,0,0,.06-.23l-.13-.23A.16.16,0,0,0,14.07,7.57Zm-1.2-1.25L12.33,7a.18.18,0,0,0,0,.24l.2.16a.17.17,0,0,0,.24,0l.53-.67a.17.17,0,0,0,0-.24L13.1,6.3A.16.16,0,0,0,12.87,6.32Zm-1.59-.7L11,6.45a.15.15,0,0,0,.11.2l.25.08a.17.17,0,0,0,.21-.11l.24-.83a.15.15,0,0,0-.11-.2l-.25-.08A.17.17,0,0,0,11.28,5.62Zm-1.73,0,.08.85a.17.17,0,0,0,.18.15l.26,0a.16.16,0,0,0,.15-.18l-.08-.86A.16.16,0,0,0,10,5.36l-.26,0A.16.16,0,0,0,9.55,5.57Zm-1.63.6.4.76A.16.16,0,0,0,8.54,7l.24-.12a.18.18,0,0,0,.07-.23l-.4-.76a.16.16,0,0,0-.22-.07L8,5.94A.17.17,0,0,0,7.92,6.17Z"/></g></g></svg>