<svg width="17" height="17" viewBox="0 0 17 17" fill="none" xmlns="http://www.w3.org/2000/svg">
<g clip-path="url(#clip0_11_1595)">
<path d="M1.0623 1.1567C-0.273621 2.54433 -0.000204723 4.01837 -0.000204723 8.49645C-0.000204723 12.2152 -0.649038 15.9432 2.74671 16.8208C3.80709 17.0935 13.2024 17.0935 14.2614 16.8194C15.6752 16.4546 16.8255 15.3078 16.9828 13.3082C17.0048 13.0291 17.0048 3.96878 16.9821 3.68403C16.8149 1.55408 15.5038 0.326534 13.7762 0.0779088C13.3802 0.0205338 13.3009 0.00353384 11.2694 -7.8287e-06C4.0635 0.00353384 2.48392 -0.317341 1.0623 1.1567Z" fill="url(#paint0_linear_11_1595)"/>
<path d="M8.49861 2.22346C5.92666 2.22346 3.48432 1.99467 2.55145 4.38884C2.16611 5.37767 2.22207 6.66188 2.22207 8.50072C2.22207 10.1143 2.17036 11.6308 2.55145 12.6119C3.4822 15.0075 5.94436 14.778 8.4972 14.778C10.9601 14.778 13.4994 15.0344 14.4437 12.6119C14.8297 11.6131 14.773 10.348 14.773 8.50072C14.773 6.04847 14.9083 4.46534 13.719 3.27676C12.5149 2.07259 10.8864 2.22346 8.49578 2.22346H8.49861ZM7.9362 3.35467C13.3011 3.34617 13.9839 2.74976 13.6071 11.0351C13.4732 13.9655 11.242 13.6439 8.49932 13.6439C3.49849 13.6439 3.3547 13.5008 3.3547 8.49788C3.3547 3.43684 3.75136 3.35751 7.9362 3.35326V3.35467ZM11.849 4.39663C11.6493 4.39663 11.4578 4.47596 11.3166 4.61717C11.1754 4.75838 11.0961 4.94989 11.0961 5.14959C11.0961 5.34929 11.1754 5.5408 11.3166 5.68201C11.4578 5.82322 11.6493 5.90255 11.849 5.90255C12.0487 5.90255 12.2402 5.82322 12.3815 5.68201C12.5227 5.5408 12.602 5.34929 12.602 5.14959C12.602 4.94989 12.5227 4.75838 12.3815 4.61717C12.2402 4.47596 12.0487 4.39663 11.849 4.39663ZM8.49861 5.27709C8.07533 5.27714 7.6562 5.36055 7.26515 5.52258C6.8741 5.68461 6.5188 5.92207 6.21952 6.22141C5.61511 6.82596 5.2756 7.64585 5.2757 8.50072C5.27579 9.35558 5.61548 10.1754 6.22002 10.7798C6.82457 11.3842 7.64446 11.7237 8.49932 11.7236C9.35419 11.7235 10.174 11.3839 10.7784 10.7793C11.3828 10.1748 11.7223 9.35487 11.7222 8.50001C11.7221 7.64514 11.3825 6.82533 10.7779 6.22091C10.1734 5.6165 9.35348 5.277 8.49861 5.27709ZM8.49861 6.4083C11.2647 6.4083 11.2682 10.5931 8.49861 10.5931C5.73328 10.5931 5.72903 6.4083 8.49861 6.4083Z" fill="white"/>
</g>
<defs>
<linearGradient id="paint0_linear_11_1595" x1="1.09489" y1="15.9142" x2="16.8946" y2="2.23972" gradientUnits="userSpaceOnUse">
<stop stop-color="#FFDD55"/>
<stop offset="0.5" stop-color="#FF543E"/>
<stop offset="1" stop-color="#C837AB"/>
</linearGradient>
<clipPath id="clip0_11_1595">
<rect width="17" height="17" fill="white"/>
</clipPath>
</defs>
</svg>
