<svg xmlns="http://www.w3.org/2000/svg" viewBox="0 0 20 20"><defs><style>.cls-1{fill:#ffa801;}.cls-2{fill:#fff;}</style></defs><title>3Ресурс 1</title><g id="Слой_2" data-name="Слой 2"><g id="Слой_1-2" data-name="Слой 1"><circle class="cls-1" cx="10" cy="10" r="10"/><path class="cls-2" d="M8.25,7V6.52A.23.23,0,0,0,8,6.28a.24.24,0,0,0-.24.24V7Z"/><path class="cls-2" d="M10.25,7V6.52A.23.23,0,0,0,10,6.28a.24.24,0,0,0-.24.24V7Z"/><path class="cls-2" d="M14,8.78v-1a.71.71,0,0,0-.7-.7H12.25V8a.23.23,0,0,1-.23.23A.23.23,0,0,1,11.78,8V7H10.25V8a.23.23,0,0,1-.23.23A.23.23,0,0,1,9.78,8V7H8.25V8A.23.23,0,0,1,8,8.25.23.23,0,0,1,7.78,8V7H6.72a.7.7,0,0,0-.7.7v1Z"/><path class="cls-2" d="M12.25,7V6.52A.23.23,0,0,0,12,6.28a.24.24,0,0,0-.24.24V7Z"/><path class="cls-2" d="M6,9.25v3.67a.7.7,0,0,0,.7.7h6.6a.7.7,0,0,0,.7-.7V9.25Zm1.62,3.12H7.39a.23.23,0,1,1,0-.46h.25a.23.23,0,1,1,0,.46Zm0-1H7.39a.23.23,0,1,1,0-.46h.25a.23.23,0,1,1,0,.46Zm0-1H7.39a.23.23,0,0,1,0-.46h.25a.23.23,0,1,1,0,.46Zm1.25,2H8.64a.23.23,0,0,1,0-.46h.25a.23.23,0,1,1,0,.46Zm0-1H8.64a.23.23,0,0,1,0-.46h.25a.23.23,0,1,1,0,.46Zm0-1H8.64a.23.23,0,0,1,0-.46h.25a.23.23,0,1,1,0,.46Zm1.25,2H9.89a.23.23,0,0,1,0-.46h.25a.23.23,0,1,1,0,.46Zm0-1H9.89a.23.23,0,0,1,0-.46h.25a.23.23,0,1,1,0,.46Zm0-1H9.89a.23.23,0,0,1,0-.46h.25a.23.23,0,1,1,0,.46Zm1.25,2h-.25a.23.23,0,0,1,0-.46h.25a.23.23,0,1,1,0,.46Zm0-1h-.25a.23.23,0,0,1,0-.46h.25a.23.23,0,1,1,0,.46Zm0-1h-.25a.23.23,0,0,1,0-.46h.25a.23.23,0,1,1,0,.46Zm1.25,2h-.25a.23.23,0,0,1,0-.46h.25a.23.23,0,1,1,0,.46Zm0-1h-.25a.23.23,0,0,1,0-.46h.25a.23.23,0,1,1,0,.46Zm0-1h-.25a.23.23,0,0,1,0-.46h.25a.23.23,0,1,1,0,.46Z"/></g></g></svg>