<svg width="17" height="17" viewBox="0 0 17 17" fill="none" xmlns="http://www.w3.org/2000/svg">
<path d="M8.5 17C13.1944 17 17 13.1944 17 8.5C17 3.80558 13.1944 0 8.5 0C3.80558 0 0 3.80558 0 8.5C0 13.1944 3.80558 17 8.5 17Z" fill="#039BE5"/>
<path d="M3.88977 8.31583L12.0852 5.15595C12.4656 5.01854 12.7978 5.24874 12.6745 5.82391L12.6752 5.8232L11.2798 12.3972C11.1764 12.8633 10.8994 12.9767 10.512 12.7571L8.38697 11.191L7.36202 12.1784C7.24868 12.2917 7.15306 12.3873 6.93347 12.3873L7.08435 10.2248L11.0227 6.66683C11.1941 6.51595 10.9844 6.43095 10.7585 6.58112L5.89152 9.64537L3.79343 8.99087C3.33797 8.84637 3.32806 8.53541 3.88977 8.31583Z" fill="white"/>
</svg>
