<svg width="50" height="66" viewBox="0 0 50 66" fill="none" xmlns="http://www.w3.org/2000/svg">
<path d="M50 28.7461C50 26.4773 48.1665 24.6211 45.9256 24.6211C43.6847 24.6211 41.8513 26.4773 41.8513 28.7461C41.8513 30.5766 43.0227 32.1234 44.6524 32.6648V40.4508C44.6524 41.0566 44.3596 41.5852 43.9139 41.9074C43.2136 39.4324 40.96 37.6148 38.2862 37.6148H29.1189V34.0312H31.6654C35.7397 34.0312 39.0502 30.6797 39.0502 26.5547V22.8164C39.0502 22.1074 38.4772 21.5273 37.7769 21.5273C37.0766 21.5273 36.5037 22.1074 36.5037 22.8164V26.5547C36.5037 29.2617 34.3392 31.4531 31.6654 31.4531H18.4237C15.7499 31.4531 13.5854 29.2617 13.5854 26.5547V7.47656C13.5854 4.76953 15.7499 2.57812 18.4237 2.57812H31.6654C34.3392 2.57812 36.5037 4.76953 36.5037 7.47656V11.2148C36.5037 11.9238 37.0766 12.5039 37.7769 12.5039C38.4772 12.5039 39.0502 11.9238 39.0502 11.2148V7.47656C39.0502 3.35156 35.7397 0 31.6654 0H18.4237C14.3494 0 11.039 3.35156 11.039 7.47656V26.5547C11.039 30.6797 14.3494 34.0312 18.4237 34.0312H20.9702V37.6148H11.8029C9.11637 37.6148 6.85001 39.4582 6.16247 41.959C5.67864 41.6367 5.36033 41.0824 5.36033 40.4508V32.6648C6.99007 32.1234 8.16145 30.5766 8.16145 28.7461C8.16145 26.4773 6.32799 24.6211 4.08709 24.6211C1.84619 24.6211 0 26.4645 0 28.7461C0 30.5766 1.17138 32.1234 2.80112 32.6648V40.4508C2.80112 42.4875 4.18895 44.2148 6.04787 44.6918C6.58263 47.4117 8.95085 49.4742 11.7902 49.4742H20.9575V52.5551H16.934C13.7764 52.5551 11.1408 54.8883 10.6188 57.9305C8.93812 58.4461 7.71581 60.0187 7.71581 61.875C7.71581 64.1438 9.54927 66 11.7902 66C14.0311 66 15.8645 64.1438 15.8645 61.875C15.8645 60.0961 14.7568 58.5879 13.2035 58.0078C13.6491 56.3449 15.1515 55.1203 16.934 55.1203H23.7586V57.9562C22.1289 58.4977 20.9575 60.0445 20.9575 61.875C20.9575 64.1438 22.7909 66 25.0318 66C27.2727 66 29.1062 64.1438 29.1062 61.875C29.1062 60.0445 27.9348 58.4977 26.3051 57.9562V55.1203H33.1296C34.9121 55.1203 36.4146 56.3449 36.8602 58.0078C35.3069 58.5879 34.1991 60.109 34.1991 61.875C34.1991 64.1438 36.0326 66 38.2735 66C40.5144 66 42.3479 64.1438 42.3479 61.875C42.3479 60.0187 41.1255 58.4332 39.4449 57.9305C38.9228 54.8754 36.2872 52.5551 33.1296 52.5551H29.1062V49.4742H38.2735C41.1255 49.4742 43.5065 47.3988 44.0285 44.666C45.8492 44.1504 47.1861 42.4488 47.1861 40.4508V32.6648C48.8159 32.1105 50 30.5637 50 28.7461ZM4.07436 27.1992C4.91469 27.1992 5.60224 27.8953 5.60224 28.7461C5.60224 29.5969 4.91469 30.293 4.07436 30.293C3.23402 30.293 2.54647 29.5969 2.54647 28.7461C2.54647 27.8953 3.23402 27.1992 4.07436 27.1992ZM11.8029 63.4219C10.9626 63.4219 10.275 62.7258 10.275 61.875C10.275 61.0242 10.9626 60.3281 11.8029 60.3281C12.6432 60.3281 13.3308 61.0242 13.3308 61.875C13.3308 62.7258 12.6432 63.4219 11.8029 63.4219ZM25.0446 63.4219C24.2042 63.4219 23.5167 62.7258 23.5167 61.875C23.5167 61.0242 24.2042 60.3281 25.0446 60.3281C25.8849 60.3281 26.5724 61.0242 26.5724 61.875C26.5724 62.7258 25.8849 63.4219 25.0446 63.4219ZM38.2862 63.4219C37.4459 63.4219 36.7583 62.7258 36.7583 61.875C36.7583 61.0242 37.4459 60.3281 38.2862 60.3281C39.1266 60.3281 39.8141 61.0242 39.8141 61.875C39.8141 62.7258 39.1266 63.4219 38.2862 63.4219ZM23.5167 34.0312H26.5724V37.6148H23.5167V34.0312ZM26.5724 52.5422H23.5167V49.4613H26.5724V52.5422ZM38.2862 46.8832H11.8029C9.98217 46.8832 8.49249 45.375 8.49249 43.5316C8.49249 41.6883 9.98217 40.1801 11.8029 40.1801H38.2862C40.107 40.1801 41.5966 41.6883 41.5966 43.5316C41.5966 45.375 40.107 46.8832 38.2862 46.8832ZM45.9256 30.293C45.0853 30.293 44.3978 29.5969 44.3978 28.7461C44.3978 27.8953 45.0853 27.1992 45.9256 27.1992C46.766 27.1992 47.4535 27.8953 47.4535 28.7461C47.4535 29.5969 46.766 30.293 45.9256 30.293Z" fill="#FFA801"/>
</svg>
