<svg width="65" height="50" viewBox="0 0 65 50" fill="none" xmlns="http://www.w3.org/2000/svg">
<path d="M64.5938 16.99L62.9053 14.0785C62.5498 13.4735 61.7754 13.2718 61.166 13.6121C60.5566 13.9651 60.3535 14.7339 60.6963 15.3389L62.3848 18.2504C62.4736 18.4017 62.4482 18.5529 62.4355 18.6285C62.4102 18.7042 62.3594 18.8428 62.207 18.931L57.7256 21.5022C57.4844 21.6409 57.1797 21.5527 57.0527 21.3258L48.0518 5.82288C47.9121 5.58341 48.001 5.28091 48.2295 5.15487L52.7109 2.58366C52.9521 2.44501 53.2568 2.53324 53.3838 2.76011L54.9834 5.50778C55.3389 6.11277 56.1133 6.31444 56.7227 5.97413C57.332 5.62122 57.5352 4.85238 57.1924 4.24738L55.5928 1.49972C54.7549 0.0628624 52.9014 -0.428693 51.4414 0.40317L46.96 2.97438C46.2744 3.36511 45.8047 3.9827 45.5889 4.66332H32.8936C31.1162 4.66332 29.4404 5.35653 28.1709 6.60433L26.876 7.88994C25.7334 7.62525 24.5654 7.48661 23.3975 7.48661H19.4619C19.2588 6.73037 18.7764 6.04975 18.04 5.63382L13.5586 3.06261C12.8604 2.65928 12.0352 2.55845 11.2607 2.76011C10.4736 2.97438 9.82617 3.46594 9.41992 4.15916L0.40625 19.6494C0 20.3427 -0.101562 21.1619 0.101562 21.9308C0.317383 22.7122 0.8125 23.355 1.51074 23.7583L5.99219 26.3422C6.47461 26.6195 6.99512 26.7455 7.50293 26.7455C7.69336 26.7455 7.87109 26.7329 8.06152 26.6951L11.7305 30.3376C11.6797 30.6275 11.6416 30.9174 11.6416 31.2199C11.6416 32.4299 12.1113 33.5642 12.9746 34.4213C13.7998 35.2406 14.8662 35.6817 15.9453 35.7447C15.9326 35.9086 15.9199 36.0598 15.9199 36.2237C15.9199 37.4337 16.3896 38.568 17.2529 39.4251C18.1162 40.2822 19.2588 40.7485 20.4775 40.7485C20.5156 40.7485 20.541 40.7485 20.5791 40.7485C20.5791 40.7863 20.5791 40.8115 20.5791 40.8493C20.5791 42.0593 21.0488 43.1937 21.9121 44.0508C22.7754 44.9078 23.918 45.3742 25.1367 45.3742C25.1748 45.3742 25.2002 45.3742 25.2383 45.3742C25.2383 45.412 25.2383 45.4372 25.2383 45.475C25.2383 46.685 25.708 47.8194 26.5713 48.6764C27.4346 49.5335 28.5771 49.9998 29.7959 49.9998C31.0146 49.9998 32.1572 49.5335 33.0205 48.6764L34.8232 46.8867C35.3564 46.3573 35.7246 45.7397 35.9404 45.0717C36.7402 45.6641 37.6924 45.954 38.6445 45.954C39.8125 45.954 40.9805 45.5128 41.8691 44.6305C42.4023 44.1012 42.7832 43.471 42.999 42.7652C43.7354 43.2441 44.5986 43.4962 45.4873 43.4962C46.7061 43.4962 47.8486 43.0298 48.7119 42.1728C49.3467 41.5426 49.7783 40.7485 49.9561 39.8788C50.4131 40.0301 50.8955 40.1057 51.3906 40.1057C52.6094 40.1057 53.752 39.6394 54.6152 38.7823C56.3926 37.0177 56.3926 34.144 54.6152 32.3669L51.6572 29.4301L57.0654 24.0608C57.1797 24.0734 57.3066 24.0861 57.4336 24.0861C57.9541 24.0861 58.4746 23.96 58.9443 23.6827L63.4258 21.1115C64.124 20.7082 64.6318 20.0654 64.835 19.2839C65.1016 18.5025 65 17.6958 64.5938 16.99ZM2.79297 21.5905C2.64062 21.5022 2.57715 21.3636 2.56445 21.288C2.53906 21.2123 2.52637 21.0737 2.61523 20.9098L11.6162 5.43216C11.7051 5.28091 11.8447 5.21789 11.9209 5.20529C11.9463 5.19268 11.9971 5.19268 12.0479 5.19268C12.124 5.19268 12.2002 5.20529 12.2891 5.2557L16.7705 7.81431C17.0117 7.95296 17.0879 8.25545 16.9482 8.48232L7.94727 23.9726C7.80762 24.2121 7.50293 24.2877 7.27441 24.1491L2.79297 21.5905ZM14.1807 31.2073C14.1807 30.6653 14.3965 30.1612 14.7773 29.7831L15.8691 28.6991C16.2627 28.3084 16.7832 28.1067 17.3037 28.1067C17.8242 28.1067 18.3447 28.3084 18.7383 28.6991C19.1191 29.0772 19.335 29.5814 19.335 30.1234C19.335 30.6653 19.1191 31.1695 18.7383 31.5476L17.6465 32.6316C16.8594 33.413 15.5645 33.413 14.7773 32.6316C14.3965 32.2534 14.1807 31.7367 14.1807 31.2073ZM20.5029 38.2151C19.957 38.2151 19.4492 38.0009 19.0684 37.6227C18.6875 37.2446 18.4717 36.7405 18.4717 36.1985C18.4717 35.6565 18.6875 35.1523 19.0684 34.7742L20.8711 32.9845C21.2646 32.5937 21.7852 32.3921 22.3057 32.3921C22.8262 32.3921 23.3467 32.5937 23.7402 32.9845C24.1211 33.3626 24.3369 33.8667 24.3369 34.4087C24.3369 34.9507 24.1211 35.4548 23.7402 35.833L21.9375 37.6227C21.5439 38.0135 21.0361 38.2151 20.5029 38.2151ZM25.1621 42.8534C24.6162 42.8534 24.1084 42.6391 23.7275 42.261C23.3467 41.8829 23.1309 41.3787 23.1309 40.8367C23.1309 40.2948 23.3467 39.7906 23.7275 39.4125L25.5303 37.6227C25.9238 37.232 26.4443 37.0303 26.9648 37.0303C27.4854 37.0303 28.0059 37.232 28.3994 37.6227C28.7803 38.0009 28.9961 38.505 28.9961 39.047C28.9961 39.589 28.7803 40.0931 28.3994 40.4712L26.5967 42.261C26.2158 42.6391 25.708 42.8534 25.1621 42.8534ZM33.0713 45.0969L31.2559 46.8867C30.875 47.2648 30.3672 47.479 29.8213 47.479C29.2754 47.479 28.7676 47.2648 28.3867 46.8867C28.0059 46.5085 27.79 46.0044 27.79 45.4624C27.79 44.9204 28.0059 44.4163 28.3867 44.0382L30.1895 42.2484C30.583 41.8577 31.1035 41.656 31.624 41.656C32.1445 41.656 32.665 41.8577 33.0586 42.2484C33.8584 43.0298 33.8584 44.3154 33.0713 45.0969ZM52.8887 36.9925C52.5078 37.3707 52 37.5849 51.4541 37.5849C50.9082 37.5849 50.4004 37.3707 50.0195 36.9925L37.9082 24.9683C37.4131 24.4768 36.6133 24.4768 36.1182 24.9683C35.623 25.4599 35.623 26.2539 36.1182 26.7455L46.9854 37.5345C47.3662 37.9126 47.582 38.4168 47.582 38.9588C47.582 39.5007 47.3662 40.0049 46.9854 40.383C46.6045 40.7611 46.0967 40.9754 45.5508 40.9754C45.0049 40.9754 44.4971 40.7611 44.1162 40.383L31.0527 27.4261C30.5576 26.9346 29.7578 26.9346 29.2627 27.4261C28.7676 27.9177 28.7676 28.7117 29.2627 29.2033L40.1299 39.9923C40.5107 40.3704 40.7266 40.8746 40.7266 41.4165C40.7266 41.9585 40.5107 42.4627 40.1299 42.8408C39.3428 43.6222 38.0479 43.6222 37.2607 42.8408L34.874 40.4712C34.874 40.4712 34.8613 40.4712 34.8613 40.4586C33.9473 39.5511 32.7412 39.1226 31.5479 39.1478C31.5479 39.11 31.5479 39.0848 31.5479 39.047C31.5479 37.837 31.0781 36.7026 30.2148 35.8456C29.3008 34.9381 28.0947 34.4969 26.8887 34.5221C26.8887 34.4843 26.8887 34.4591 26.8887 34.4213C26.8887 33.2113 26.4189 32.077 25.5557 31.2199C24.5527 30.2242 23.1943 29.7957 21.8867 29.9091C21.8359 28.7747 21.3662 27.716 20.5537 26.9219C18.7764 25.1574 15.8818 25.1574 14.0918 26.9219L13 28.0059L10.1562 25.2078L18.9922 10.0074H23.3975C23.8291 10.0074 24.2607 10.0326 24.6924 10.0704L23.2324 11.5199C22.3691 12.377 21.8994 13.5113 21.8994 14.7213C21.8994 15.9313 22.3691 17.0656 23.2324 17.9227C24.1211 18.805 25.2891 19.2461 26.457 19.2461C27.625 19.2461 28.793 18.805 29.6816 17.9227L33.1094 14.5196L52.876 34.144C53.6758 34.9381 53.6758 36.2111 52.8887 36.9925ZM40.6885 18.4773C42.542 17.1539 43.6719 15.0112 43.6719 12.6794C43.6719 11.9862 43.1006 11.419 42.4023 11.419C41.7041 11.419 41.1328 11.9862 41.1328 12.6794C41.1328 14.3306 40.2568 15.8304 38.8604 16.6623L34.0234 11.8602C33.5283 11.3686 32.7285 11.356 32.2334 11.8476L27.9043 16.1455C27.1172 16.927 25.8223 16.927 25.0352 16.1455C24.6543 15.7674 24.4385 15.2633 24.4385 14.7213C24.4385 14.1793 24.6543 13.6752 25.0352 13.297L29.9863 8.38149C30.7607 7.61265 31.8018 7.18411 32.9062 7.18411H45.9189L54.8691 22.5736C54.8945 22.6114 54.9072 22.6492 54.9326 22.6744L49.9307 27.6404L40.6885 18.4773Z" fill="#FFA801"/>
</svg>
