<svg width="10" height="8" viewBox="0 0 10 8" fill="none" xmlns="http://www.w3.org/2000/svg">
<path d="M0.563008 3.24345L0.546748 3.24737H7.23781L5.13415 1.21752C5.03049 1.11769 4.97561 0.984585 4.97561 0.84365C4.97561 0.702716 5.03252 0.569611 5.13415 0.469782L5.46138 0.154637C5.56504 0.0548079 5.70122 0 5.84756 0C5.9939 0 6.13211 0.0548079 6.23374 0.152679L9.84146 3.62515C9.94309 3.72498 10 3.85809 10 3.99902C10 4.13996 9.94309 4.27306 9.84146 4.37289L6.23577 7.84536C6.13211 7.94519 5.99593 7.99804 5.84959 7.99804C5.70325 7.99804 5.56707 7.94323 5.46341 7.84536L5.13618 7.53022C5.03252 7.43039 4.97764 7.29924 4.97764 7.15831C4.97764 7.01737 5.03455 6.8921 5.13618 6.79227L7.2622 4.75067H0.554878C0.254066 4.75067 0 4.50012 0 4.21042V3.76413C0 3.47443 0.260163 3.24345 0.563008 3.24345Z" fill="#FFA801"/>
</svg>
