<svg width="32" height="28" viewBox="0 0 32 28" fill="none" xmlns="http://www.w3.org/2000/svg">
<path d="M28.6825 2.38176H26.6736V0.818474C26.6736 0.368313 26.2985 0 25.8401 0C25.3816 0 25.0065 0.368313 25.0065 0.818474V2.38176H16.8377V0.818474C16.8377 0.368313 16.4626 0 16.0042 0C15.5457 0 15.1706 0.368313 15.1706 0.818474V2.38176H6.91847V0.818474C6.91847 0.368313 6.54337 0 6.08492 0C5.62647 0 5.25137 0.368313 5.25137 0.818474V2.38176H3.32587C1.49206 2.38176 0 3.89594 0 5.69658V24.7261C0 26.5349 1.48372 28 3.32587 28H28.6741C30.5163 28 32 26.5349 32 24.7343V5.69658C32.0083 3.89594 30.5163 2.38176 28.6825 2.38176ZM30.3412 24.7261C30.3412 25.6264 29.6077 26.3549 28.6908 26.3631H28.6825H3.32587C2.40896 26.3631 1.6671 25.6346 1.6671 24.7343V24.7261V5.69658C1.6671 4.78807 2.40896 4.01871 3.32587 4.01871H5.25137V5.2055C5.25137 5.65566 5.62647 6.02397 6.08492 6.02397C6.54337 6.02397 6.91847 5.65566 6.91847 5.2055V4.01871H15.1706V5.2055C15.1706 5.65566 15.5457 6.02397 16.0042 6.02397C16.4626 6.02397 16.8377 5.65566 16.8377 5.2055V4.01871H25.0065V5.2055C25.0065 5.65566 25.3816 6.02397 25.8401 6.02397C26.2985 6.02397 26.6736 5.65566 26.6736 5.2055V4.01871H28.6825C29.6077 4.01871 30.3412 4.79626 30.3412 5.69658V24.7261Z" fill="#FFA801"/>
<path d="M13.8118 9.33875H12.3531C11.8946 9.33875 11.5195 9.70706 11.5195 10.1572C11.5195 10.6074 11.8946 10.9757 12.3531 10.9757H13.8118C14.2702 10.9757 14.6453 10.6074 14.6453 10.1572C14.6453 9.70706 14.2702 9.33875 13.8118 9.33875Z" fill="#FFA801"/>
<path d="M19.6135 9.33875H18.1548C17.6964 9.33875 17.3213 9.70706 17.3213 10.1572C17.3213 10.6074 17.6964 10.9757 18.1548 10.9757H19.6135C20.072 10.9757 20.4471 10.6074 20.4471 10.1572C20.4471 9.70706 20.0803 9.33875 19.6135 9.33875Z" fill="#FFA801"/>
<path d="M25.4651 9.33875H24.0064C23.5479 9.33875 23.1729 9.70706 23.1729 10.1572C23.1729 10.6074 23.5479 10.9757 24.0064 10.9757H25.4651C25.9236 10.9757 26.2987 10.6074 26.2987 10.1572C26.2987 9.70706 25.9236 9.33875 25.4651 9.33875Z" fill="#FFA801"/>
<path d="M13.8118 14.9862H12.3531C11.8946 14.9862 11.5195 15.3545 11.5195 15.8047C11.5195 16.2548 11.8946 16.6232 12.3531 16.6232H13.8118C14.2702 16.6232 14.6453 16.2548 14.6453 15.8047C14.6453 15.3545 14.2702 14.9862 13.8118 14.9862Z" fill="#FFA801"/>
<path d="M7.96857 14.9862H6.50152C6.04307 14.9862 5.66797 15.3545 5.66797 15.8047C5.66797 16.2548 6.04307 16.6232 6.50152 16.6232H7.96023C8.41869 16.6232 8.79378 16.2548 8.79378 15.8047C8.79378 15.3545 8.42702 14.9862 7.96857 14.9862Z" fill="#FFA801"/>
<path d="M19.6135 14.9862H18.1548C17.6964 14.9862 17.3213 15.3545 17.3213 15.8047C17.3213 16.2548 17.6964 16.6232 18.1548 16.6232H19.6135C20.072 16.6232 20.4471 16.2548 20.4471 15.8047C20.4471 15.3545 20.0803 14.9862 19.6135 14.9862Z" fill="#FFA801"/>
<path d="M25.4651 14.9862H24.0064C23.5479 14.9862 23.1729 15.3545 23.1729 15.8047C23.1729 16.2548 23.5479 16.6232 24.0064 16.6232H25.4651C25.9236 16.6232 26.2987 16.2548 26.2987 15.8047C26.2987 15.3545 25.9236 14.9862 25.4651 14.9862Z" fill="#FFA801"/>
<path d="M13.8118 20.5519H12.3531C11.8946 20.5519 11.5195 20.9202 11.5195 21.3704C11.5195 21.8205 11.8946 22.1888 12.3531 22.1888H13.8118C14.2702 22.1888 14.6453 21.8205 14.6453 21.3704C14.6453 20.9202 14.2702 20.5519 13.8118 20.5519Z" fill="#FFA801"/>
<path d="M7.96857 20.5519H6.50152C6.04307 20.5519 5.66797 20.9202 5.66797 21.3704C5.66797 21.8205 6.04307 22.1888 6.50152 22.1888H7.96023C8.41869 22.1888 8.79378 21.8205 8.79378 21.3704C8.79378 20.9202 8.42702 20.5519 7.96857 20.5519Z" fill="#FFA801"/>
<path d="M19.6135 20.5519H18.1548C17.6964 20.5519 17.3213 20.9202 17.3213 21.3704C17.3213 21.8205 17.6964 22.1888 18.1548 22.1888H19.6135C20.072 22.1888 20.4471 21.8205 20.4471 21.3704C20.4471 20.9202 20.0803 20.5519 19.6135 20.5519Z" fill="#FFA801"/>
</svg>
