<svg width="24" height="24" viewBox="0 0 24 24" fill="none" xmlns="http://www.w3.org/2000/svg">
<path d="M24 12C24 5.37188 18.6281 0 12 0C5.37188 0 0 5.37188 0 12C0 18.6281 5.37188 24 12 24C18.6281 24 24 18.6281 24 12ZM1.43438 12.7078H3.70312C3.85313 14.475 4.55625 16.0875 5.63906 17.3672L4.03594 18.9703C2.54531 17.2688 1.59375 15.0938 1.43438 12.7078ZM4.03594 5.03438L5.63906 6.6375C4.55625 7.91719 3.85313 9.52969 3.70312 11.2969H1.43438C1.59375 8.90625 2.54531 6.73125 4.03594 5.03438ZM22.5656 11.2922H20.2969C20.1469 9.525 19.4438 7.9125 18.3609 6.63281L19.9641 5.02969C21.4547 6.73125 22.4062 8.90625 22.5656 11.2922ZM12 18.9188C8.18437 18.9188 5.08125 15.8156 5.08125 12C5.08125 8.18437 8.18437 5.08125 12 5.08125C15.8156 5.08125 18.9188 8.18437 18.9188 12C18.9188 15.8156 15.8156 18.9188 12 18.9188ZM17.3672 5.63437C16.0875 4.55156 14.475 3.84844 12.7078 3.69844V1.43438C15.0984 1.59375 17.2734 2.54531 18.9703 4.03125L17.3672 5.63437ZM11.2922 3.70312C9.525 3.85313 7.9125 4.55625 6.63281 5.63906L5.02969 4.03594C6.73125 2.54531 8.90625 1.59375 11.2922 1.43438V3.70312ZM6.63281 18.3656C7.9125 19.4484 9.525 20.1516 11.2922 20.3016V22.5656C8.90156 22.4062 6.72656 21.4547 5.02969 19.9688L6.63281 18.3656ZM12.7078 20.2969C14.475 20.1469 16.0875 19.4438 17.3672 18.3609L18.9703 19.9641C17.2734 21.45 15.0984 22.4062 12.7078 22.5609V20.2969ZM18.3656 17.3672C19.4484 16.0875 20.1516 14.475 20.3016 12.7078H22.5656C22.4062 15.0984 21.4547 17.2734 19.9688 18.9703L18.3656 17.3672Z" fill="#FFA801"/>
<path d="M12.8199 11.2923H11.1746C10.748 11.2923 10.4058 10.9454 10.4058 10.5235C10.4058 10.1017 10.7433 9.7548 11.184 9.7548L12.7636 9.76417C13.1433 9.76886 13.4949 9.96105 13.6965 10.2798L13.7058 10.2939C13.9168 10.622 14.3527 10.7204 14.6808 10.5095C15.009 10.2985 15.1074 9.86261 14.8964 9.53448L14.8871 9.52042C14.4465 8.83136 13.6965 8.36261 12.7074 8.35323V7.6173C12.7074 7.22824 12.3933 6.90948 11.9996 6.90948C11.6105 6.90948 11.2918 7.22355 11.2918 7.6173V8.34386C9.86209 8.33448 8.9949 9.39855 8.9949 10.5235C8.9949 11.7282 9.97459 12.7079 11.1793 12.7079H12.8246C13.2511 12.7079 13.5933 13.0548 13.5933 13.4767C13.5933 13.8985 13.2558 14.2501 12.8152 14.2454L11.0949 14.2314C10.7668 14.2267 10.4527 14.0814 10.2418 13.8282C9.99334 13.5282 9.54803 13.486 9.24803 13.7392C8.94803 13.9876 8.90584 14.4329 9.15897 14.7329C9.63709 15.3048 10.3402 15.6376 11.0855 15.6423H11.2965V16.3782C11.2965 16.7673 11.6105 17.086 12.0043 17.086C12.3933 17.086 12.7121 16.772 12.7121 16.3782V15.6564C14.123 15.6657 15.009 14.6204 15.009 13.4767C15.0043 12.272 14.0246 11.2923 12.8199 11.2923Z" fill="#FFA801"/>
</svg>
