<svg width="18" height="28" viewBox="0 0 18 28" fill="none" xmlns="http://www.w3.org/2000/svg">
<path d="M17.0154 1.40247H10.3985V0.483068C10.3985 0.333005 10.3337 0.191419 10.2232 0.100036C10.1126 0.00859885 9.96896 -0.022409 9.83433 0.0163645L0.869106 2.591C0.672735 2.64738 0.536133 2.8389 0.536133 3.05775V4.61804C0.536133 4.88481 0.736922 5.1011 0.984684 5.1011C1.23245 5.1011 1.43323 4.88481 1.43323 4.61804V3.42892L9.50136 1.11186V26.9277L1.43323 25.19V6.2462C1.43323 5.97943 1.23245 5.76315 0.984684 5.76315C0.736922 5.76315 0.536133 5.97943 0.536133 6.2462V25.586C0.536133 25.8163 0.687004 26.0145 0.896731 26.0596L9.86196 27.9907C9.89116 27.997 9.92056 28.0001 9.94991 28.0001C10.0527 28.0001 10.1534 27.962 10.2343 27.8906C10.3382 27.7988 10.3985 27.6617 10.3985 27.517V26.5977H14.5323C14.7801 26.5977 14.9809 26.3814 14.9809 26.1147C14.9809 25.8479 14.7801 25.6316 14.5323 25.6316H10.3985V24.2533H14.8383C15.0861 24.2533 15.2869 24.037 15.2869 23.7703V4.22998C15.2869 3.96322 15.0861 3.74693 14.8383 3.74693H10.3985V2.36858H16.5668V25.6314H15.9268C15.679 25.6314 15.4783 25.8477 15.4783 26.1144C15.4783 26.3812 15.6791 26.5975 15.9268 26.5975H17.0153C17.2631 26.5975 17.4639 26.3812 17.4639 26.1144V1.88553C17.464 1.61876 17.2631 1.40247 17.0154 1.40247ZM14.3898 4.71304V23.287H10.3986V4.71304H14.3898Z" fill="#FFA801"/>
</svg>
