<svg width="24" height="24" viewBox="0 0 24 24" fill="none" xmlns="http://www.w3.org/2000/svg">
<g clip-path="url(#clip0)">
<path d="M18.5625 17.4375C18.3047 17.4375 18.0938 17.6484 18.0938 17.9062C18.0938 18.1641 18.3047 18.375 18.5625 18.375C18.8203 18.375 19.0312 18.1641 19.0312 17.9062C19.0312 17.6484 18.8203 17.4375 18.5625 17.4375Z" fill="#FFA801"/>
<path d="M23.8078 8.52573L20.9062 6.4023V1.40542C20.9062 1.14761 20.6953 0.93667 20.4375 0.93667H16.6875C16.4297 0.93667 16.2188 1.14761 16.2188 1.40542V2.97573L12.2766 0.0882324C12.1125 -0.0336426 11.8875 -0.0336426 11.7234 0.0882324L0.192187 8.52573C0.0703125 8.61479 0 8.75542 0 8.90542V12.6554C0 12.9132 0.210938 13.1242 0.46875 13.1242H3.09375V23.5304C3.09375 23.7882 3.30469 23.9992 3.5625 23.9992H20.4375C20.6953 23.9992 20.9062 23.7882 20.9062 23.5304V13.1242H23.5312C23.7891 13.1242 24 12.9132 24 12.6554V8.90542C24 8.75542 23.9297 8.61479 23.8078 8.52573ZM17.1562 1.87417H19.9688V5.71792L17.1562 3.66011V1.87417ZM15.2812 23.0617H8.71875V14.6242H15.2812V23.0617ZM19.9688 23.0617H16.2188V14.1554C16.2188 13.8976 16.0078 13.6867 15.75 13.6867H8.25C7.99219 13.6867 7.78125 13.8976 7.78125 14.1554V23.0617H4.03125V10.546L12 4.56948L19.9688 10.546V23.0617ZM23.0625 12.1867H20.9062V10.3117C20.9062 10.1664 20.8359 10.0257 20.7188 9.93667L12.2812 3.60855C12.1125 3.48198 11.8875 3.48198 11.7188 3.60855L3.28125 9.93667C3.16406 10.0257 3.09375 10.1664 3.09375 10.3117V12.1867H0.9375V9.14448L12 1.04917C12.9609 1.75229 22.6781 8.86323 23.0625 9.14448V12.1867Z" fill="#FFA801"/>
<path d="M12 7.5C10.9641 7.5 10.125 8.33906 10.125 9.375C10.125 10.4109 10.9641 11.25 12 11.25C13.0359 11.25 13.875 10.4109 13.875 9.375C13.875 8.33906 13.0359 7.5 12 7.5ZM12 10.3125C11.4844 10.3125 11.0625 9.89062 11.0625 9.375C11.0625 8.85938 11.4844 8.4375 12 8.4375C12.5156 8.4375 12.9375 8.85938 12.9375 9.375C12.9375 9.89062 12.5156 10.3125 12 10.3125Z" fill="#FFA801"/>
<path d="M12.0467 20.2172C11.8452 20.2172 11.6296 20.0906 11.4374 19.8609C11.2686 19.6641 10.9733 19.6359 10.7764 19.8047C10.5796 19.9734 10.5514 20.2687 10.7202 20.4656C10.9686 20.7656 11.2639 20.9719 11.578 21.075V21.6234C11.578 21.8812 11.7889 22.0922 12.0467 22.0922C12.3046 22.0922 12.5155 21.8812 12.5155 21.6234V21.075C13.0593 20.8828 13.453 20.3625 13.453 19.7484C13.453 18.975 12.8202 18.3422 12.0467 18.3422C11.7889 18.3422 11.578 18.1312 11.578 17.8734C11.578 17.6156 11.7889 17.4047 12.0467 17.4047C12.2108 17.4047 12.3889 17.4891 12.553 17.6484C12.7405 17.8266 13.0358 17.8219 13.2139 17.639C13.3921 17.4515 13.3874 17.1562 13.2046 16.9781C12.9655 16.7484 12.7264 16.6172 12.5155 16.5469V16.0031C12.5155 15.7453 12.3046 15.5344 12.0467 15.5344C11.7889 15.5344 11.578 15.7453 11.578 16.0031V16.5469C11.0342 16.7391 10.6405 17.2594 10.6405 17.8734C10.6405 18.6469 11.2733 19.2797 12.0467 19.2797C12.3046 19.2797 12.5155 19.4906 12.5155 19.7484C12.5155 20.0062 12.3046 20.2172 12.0467 20.2172Z" fill="#FFA801"/>
<path d="M18.5625 19.3125C18.3047 19.3125 18.0938 19.5234 18.0938 19.7812V21.6562C18.0938 21.9141 18.3047 22.125 18.5625 22.125C18.8203 22.125 19.0312 21.9141 19.0312 21.6562V19.7812C19.0312 19.5234 18.8203 19.3125 18.5625 19.3125Z" fill="#FFA801"/>
</g>
<defs>
<clipPath id="clip0">
<rect width="24" height="24" fill="white"/>
</clipPath>
</defs>
</svg>
