<svg width="53" height="53" viewBox="0 0 53 53" fill="none" xmlns="http://www.w3.org/2000/svg">
<path d="M41.9096 32.8314C40.823 31.7016 39.5122 31.0975 38.1231 31.0975C36.7452 31.0975 35.4233 31.6904 34.2918 32.8202L30.7517 36.3438C30.4605 36.1872 30.1692 36.0418 29.8891 35.8964C29.4858 35.695 29.1049 35.5049 28.7801 35.3035C25.4641 33.2005 22.4505 30.4599 19.5602 26.9139C18.1599 25.1465 17.2189 23.6587 16.5355 22.1486C17.4541 21.3097 18.3055 20.4371 19.1345 19.5982C19.4482 19.285 19.7619 18.9606 20.0756 18.6473C22.4281 16.2983 22.4281 13.2556 20.0756 10.9065L17.0172 7.85271C16.6699 7.50594 16.3114 7.14798 15.9754 6.79002C15.3032 6.09648 14.5974 5.38057 13.8693 4.7094C12.7826 3.63553 11.4831 3.06503 10.1164 3.06503C8.74962 3.06503 7.4277 3.63553 6.30743 4.7094C6.29623 4.72058 6.29623 4.72058 6.28503 4.73177L2.47611 8.56862C1.04216 10.0004 0.224364 11.7455 0.0451209 13.7702C-0.223744 17.0365 0.739689 20.0792 1.47907 22.0703C3.29391 26.9587 6.00496 31.4891 10.0491 36.3438C14.9559 42.1942 20.8597 46.8141 27.6038 50.0693C30.1804 51.2885 33.6196 52.7316 37.4622 52.9777C37.6974 52.9888 37.9439 53 38.1679 53C40.7558 53 42.9291 52.0716 44.6319 50.2259C44.6431 50.2035 44.6655 50.1923 44.6767 50.1699C45.2592 49.4652 45.9314 48.8276 46.6372 48.1452C47.1189 47.6866 47.6118 47.2056 48.0935 46.7022C49.2026 45.55 49.7851 44.2077 49.7851 42.8318C49.7851 41.4447 49.1914 40.1136 48.0599 38.995L41.9096 32.8314ZM45.9202 44.6104C45.909 44.6104 45.909 44.6216 45.9202 44.6104C45.4833 45.0802 45.0352 45.5053 44.5535 45.9751C43.8253 46.6687 43.0859 47.3958 42.3913 48.2124C41.2599 49.4205 39.9267 49.991 38.1791 49.991C38.0111 49.991 37.8318 49.991 37.6638 49.9798C34.3366 49.7672 31.2447 48.4696 28.9257 47.3622C22.585 44.2972 17.0172 39.9458 12.3905 34.431C8.57038 29.8335 6.01616 25.5828 4.32455 21.0188C3.2827 18.2335 2.90181 16.0633 3.06985 14.0163C3.18188 12.7075 3.686 11.6224 4.61582 10.694L8.43595 6.87951C8.98488 6.36495 9.56742 6.08529 10.1388 6.08529C10.8445 6.08529 11.4159 6.51037 11.7744 6.86833C11.7856 6.87951 11.7968 6.8907 11.808 6.90188C12.4913 7.5395 13.1411 8.19948 13.8244 8.90421C14.1717 9.26216 14.5302 9.62012 14.8887 9.98926L17.947 13.0431C19.1345 14.2288 19.1345 15.3251 17.947 16.5108C17.6222 16.8352 17.3085 17.1596 16.9836 17.4728C16.0426 18.4348 15.1464 19.3297 14.1717 20.2022C14.1493 20.2246 14.1269 20.2358 14.1157 20.2582C13.1523 21.2202 13.3315 22.1598 13.5332 22.7974C13.5444 22.831 13.5556 22.8645 13.5668 22.8981C14.3622 24.8221 15.4824 26.6343 17.1853 28.7932L17.1965 28.8044C20.2884 32.6077 23.5484 35.572 27.1445 37.8428C27.6038 38.1336 28.0743 38.3685 28.5224 38.5923C28.9257 38.7936 29.3066 38.9838 29.6315 39.1851C29.6763 39.2075 29.7211 39.2411 29.7659 39.2634C30.1468 39.4536 30.5053 39.5431 30.875 39.5431C31.8048 39.5431 32.3873 38.9614 32.5778 38.7712L36.4091 34.9456C36.79 34.5652 37.3949 34.1066 38.1007 34.1066C38.7953 34.1066 39.3666 34.5429 39.7139 34.9232C39.7251 34.9344 39.7251 34.9344 39.7363 34.9456L45.909 41.1091C47.0629 42.2501 47.0629 43.4247 45.9202 44.6104Z" fill="#FFA801"/>
<path d="M28.6453 12.6068C31.5804 13.099 34.2466 14.4861 36.3751 16.6115C38.5036 18.7368 39.8816 21.3991 40.3857 24.3299C40.5089 25.0682 41.1475 25.5828 41.8756 25.5828C41.9653 25.5828 42.0437 25.5716 42.1333 25.5604C42.9623 25.4262 43.5112 24.6431 43.3768 23.8153C42.7719 20.2693 41.0915 17.0365 38.526 14.4749C35.9606 11.9133 32.723 10.2354 29.1718 9.6313C28.3428 9.49707 27.5698 10.0452 27.4242 10.8618C27.2785 11.6784 27.8163 12.4726 28.6453 12.6068Z" fill="#FFA801"/>
<path d="M52.978 23.3791C51.981 17.5399 49.2251 12.2265 44.9905 7.99811C40.7558 3.76974 35.4346 1.01795 29.5867 0.0223819C28.7689 -0.123038 27.9959 0.43627 27.8503 1.25286C27.7159 2.08063 28.2648 2.85248 29.0938 2.9979C34.3143 3.88161 39.0754 6.35375 42.862 10.1235C46.6485 13.9044 49.1131 18.6585 49.9981 23.8713C50.1213 24.6096 50.7599 25.1241 51.4881 25.1241C51.5777 25.1241 51.6561 25.1129 51.7457 25.1017C52.5635 24.9787 53.1236 24.1957 52.978 23.3791Z" fill="#FFA801"/>
</svg>
