<svg xmlns="http://www.w3.org/2000/svg" viewBox="0 0 22 11"><defs><style>.cls-1{fill:#ffa801;}</style></defs><title>1Ресурс 2</title><g id="Слой_2" data-name="Слой 2"><g id="Слой_1-2" data-name="Слой 1"><g id="Слой_2-2" data-name="Слой 2"><g id="Слой_1-2-2" data-name="Слой 1-2"><g id="Слой_2-2-2" data-name="Слой 2-2"><g id="Слой_1-2-2-2" data-name="Слой 1-2-2"><path class="cls-1" d="M21.84,5.09C21.64,4.88,16.92,0,11,0S.36,4.88.16,5.09a.61.61,0,0,0,0,.82C.36,6.12,5.08,11,11,11S21.64,6.12,21.84,5.91A.59.59,0,0,0,21.84,5.09ZM11,9.78A4.38,4.38,0,0,1,6.49,5.51h0A4.39,4.39,0,0,1,11,1.22h0A4.41,4.41,0,0,1,15.51,5.5,4.41,4.41,0,0,1,11,9.78Z"/><path class="cls-1" d="M11.65,4.28a1.79,1.79,0,0,1,.81-1.49A3.21,3.21,0,0,0,11,2.44a3.13,3.13,0,0,0-3.22,3v0h0A3.14,3.14,0,0,0,11,8.56h0A3.2,3.2,0,0,0,14.17,6a1.9,1.9,0,0,1-2.42-1.17h0A2.05,2.05,0,0,1,11.65,4.28Z"/></g></g></g></g></g></g></svg>