<svg width="22" height="11" viewBox="0 0 22 11" fill="none" xmlns="http://www.w3.org/2000/svg">
<g clip-path="url(#clip0)">
<path d="M21.8358 5.09259C21.6382 4.88481 16.9159 0 10.9991 0C5.08232 0 0.360058 4.88481 0.162402 5.09259C-0.0567382 5.32481 -0.0567382 5.67519 0.162402 5.90741C0.360058 6.11518 5.08232 11 10.9991 11C16.9159 11 21.6382 6.11518 21.8358 5.90741C22.055 5.67519 22.055 5.32481 21.8358 5.09259ZM10.9991 9.77778C8.51122 9.77778 6.4874 7.85889 6.4874 5.5C6.4874 3.14111 8.51122 1.22222 10.9991 1.22222C13.487 1.22222 15.5108 3.14111 15.5108 5.5C15.5108 7.85889 13.487 9.77778 10.9991 9.77778Z" fill="#FFA801"/>
<path d="M11.6445 4.27779C11.6445 3.66261 11.9668 3.12075 12.4566 2.79075C12.0184 2.57483 11.5285 2.44446 11 2.44446C9.22109 2.44446 7.77734 3.81335 7.77734 5.50001C7.77734 7.18668 9.22109 8.55557 11 8.55557C12.5898 8.55557 13.909 7.45557 14.1668 6.01335C12.8691 6.41261 11.6445 5.47964 11.6445 4.27779Z" fill="#FFA801"/>
</g>
<defs>
<clipPath id="clip0">
<rect width="22" height="11" fill="white"/>
</clipPath>
</defs>
</svg>
