<svg width="184" height="46" viewBox="0 0 184 46" fill="none" xmlns="http://www.w3.org/2000/svg">
<g clip-path="url(#clip0)">
<path d="M7.90039 23.2C9.55724 23.2 10.9004 21.8568 10.9004 20.2C10.9004 18.5431 9.55724 17.2 7.90039 17.2C6.24354 17.2 4.90039 18.5431 4.90039 20.2C4.90039 21.8568 6.24354 23.2 7.90039 23.2Z" fill="#FFA801"/>
<path d="M13.9004 23.2C15.5572 23.2 16.9004 21.8568 16.9004 20.2C16.9004 18.5431 15.5572 17.2 13.9004 17.2C12.2435 17.2 10.9004 18.5431 10.9004 20.2C10.9004 21.8568 12.2435 23.2 13.9004 23.2Z" fill="#FFA801"/>
<path d="M7.90039 29.2C9.55724 29.2 10.9004 27.8568 10.9004 26.2C10.9004 24.5431 9.55724 23.2 7.90039 23.2C6.24354 23.2 4.90039 24.5431 4.90039 26.2C4.90039 27.8568 6.24354 29.2 7.90039 29.2Z" fill="#FFA801"/>
<path d="M13.9004 29.2C15.5572 29.2 16.9004 27.8568 16.9004 26.2C16.9004 24.5431 15.5572 23.2 13.9004 23.2C12.2435 23.2 10.9004 24.5431 10.9004 26.2C10.9004 27.8568 12.2435 29.2 13.9004 29.2Z" fill="#FFA801"/>
<path d="M7.90039 35.2C9.55724 35.2 10.9004 33.8568 10.9004 32.2C10.9004 30.5431 9.55724 29.2 7.90039 29.2C6.24354 29.2 4.90039 30.5431 4.90039 32.2C4.90039 33.8568 6.24354 35.2 7.90039 35.2Z" fill="#FFA801"/>
<path d="M13.9004 35.2C15.5572 35.2 16.9004 33.8568 16.9004 32.2C16.9004 30.5431 15.5572 29.2 13.9004 29.2C12.2435 29.2 10.9004 30.5431 10.9004 32.2C10.9004 33.8568 12.2435 35.2 13.9004 35.2Z" fill="#FFA801"/>
<path d="M7.90039 41.2C9.55724 41.2 10.9004 39.8568 10.9004 38.2C10.9004 36.5431 9.55724 35.2 7.90039 35.2C6.24354 35.2 4.90039 36.5431 4.90039 38.2C4.90039 39.8568 6.24354 41.2 7.90039 41.2Z" fill="#FFA801"/>
<path d="M13.9004 41.2C15.5572 41.2 16.9004 39.8568 16.9004 38.2C16.9004 36.5431 15.5572 35.2 13.9004 35.2C12.2435 35.2 10.9004 36.5431 10.9004 38.2C10.9004 39.8568 12.2435 41.2 13.9004 41.2Z" fill="#FFA801"/>
<path d="M10.9 14.2C10.9 15.9 9.6 17.2 7.9 17.2C7.2 17.2 6.5 16.9 6 16.5L10.2 12.2C10.6 12.7 10.9 13.4 10.9 14.2Z" fill="#FFA801"/>
<path d="M4.9 20.2C4.9 21.9 3.6 23.2 1.9 23.2C1.2 23.2 0.6 23 0 22.5L4.2 18.2C4.6 18.8 4.9 19.5 4.9 20.2Z" fill="#FFA801"/>
<path d="M22.3998 18.6001C21.0998 19.9001 20.0998 21.4001 19.2998 23.1001C17.8998 22.8001 16.7998 21.6001 16.7998 20.1001C16.7998 18.4001 18.0998 17.1001 19.7998 17.1001C20.9998 17.2001 21.8998 17.8001 22.3998 18.6001Z" fill="#FFA801"/>
<path d="M19.3004 23.2C18.6004 24.8 18.1004 26.4999 17.9004 28.4C17.3004 27.9 16.9004 27.1 16.9004 26.2C16.9004 24.7 17.9004 23.5 19.3004 23.2Z" fill="#FFA801"/>
<path d="M18.5004 34.7999C17.6004 34.2999 16.9004 33.2999 16.9004 32.0999C16.9004 31.2999 17.2004 30.4999 17.8004 29.8999V29.9999C17.8004 31.7999 18.0004 33.2999 18.5004 34.7999Z" fill="#FFA801"/>
<path d="M21.6004 40.5999C21.1004 40.8999 20.5004 41.0999 19.9004 41.0999C18.2004 41.0999 16.9004 39.7999 16.9004 38.0999C16.9004 36.8999 17.6004 35.7999 18.7004 35.3999C19.3004 37.3999 20.3004 39.0999 21.6004 40.5999Z" fill="#FFA801"/>
<path d="M13.9004 17.2C15.5572 17.2 16.9004 15.8568 16.9004 14.2C16.9004 12.5431 15.5572 11.2 13.9004 11.2C12.2435 11.2 10.9004 12.5431 10.9004 14.2C10.9004 15.8568 12.2435 17.2 13.9004 17.2Z" fill="#FFA801"/>
<path d="M28.9004 14.2C28.9004 14.4 28.9004 14.6 28.9004 14.7C27.4004 15.2 25.9004 15.9 24.6004 16.9C23.6004 16.4 22.9004 15.4 22.9004 14.2C22.9004 12.5 24.2004 11.2 25.9004 11.2C27.6004 11.2 28.9004 12.5 28.9004 14.2Z" fill="#FFA801"/>
<path d="M34.8004 14C34.4004 14 34.0004 14 33.5004 14C31.9004 14 30.3004 14.3 28.9004 14.7C28.9004 14.5 28.9004 14.4 28.9004 14.2C28.9004 12.5 30.2004 11.2 31.9004 11.2C33.5004 11.2 34.8004 12.5 34.8004 14Z" fill="#FFA801"/>
<path d="M39.3004 15.1C37.9004 14.5 36.4004 14.2 34.9004 14C34.9004 13.1 35.4004 12.3 36.0004 11.8L39.3004 15.1Z" fill="#FFA801"/>
<path d="M16.9004 8.2001C16.9004 9.9001 15.6004 11.2001 13.9004 11.2001C13.1004 11.2001 12.4004 10.9001 11.9004 10.4001L16.0004 6.1001C16.5004 6.6001 16.9004 7.4001 16.9004 8.2001Z" fill="#FFA801"/>
<path d="M19.9004 11.2C21.5572 11.2 22.9004 9.85681 22.9004 8.19995C22.9004 6.5431 21.5572 5.19995 19.9004 5.19995C18.2435 5.19995 16.9004 6.5431 16.9004 8.19995C16.9004 9.85681 18.2435 11.2 19.9004 11.2Z" fill="#FFA801"/>
<path d="M25.9004 11.2C27.5572 11.2 28.9004 9.85681 28.9004 8.19995C28.9004 6.5431 27.5572 5.19995 25.9004 5.19995C24.2435 5.19995 22.9004 6.5431 22.9004 8.19995C22.9004 9.85681 24.2435 11.2 25.9004 11.2Z" fill="#FFA801"/>
<path d="M34.2004 10.0999C33.7004 10.7999 32.8004 11.1999 31.9004 11.1999C30.2004 11.1999 28.9004 9.8999 28.9004 8.1999C28.9004 7.2999 29.3004 6.4999 29.9004 5.8999L34.2004 10.0999Z" fill="#FFA801"/>
<path d="M22.8998 2.2C22.8998 3.9 21.5998 5.2 19.8998 5.2C19.0998 5.2 18.3998 4.9 17.7998 4.3L21.9998 0C22.4998 0.6 22.8998 1.3 22.8998 2.2Z" fill="#FFA801"/>
<path d="M28.1004 4.2C27.6004 4.8 26.8004 5.2 25.9004 5.2C24.2004 5.2 22.9004 3.9 22.9004 2.2C22.9004 1.3 23.3004 0.6 23.9004 0L28.1004 4.2Z" fill="#FFA801"/>
<path d="M19.9004 17.2C21.5572 17.2 22.9004 15.8568 22.9004 14.2C22.9004 12.5431 21.5572 11.2 19.9004 11.2C18.2435 11.2 16.9004 12.5431 16.9004 14.2C16.9004 15.8568 18.2435 17.2 19.9004 17.2Z" fill="#FFA801"/>
<path d="M17.8998 28.3999C17.7998 28.8999 17.7998 29.4999 17.7998 29.9999L17.8998 28.3999Z" fill="#FFA801"/>
<path d="M18.6004 35.4001C18.5004 35.2001 18.5004 35 18.4004 34.8L18.6004 35.4001Z" fill="#FFA801"/>
</g>
<path d="M34.704 39.336C32.7067 39.336 30.896 38.9067 29.272 38.048C27.6667 37.1707 26.3973 35.9667 25.464 34.436C24.5493 32.8867 24.092 31.1413 24.092 29.2C24.092 27.2587 24.5493 25.5227 25.464 23.992C26.3973 22.4427 27.6667 21.2387 29.272 20.38C30.896 19.5027 32.716 19.064 34.732 19.064C36.4307 19.064 37.9613 19.3627 39.324 19.96C40.7053 20.5573 41.8627 21.416 42.796 22.536L39.884 25.224C38.5587 23.6933 36.916 22.928 34.956 22.928C33.7427 22.928 32.66 23.1987 31.708 23.74C30.756 24.2627 30.0093 25 29.468 25.952C28.9453 26.904 28.684 27.9867 28.684 29.2C28.684 30.4133 28.9453 31.496 29.468 32.448C30.0093 33.4 30.756 34.1467 31.708 34.688C32.66 35.2107 33.7427 35.472 34.956 35.472C36.916 35.472 38.5587 34.6973 39.884 33.148L42.796 35.836C41.8627 36.9747 40.7053 37.8427 39.324 38.44C37.9427 39.0373 36.4027 39.336 34.704 39.336ZM45.8592 19.4H54.7632C56.8912 19.4 58.7672 19.8107 60.3912 20.632C62.0338 21.4347 63.3032 22.5733 64.1992 24.048C65.1138 25.5227 65.5712 27.24 65.5712 29.2C65.5712 31.16 65.1138 32.8773 64.1992 34.352C63.3032 35.8267 62.0338 36.9747 60.3912 37.796C58.7672 38.5987 56.8912 39 54.7632 39H45.8592V19.4ZM54.5392 35.276C56.4992 35.276 58.0578 34.7347 59.2152 33.652C60.3912 32.5507 60.9792 31.0667 60.9792 29.2C60.9792 27.3333 60.3912 25.8587 59.2152 24.776C58.0578 23.6747 56.4992 23.124 54.5392 23.124H50.3952V35.276H54.5392ZM81.6265 34.8H72.5265L70.7905 39H66.1425L74.8785 19.4H79.3585L88.1225 39H83.3625L81.6265 34.8ZM80.1985 31.356L77.0905 23.852L73.9825 31.356H80.1985ZM105.332 35.36V39H90.156V19.4H104.968V23.04H94.664V27.296H103.764V30.824H94.664V35.36H105.332ZM126.777 39L126.749 27.24L120.981 36.928H118.937L113.197 27.492V39H108.941V19.4H112.693L120.029 31.58L127.253 19.4H130.977L131.033 39H126.777ZM137.027 39.224C136.262 39.224 135.618 38.9627 135.095 38.44C134.573 37.9173 134.311 37.264 134.311 36.48C134.311 35.6773 134.573 35.0333 135.095 34.548C135.618 34.044 136.262 33.792 137.027 33.792C137.793 33.792 138.437 34.044 138.959 34.548C139.482 35.0333 139.743 35.6773 139.743 36.48C139.743 37.264 139.482 37.9173 138.959 38.44C138.437 38.9627 137.793 39.224 137.027 39.224ZM155.5 39L151.72 33.54H151.496H147.548V39H143.012V19.4H151.496C153.232 19.4 154.734 19.6893 156.004 20.268C157.292 20.8467 158.281 21.668 158.972 22.732C159.662 23.796 160.008 25.056 160.008 26.512C160.008 27.968 159.653 29.228 158.944 30.292C158.253 31.3373 157.264 32.14 155.976 32.7L160.372 39H155.5ZM155.416 26.512C155.416 25.4107 155.061 24.5707 154.352 23.992C153.642 23.3947 152.606 23.096 151.244 23.096H147.548V29.928H151.244C152.606 29.928 153.642 29.6293 154.352 29.032C155.061 28.4347 155.416 27.5947 155.416 26.512ZM172.309 39.336C169.509 39.336 167.325 38.5613 165.757 37.012C164.208 35.4627 163.433 33.2507 163.433 30.376V19.4H167.969V30.208C167.969 33.7173 169.425 35.472 172.337 35.472C173.756 35.472 174.839 35.052 175.585 34.212C176.332 33.3533 176.705 32.0187 176.705 30.208V19.4H181.185V30.376C181.185 33.2507 180.401 35.4627 178.833 37.012C177.284 38.5613 175.109 39.336 172.309 39.336Z" fill="#151515"/>
<defs>
<clipPath id="clip0">
<rect width="39.3" height="41.2" fill="white"/>
</clipPath>
</defs>
</svg>
