<svg width="236" height="102" viewBox="0 0 236 102" fill="none" xmlns="http://www.w3.org/2000/svg">
<path d="M51.665 96.476C47.565 89.834 45.515 74.787 45.515 51.335L45.638 43.832C45.638 43.34 45.761 42.971 46.007 42.725C46.253 42.479 46.499 42.356 46.745 42.356L47.114 42.233C53.92 41.495 60.234 38.748 66.056 33.992C71.96 29.154 74.912 23.619 74.912 17.387C74.912 14.927 74.256 12.795 72.944 10.991C71.714 9.105 70.033 7.711 67.901 6.809C65.851 5.825 63.719 5.128 61.505 4.718C59.373 4.226 57.241 3.98 55.109 3.98C51.337 3.98 47.606 4.595 43.916 5.825C40.226 7.055 36.987 9.06399 34.199 11.852C31.411 14.64 30.017 17.92 30.017 21.692C30.017 23.988 30.673 26.284 31.985 28.58C32.313 29.4 32.477 29.933 32.477 30.179C32.477 30.671 32.231 30.917 31.739 30.917C31.001 30.917 30.058 30.548 28.91 29.81C23.826 26.776 21.284 23.127 21.284 18.863C21.284 13.287 24.687 8.9 31.493 5.702C38.381 2.504 46.458 0.904994 55.724 0.904994C58.84 0.904994 61.874 1.10999 64.826 1.51999C67.86 1.92999 71.099 2.62699 74.543 3.611C77.987 4.595 80.734 6.194 82.784 8.40799C84.916 10.54 85.982 13.164 85.982 16.28C85.982 20.462 84.137 24.562 80.447 28.58C76.839 32.598 72.821 35.837 68.393 38.297C63.965 40.757 59.783 42.479 55.847 43.463C55.273 43.873 54.986 44.324 54.986 44.816C54.986 47.768 55.068 51.13 55.232 54.902C55.396 58.592 55.724 63.799 56.216 70.523C56.79 77.165 57.815 83.192 59.291 88.604C60.849 93.934 62.776 97.665 65.072 99.797C65.482 100.207 65.687 100.576 65.687 100.904C65.687 101.56 64.662 101.888 62.612 101.888C60.234 101.888 58.143 101.437 56.339 100.535C54.535 99.633 53.305 98.813 52.649 98.075C52.075 97.337 51.747 96.804 51.665 96.476ZM23.744 75.443C22.022 79.379 20.136 82.946 18.086 86.144C16.036 89.342 14.15 91.843 12.428 93.647C10.706 95.451 9.107 96.968 7.631 98.198C6.155 99.428 4.966 100.248 4.064 100.658L2.834 101.273C2.342 101.519 1.85 101.642 1.358 101.642C0.456 101.642 0.00499938 101.109 0.00499938 100.043L0.374 98.567C1.194 96.271 3.982 90.49 8.738 81.224C13.576 71.876 18.127 63.43 22.391 55.886C26.327 48.834 30.099 42.274 33.707 36.206C37.397 30.056 40.062 25.71 41.702 23.168L44.285 19.232C46.335 16.444 48.426 14.312 50.558 12.836C52.69 11.36 54.412 10.622 55.724 10.622C56.626 10.622 57.077 10.95 57.077 11.606C57.077 12.098 56.749 12.959 56.093 14.189C55.519 15.173 53.223 19.273 49.205 26.489C45.269 33.623 40.554 42.356 35.06 52.688C29.648 62.938 25.876 70.523 23.744 75.443ZM92.2531 74.459L96.0661 67.94C96.0661 67.694 95.9841 67.571 95.8201 67.571C95.6561 67.571 95.4511 67.694 95.2051 67.94C92.1711 71.466 89.0141 74.91 85.7341 78.272C82.4541 81.552 79.9531 83.971 78.2311 85.529L75.5251 87.866C69.1291 93.934 64.7011 96.968 62.2411 96.968C61.0931 96.968 60.5191 96.23 60.5191 94.754C60.5191 93.114 61.2161 90.613 62.6101 87.251C63.9221 83.889 65.2751 80.896 66.6691 78.272L68.6371 74.459C75.5251 61.585 80.6091 52.975 83.8891 48.629C85.5291 46.497 87.5381 44.734 89.9161 43.34C92.2941 41.864 94.1391 41.126 95.4511 41.126C96.2711 41.126 96.6811 41.413 96.6811 41.987C96.6811 42.315 96.5171 42.766 96.1891 43.34C96.0251 43.668 94.3441 46.415 91.1461 51.581C87.9481 56.665 85.3651 61.052 83.3971 64.742C77.9851 74.664 75.2791 80.363 75.2791 81.839C75.2791 82.413 75.5251 82.7 76.0171 82.7C76.7551 82.7 78.0261 81.962 79.8301 80.486C85.1601 75.894 91.0231 69.703 97.4191 61.913C100.945 58.141 104.635 53.221 108.489 47.153C111.113 43.135 114.598 41.126 118.944 41.126C119.682 41.126 120.051 41.454 120.051 42.11L119.067 44.447C117.919 46.497 115.336 51.007 111.318 57.977C107.382 64.865 105.127 68.801 104.553 69.785C101.191 75.689 99.5101 79.584 99.5101 81.47C99.5101 82.208 99.7561 82.577 100.248 82.577C101.068 82.577 103.692 80.527 108.12 76.427C111.564 72.983 116.115 68.022 121.773 61.544C122.019 61.298 122.224 61.175 122.388 61.175C122.552 61.175 122.634 61.339 122.634 61.667C122.634 63.225 122.019 64.742 120.789 66.218C114.721 72.942 109.35 78.559 104.676 83.069C101.478 86.103 97.8701 89.137 93.8521 92.171C89.9161 95.205 87.0461 96.722 85.2421 96.722C84.0121 96.722 83.3971 95.861 83.3971 94.139C83.3971 93.155 84.1351 91.023 85.6111 87.743C87.0871 84.463 88.5631 81.429 90.0391 78.641L92.2531 74.459ZM139.128 80.978C137.652 84.996 135.315 88.399 132.117 91.187C128.919 93.893 125.926 95.738 123.138 96.722C120.432 97.706 117.972 98.198 115.758 98.198C109.772 98.198 106.779 95.861 106.779 91.187C106.779 86.431 109.403 82.126 114.651 78.272C117.111 76.468 119.776 75.279 122.646 74.705C123.056 74.705 123.261 74.869 123.261 75.197C123.261 75.361 123.179 75.525 123.015 75.689C120.965 77.247 118.997 79.666 117.111 82.946C115.307 86.226 114.405 89.096 114.405 91.556C114.405 94.016 115.43 95.246 117.48 95.246C119.12 95.246 120.719 94.59 122.277 93.278C123.917 91.884 125.147 90.49 125.967 89.096L127.197 87.128C128.837 84.504 130.19 80.322 131.256 74.582C132.404 68.842 133.142 63.758 133.47 59.33L133.839 52.688C133.839 52.032 133.716 51.704 133.47 51.704L132.978 51.95L120.801 66.218C119.899 67.284 119.284 67.817 118.956 67.817C118.546 67.817 118.341 67.53 118.341 66.956C118.341 65.89 118.628 65.07 119.202 64.496L120.309 63.143C129.657 52.647 134.987 46.292 136.299 44.078C137.529 42.192 139.333 40.552 141.711 39.158C144.007 37.846 146.713 37.19 149.829 37.19C150.649 37.19 151.059 37.518 151.059 38.174C151.059 38.584 150.731 38.953 150.075 39.281C149.829 39.363 149.501 39.568 149.091 39.896C148.763 40.142 148.107 40.798 147.123 41.864C146.221 42.93 145.401 44.16 144.663 45.554C143.925 46.948 143.269 48.916 142.695 51.458C142.121 53.918 141.834 56.665 141.834 59.699C141.834 69.129 140.932 76.222 139.128 80.978ZM172.76 80.978C171.284 84.996 168.947 88.399 165.749 91.187C162.551 93.893 159.558 95.738 156.77 96.722C154.064 97.706 151.604 98.198 149.39 98.198C143.404 98.198 140.411 95.861 140.411 91.187C140.411 86.431 143.035 82.126 148.283 78.272C150.743 76.468 153.408 75.279 156.278 74.705C156.688 74.705 156.893 74.869 156.893 75.197C156.893 75.361 156.811 75.525 156.647 75.689C154.597 77.247 152.629 79.666 150.743 82.946C148.939 86.226 148.037 89.096 148.037 91.556C148.037 94.016 149.062 95.246 151.112 95.246C152.752 95.246 154.351 94.59 155.909 93.278C157.549 91.884 158.779 90.49 159.599 89.096L160.829 87.128C162.469 84.504 163.822 80.322 164.888 74.582C166.036 68.842 166.774 63.758 167.102 59.33L167.471 52.688C167.471 52.032 167.348 51.704 167.102 51.704L166.61 51.95L154.433 66.218C153.531 67.284 152.916 67.817 152.588 67.817C152.178 67.817 151.973 67.53 151.973 66.956C151.973 65.89 152.26 65.07 152.834 64.496L153.941 63.143C163.289 52.647 168.619 46.292 169.931 44.078C171.161 42.192 172.965 40.552 175.343 39.158C177.639 37.846 180.345 37.19 183.461 37.19C184.281 37.19 184.691 37.518 184.691 38.174C184.691 38.584 184.363 38.953 183.707 39.281C183.461 39.363 183.133 39.568 182.723 39.896C182.395 40.142 181.739 40.798 180.755 41.864C179.853 42.93 179.033 44.16 178.295 45.554C177.557 46.948 176.901 48.916 176.327 51.458C175.753 53.918 175.466 56.665 175.466 59.699C175.466 69.129 174.564 76.222 172.76 80.978ZM213.158 87.251C206.352 93.483 201.678 96.599 199.136 96.599C197.988 96.599 197.414 95.943 197.414 94.631C197.414 92.991 198.111 90.49 199.505 87.128C200.981 83.766 202.457 80.814 203.933 78.272L206.147 74.459C206.475 73.885 206.639 73.516 206.639 73.352C206.639 73.188 206.557 73.106 206.393 73.106C206.065 73.106 205.45 73.557 204.548 74.459C202.088 77.165 199.259 80.076 196.061 83.192C192.945 86.226 190.403 88.604 188.435 90.326L185.606 92.786C182.408 95.246 179.948 96.476 178.226 96.476C176.422 96.476 175.52 95.082 175.52 92.294C175.52 90.9 175.93 88.768 176.75 85.898C177.488 83.028 178.062 81.101 178.472 80.117C180.358 75.525 182.695 71.056 185.483 66.71C188.353 62.364 191.715 58.223 195.569 54.287C199.423 50.269 203.892 47.03 208.976 44.57C214.142 42.11 219.472 40.88 224.966 40.88C229.558 40.88 231.854 41.577 231.854 42.971C231.854 43.791 230.829 44.201 228.779 44.201C221.235 44.201 214.142 47.44 207.5 53.918C200.94 60.314 195.61 67.694 191.51 76.058C190.362 78.354 189.788 80.281 189.788 81.839C189.788 82.741 190.075 83.192 190.649 83.192C191.633 83.192 192.904 82.495 194.462 81.101C195.446 80.199 196.758 79.01 198.398 77.534C200.12 76.058 202.867 73.229 206.639 69.047C210.411 64.865 213.404 60.97 215.618 57.362C215.946 56.706 216.438 55.927 217.094 55.025C217.832 54.123 219.185 52.934 221.153 51.458C223.121 49.9 225.089 49.121 227.057 49.121C228.123 49.121 228.656 49.408 228.656 49.982C228.656 50.146 228.533 50.433 228.287 50.843C227.959 51.499 227.016 53.139 225.458 55.763C223.982 58.387 222.588 60.888 221.276 63.266C219.964 65.562 218.57 68.104 217.094 70.892C215.618 73.598 214.429 75.935 213.527 77.903C212.707 79.871 212.297 81.183 212.297 81.839C212.297 82.331 212.502 82.577 212.912 82.577C214.142 82.577 217.135 80.199 221.891 75.443C225.499 71.671 229.722 67.038 234.56 61.544C234.806 61.298 235.011 61.175 235.175 61.175C235.339 61.175 235.421 61.339 235.421 61.667C235.421 63.225 234.806 64.742 233.576 66.218C225.54 75.156 218.734 82.167 213.158 87.251Z" fill="#E6E6E6"/>
</svg>
