<svg width="15" height="15" viewBox="0 0 15 15" fill="none" xmlns="http://www.w3.org/2000/svg">
<g clip-path="url(#clip0)">
<path d="M14.3508 5.22715H13.4111C13.2529 3.75586 12.4113 2.13947 10.9667 2.13947H3.80218C3.0866 2.13947 2.43437 2.56316 1.96567 3.33249C1.64268 3.86277 1.43379 4.52051 1.35779 5.22715H0.649248C0.29124 5.22715 0 5.51839 0 5.87637V6.63217C0 6.99018 0.29124 7.28142 0.649248 7.28142H0.807275C0.66876 7.57849 0.590889 7.90931 0.590889 8.25815V10.1216C0.435967 10.2247 0.333574 10.4007 0.333574 10.6003V10.9995C0.333574 11.3018 0.568477 11.5498 0.865254 11.5719V12.2058C0.865254 12.5668 1.15893 12.8605 1.51992 12.8605H3.44461C3.80558 12.8605 4.09928 12.5668 4.09928 12.2058V11.5741H5.61603C5.71726 11.663 5.8495 11.7174 5.99449 11.7174H8.77441C8.91943 11.7174 9.05168 11.663 9.15287 11.5741H10.6696V12.2058C10.6696 12.5668 10.9633 12.8605 11.3243 12.8605H13.249C13.61 12.8605 13.9037 12.5668 13.9037 12.2058V11.5719C14.2005 11.5498 14.4353 11.3018 14.4353 10.9995V10.6003C14.4353 10.4007 14.3329 10.2247 14.178 10.1216V9.38657C14.178 9.2652 14.0797 9.16685 13.9583 9.16685C13.8369 9.16685 13.7386 9.2652 13.7386 9.38657V10.0256H9.15287C9.04837 9.93375 8.91217 9.88225 8.77441 9.88225H5.99449C5.85486 9.88225 5.71887 9.93522 5.61603 10.0256H1.03034V8.25812C1.03034 7.20484 1.89797 6.3779 2.91056 6.3779H3.84688L4.71199 7.78925C4.95372 8.18356 5.39118 8.42851 5.85369 8.42851H8.91527C9.37775 8.42851 9.81522 8.18356 10.057 7.78925L10.9221 6.3779H11.8584C12.869 6.3779 13.7386 7.20267 13.7386 8.25812V8.36118C13.7386 8.48256 13.8369 8.58091 13.9583 8.58091C14.0797 8.58091 14.178 8.48256 14.178 8.36118C14.1724 8.30397 14.2191 7.83355 13.9617 7.28142H14.3508C14.7088 7.28142 15 6.99018 15 6.63217V5.87637C15 5.51839 14.7088 5.22715 14.3508 5.22715ZM0.649248 6.84196C0.533584 6.84196 0.439453 6.74783 0.439453 6.63217V5.87637C0.439453 5.76071 0.533584 5.6666 0.649248 5.6666H1.32765C1.32612 5.7201 1.32519 5.77374 1.32519 5.82756V6.56704C1.23478 6.65186 1.15119 6.74376 1.07525 6.84196H0.649248ZM3.65982 12.2058C3.65982 12.3245 3.56329 12.421 3.44461 12.421H1.51992C1.40124 12.421 1.30471 12.3245 1.30471 12.2058V11.5741H3.65982V12.2058ZM13.4642 12.2058C13.4642 12.3245 13.3677 12.421 13.249 12.421H11.3243C11.2056 12.421 11.1091 12.3245 11.1091 12.2058V11.5741H13.4642V12.2058ZM13.8607 10.4651C13.8684 10.4651 13.8759 10.4662 13.8833 10.4675C13.8864 10.468 13.8894 10.4687 13.8925 10.4695C13.9509 10.4842 13.9959 10.5379 13.9959 10.6003V10.9995C13.9959 11.0727 13.934 11.1346 13.8607 11.1346C13.3785 11.1346 9.8245 11.1346 9.34904 11.1346V10.4651H13.8607ZM8.77441 10.3217C8.84786 10.3217 8.90956 10.3846 8.90956 10.4569V11.1428C8.90956 11.2118 8.85082 11.278 8.77441 11.278H5.99449C5.91779 11.278 5.85935 11.2116 5.85935 11.1428V10.4569C5.85935 10.3847 5.92081 10.3218 5.99449 10.3218H8.77441V10.3217ZM5.41989 10.4651V11.1346C4.957 11.1346 1.33339 11.1346 0.908174 11.1346C0.834902 11.1346 0.773027 11.0728 0.773027 10.9995V10.6003C0.773027 10.538 0.817881 10.4843 0.876299 10.4695C0.879434 10.4687 0.882539 10.468 0.885615 10.4675C0.892998 10.4662 0.900469 10.4651 0.908174 10.4651H5.41989V10.4651ZM2.504 5.97448V5.82756C2.504 5.10999 2.67035 4.44164 2.9724 3.94576C3.21891 3.54112 3.5136 3.31828 3.80218 3.31828H6.9873C7.10868 3.31828 7.20703 3.21993 7.20703 3.09856C7.20703 2.97718 7.10868 2.87883 6.9873 2.87883H3.80218C3.3544 2.87883 2.92644 3.17655 2.59708 3.71713C2.25366 4.28098 2.06452 5.03048 2.06452 5.82756V6.09891C1.96069 6.13972 1.86056 6.18777 1.76464 6.24252V5.82756C1.76464 5.05468 1.93852 4.22183 2.341 3.56113C2.72687 2.92776 3.2458 2.57895 3.80218 2.57895H10.9667C11.5231 2.57895 12.0421 2.92776 12.4279 3.5611C12.8289 4.21937 13.0043 5.04744 13.0043 5.82756V6.24255C12.9084 6.1878 12.8082 6.13975 12.7044 6.09894V5.82756C12.7044 5.03045 12.5153 4.28095 12.1718 3.71713C11.8425 3.17655 11.4145 2.87883 10.9668 2.87883H8.0127C7.89132 2.87883 7.79297 2.97718 7.79297 3.09856C7.79297 3.21993 7.89132 3.31828 8.0127 3.31828H10.9668C11.2554 3.31828 11.55 3.54112 11.7965 3.94573C12.0986 4.44167 12.2649 5.10996 12.2649 5.82756V5.97448C12.1477 5.95354 12.0091 5.93983 11.8761 5.93877C11.875 4.92065 11.0465 4.09269 10.0281 4.09269C9.00987 4.09269 8.18139 4.9205 8.18019 5.93848C7.52944 5.93848 3.58134 5.93848 2.91056 5.93848C2.77315 5.93848 2.62479 5.95286 2.504 5.97448ZM9.68227 7.55959C9.51987 7.82452 9.22597 7.98908 8.91524 7.98908H5.85369C5.54297 7.98908 5.24906 7.82452 5.08667 7.55959L4.36233 6.37793H10.4066L9.68227 7.55959ZM9.34922 5.93848C9.35045 5.56512 9.65449 5.26172 10.0281 5.26172C10.4018 5.26172 10.7058 5.56509 10.7071 5.93848H9.34922ZM11.1466 5.93848C11.1454 5.32281 10.6441 4.82227 10.0281 4.82227C9.41218 4.82227 8.91094 5.32281 8.90971 5.93848H8.61958C8.62081 5.16281 9.25222 4.53214 10.0281 4.53214C10.8041 4.53214 11.4355 5.16281 11.4367 5.93848H11.1466ZM14.5605 6.63217C14.5605 6.74783 14.4664 6.84196 14.3508 6.84196H13.6937C13.6177 6.74379 13.5341 6.65189 13.4437 6.56707V5.82756C13.4437 5.77427 13.443 5.72051 13.4414 5.6666H14.3508C14.4664 5.6666 14.5605 5.76071 14.5605 5.87637V6.63217H14.5605Z" fill="#FFA801"/>
<path d="M5.64746 8.8139C5.52608 8.8139 5.42773 8.91225 5.42773 9.03363C5.42773 9.15501 5.52608 9.25336 5.64746 9.25336H9.12236C9.24374 9.25336 9.34209 9.15501 9.34209 9.03363C9.34209 8.91225 9.24374 8.8139 9.12236 8.8139H5.64746Z" fill="#FFA801"/>
<path d="M12.0665 7.18884C11.473 7.18884 10.9902 7.67163 10.9902 8.26504C10.9902 8.85844 11.473 9.34126 12.0665 9.34126C12.6599 9.34126 13.1427 8.85847 13.1427 8.26504C13.1427 7.6716 12.6599 7.18884 12.0665 7.18884ZM12.0665 8.90183C11.7153 8.90183 11.4297 8.61619 11.4297 8.26506C11.4297 7.91397 11.7153 7.62833 12.0665 7.62833C12.4176 7.62833 12.7032 7.91397 12.7032 8.26506C12.7033 8.61619 12.4176 8.90183 12.0665 8.90183Z" fill="#FFA801"/>
<path d="M1.62695 8.26504C1.62695 8.85847 2.10974 9.34126 2.70317 9.34126C3.29661 9.34126 3.77936 8.85847 3.77936 8.26504C3.77936 7.6716 3.29658 7.18884 2.70317 7.18884C2.10977 7.18884 1.62695 7.6716 1.62695 8.26504ZM3.33994 8.26504C3.33994 8.61616 3.0543 8.9018 2.7032 8.9018C2.35208 8.9018 2.06644 8.61616 2.06644 8.26504C2.06644 7.91394 2.35208 7.6283 2.7032 7.6283C3.0543 7.6283 3.33994 7.91394 3.33994 8.26504Z" fill="#FFA801"/>
</g>
<defs>
<clipPath id="clip0">
<rect width="15" height="15" fill="white"/>
</clipPath>
</defs>
</svg>
