<svg width="7" height="13" viewBox="0 0 7 13" fill="none" xmlns="http://www.w3.org/2000/svg">
<path d="M6.43585 6.91023L5.13399 5.47413C5.05292 5.38473 4.97837 5.20051 4.97462 5.07974L4.92673 3.58964V3.54647C4.92673 3.31686 4.73988 3.13 4.51027 3.13H3.23589H2.72948C2.5243 3.13 2.29539 3.27535 2.20807 3.46095L0.492522 7.105C0.445045 7.20606 0.440325 7.31892 0.479195 7.42317C0.518065 7.52729 0.595804 7.60947 0.697837 7.65445L0.95063 7.76592C1.00449 7.78966 1.06196 7.80174 1.12152 7.80174C1.28491 7.80174 1.43706 7.70886 1.50938 7.56519L2.31302 5.96639V7.57338C2.30968 7.58268 2.30483 7.59115 2.30177 7.60058L0.943689 11.8538C0.887189 12.0309 0.904402 12.2173 0.992276 12.3787C1.08015 12.54 1.2273 12.6555 1.40693 12.7039L1.49772 12.7285C1.55714 12.7446 1.61877 12.7528 1.68069 12.7528C1.99317 12.7528 2.27706 12.5472 2.37118 12.2526L3.64014 8.27845L4.0902 9.38082C4.2 9.64972 4.31856 10.1206 4.3491 10.4093L4.56441 12.439C4.59898 12.764 4.85593 12.9999 5.1755 12.9999C5.22783 12.9999 5.281 12.9935 5.33334 12.9809L5.42482 12.9586C5.78908 12.8705 6.04646 12.4962 5.99856 12.1246L5.67969 9.64972C5.63916 9.33529 5.50353 8.84289 5.37734 8.55206L4.94672 7.56033C4.94117 7.54742 4.93326 7.53576 4.92687 7.52326V6.85123L5.70288 7.66139C5.78006 7.74204 5.88334 7.78647 5.99357 7.78647C6.10504 7.78647 6.20916 7.74121 6.28662 7.65903L6.43016 7.5066C6.58369 7.34349 6.58633 7.07612 6.43585 6.91023Z" fill="#FFA801"/>
<path d="M3.736 2.77711C4.50174 2.77711 5.12462 2.15422 5.12462 1.38848C5.12462 0.622888 4.50174 0 3.736 0C2.97041 0 2.34766 0.622888 2.34766 1.38848C2.34752 2.15422 2.97041 2.77711 3.736 2.77711Z" fill="#FFA801"/>
</svg>
