<svg width="14" height="14" viewBox="0 0 14 14" fill="none" xmlns="http://www.w3.org/2000/svg">
<g clip-path="url(#clip0)">
<path d="M13.132 2.48596H12.5084V0.757504C12.5084 0.339828 12.1686 0 11.7509 0H2.2491C1.83143 0 1.4916 0.339828 1.4916 0.757504V2.48593H0.868023C0.602652 2.48593 0.386719 2.70184 0.386719 2.96723V5.72942C0.386719 5.99482 0.602625 6.21072 0.868023 6.21072H1.4916V10.441H1.30995C1.19667 10.441 1.10487 10.5328 1.10487 10.6461V11.5852C1.10487 11.6985 1.19667 11.7903 1.30995 11.7903H1.47779V13.2425C1.47779 13.6602 1.81762 14 2.23529 14H3.89257C4.31025 14 4.65007 13.6602 4.65007 13.2425V11.7903H9.34995V13.2425C9.34995 13.6602 9.68977 14 10.1074 14H11.7647C12.1824 14 12.5222 13.6602 12.5222 13.2425V11.7903H12.6901C12.8034 11.7903 12.8951 11.6985 12.8951 11.5852V10.6461C12.8951 10.5328 12.8034 10.441 12.6901 10.441H12.5084V6.2107H13.132C13.3974 6.2107 13.6133 5.99479 13.6133 5.72939V2.96723C13.6133 2.70186 13.3974 2.48596 13.132 2.48596ZM12.0983 9.33611H10.8512V8.76777C10.8512 8.57626 11.007 8.42043 11.1985 8.42043H12.0983V9.33611ZM1.90175 8.42043H2.80153C2.99307 8.42043 3.14887 8.57626 3.14887 8.76777V9.33611H1.90175V8.42043ZM0.868023 5.80054C0.828785 5.80054 0.796875 5.76863 0.796875 5.72939V2.96723C0.796875 2.928 0.828785 2.89609 0.868023 2.89609H1.4916V5.80054H0.868023ZM4.23994 13.2425C4.23994 13.434 4.08414 13.5898 3.8926 13.5898H2.23529C2.04375 13.5898 1.88795 13.434 1.88795 13.2425V11.7903H4.23994V13.2425ZM12.1121 13.2425C12.1121 13.434 11.9563 13.5898 11.7648 13.5898H10.1075C9.91593 13.5898 9.76013 13.434 9.76013 13.2425V11.7903H10.9361C11.0494 11.7903 11.1412 11.6984 11.1412 11.5852C11.1412 11.4719 11.0494 11.3801 10.9361 11.3801H1.51503V10.8511H12.485V11.3801H11.8942C11.7809 11.3801 11.6891 11.4719 11.6891 11.5852C11.6891 11.6984 11.7809 11.7903 11.8942 11.7903H12.1121V13.2425H12.1121ZM9.55713 10.441H4.44292V9.37546C4.44292 9.33622 4.47483 9.30431 4.51407 9.30431H9.48598C9.52522 9.30431 9.55713 9.33622 9.55713 9.37546V10.441ZM9.96728 10.441V9.37546C9.96728 9.11006 9.75138 8.89416 9.48598 8.89416H4.51407C4.2487 8.89416 4.03276 9.11006 4.03276 9.37546V10.441H1.90175V9.74627H3.35395C3.46724 9.74627 3.55903 9.65445 3.55903 9.54119V8.76777C3.55903 8.3501 3.2192 8.01027 2.80153 8.01027H1.90175V7.20508H4.12403C4.23732 7.20508 4.32911 7.11326 4.32911 7C4.32911 6.88674 4.23732 6.79492 4.12403 6.79492H3.51761V6.04447L5.94431 5.26168C6.05207 5.22692 6.11127 5.11134 6.07652 5.00355C6.04176 4.89573 5.92612 4.83656 5.81839 4.87134L3.24958 5.7C3.24936 5.70008 3.24917 5.70019 3.24895 5.70027C3.24854 5.70041 3.24811 5.70049 3.2477 5.70062L2.75048 5.86636C2.64304 5.90218 2.58496 6.0183 2.62078 6.12577C2.64944 6.21171 2.72945 6.26604 2.81531 6.26604C2.8368 6.26604 2.85868 6.26262 2.8802 6.25546L3.10748 6.17969V6.79492H1.90175V1.68074H6.79494V2.15447H5.61895C5.50566 2.15447 5.41387 2.24629 5.41387 2.35955V3.24343C5.41387 3.35669 5.50566 3.44851 5.61895 3.44851H8.3811C8.49439 3.44851 8.58618 3.35669 8.58618 3.24343V2.35955C8.58618 2.24629 8.49439 2.15447 8.3811 2.15447H7.2051V1.68074H9.65021C9.76349 1.68074 9.85528 1.58892 9.85528 1.47566C9.85528 1.3624 9.76349 1.27058 9.65021 1.27058H1.90175V0.757504C1.90175 0.565988 2.05756 0.410156 2.2491 0.410156H11.7509C11.9425 0.410156 12.0983 0.565988 12.0983 0.757504V1.27058H10.6075C10.4942 1.27058 10.4024 1.3624 10.4024 1.47566C10.4024 1.58892 10.4942 1.68074 10.6075 1.68074H12.0983V6.79492H10.8926V6.17966L11.1199 6.25543C11.1414 6.26259 11.1632 6.26601 11.1847 6.26601C11.2706 6.26601 11.3506 6.21165 11.3793 6.12574C11.4151 6.01828 11.357 5.90215 11.2496 5.86633L10.7524 5.7006C10.7519 5.70046 10.7515 5.70038 10.7511 5.70024C10.7509 5.70016 10.7507 5.70005 10.7505 5.69997L8.18166 4.87132C8.07389 4.83656 7.95828 4.89573 7.92353 5.00352C7.88878 5.11131 7.94798 5.22689 8.05574 5.26165L10.4824 6.04445V6.79492H5.08104C4.96775 6.79492 4.87596 6.88674 4.87596 7C4.87596 7.11326 4.96775 7.20508 5.08104 7.20508H12.0983V8.01027H11.1985C10.7808 8.01027 10.441 8.3501 10.441 8.76777V9.54119C10.441 9.65445 10.5328 9.74627 10.6461 9.74627H12.0983V10.441H9.96728ZM8.17602 2.56463V3.03836H5.82402V2.56463H8.17602ZM13.2031 5.72942C13.2031 5.76866 13.1712 5.80057 13.132 5.80057H12.5084V2.89611H13.132C13.1712 2.89611 13.2031 2.92802 13.2031 2.96726V5.72942Z" fill="#FFA801"/>
<path d="M8.93342 8.01025H5.06641C4.95312 8.01025 4.86133 8.10207 4.86133 8.21533C4.86133 8.32859 4.95312 8.42041 5.06641 8.42041H8.93342C9.0467 8.42041 9.13849 8.32859 9.13849 8.21533C9.13849 8.10207 9.0467 8.01025 8.93342 8.01025Z" fill="#FFA801"/>
</g>
<defs>
<clipPath id="clip0">
<rect width="14" height="14" fill="white"/>
</clipPath>
</defs>
</svg>
