<svg width="30" height="30" viewBox="0 0 30 30" fill="none" xmlns="http://www.w3.org/2000/svg">
<path d="M25.1875 13.3748C24.739 13.3748 24.375 13.7388 24.375 14.1873V23.3877L17.8753 25.9876V17.4372C17.8753 16.9887 17.5113 16.6247 17.0628 16.6247C16.6143 16.6247 16.2503 16.9887 16.2503 17.4372V25.9859L9.75059 23.3861V10.5133L13.5156 12.0196C13.9267 12.1854 14.4044 11.9839 14.5718 11.5663C14.7391 11.1503 14.536 10.6774 14.1184 10.51L9.25498 8.56337C9.25498 8.56337 9.25498 8.56337 9.25336 8.56337L9.24036 8.5585C9.04699 8.4805 8.83087 8.4805 8.6375 8.5585L8.62288 8.56337C8.62288 8.56337 8.62288 8.56337 8.62125 8.56337L0.511206 11.8084C0.204093 11.9319 0.000976562 12.2292 0.000976562 12.5623V27.1868C0.000976562 27.4565 0.135846 27.7084 0.358462 27.8595C0.494957 27.9521 0.652575 27.9992 0.813444 27.9992C0.915815 27.9992 1.01819 27.9797 1.11568 27.9407L8.93812 24.8127L16.7459 27.9359C16.7459 27.9359 16.7459 27.9359 16.7476 27.9359L16.7622 27.9424C16.9555 28.0204 17.1717 28.0204 17.365 27.9424L17.3797 27.9359C17.3797 27.9359 17.3797 27.9359 17.3813 27.9359L25.4913 24.6925C25.7968 24.5674 25.9999 24.27 25.9999 23.9369V14.1873C25.9999 13.7388 25.6359 13.3748 25.1875 13.3748ZM8.12565 23.3861L1.62591 25.9859V13.1116L8.12565 10.5117V23.3861Z" fill="#FFA801"/>
<path d="M20.3134 5.25C18.9696 5.25 17.876 6.34358 17.876 7.6874C17.876 9.03122 18.9696 10.1248 20.3134 10.1248C21.6572 10.1248 22.7508 9.03122 22.7508 7.6874C22.7508 6.34358 21.6572 5.25 20.3134 5.25ZM20.3134 8.49987C19.8649 8.49987 19.5009 8.13588 19.5009 7.6874C19.5009 7.23892 19.8649 6.87494 20.3134 6.87494C20.7619 6.87494 21.1258 7.23892 21.1258 7.6874C21.1258 8.13588 20.7619 8.49987 20.3134 8.49987Z" fill="#FFA801"/>
<path d="M20.3123 2C17.1761 2 14.625 4.55115 14.625 7.68727C14.625 10.6057 19.1878 15.7746 19.7078 16.3547C19.8622 16.5253 20.0815 16.6244 20.3123 16.6244C20.543 16.6244 20.7624 16.5253 20.9167 16.3547C21.4367 15.7746 25.9995 10.6057 25.9995 7.68727C25.9995 4.55115 23.4484 2 20.3123 2ZM20.3123 14.5721C18.5378 12.4678 16.2499 9.23746 16.2499 7.68727C16.2499 5.44811 18.0731 3.62493 20.3123 3.62493C22.5514 3.62493 24.3746 5.44811 24.3746 7.68727C24.3746 9.23584 22.0867 12.4678 20.3123 14.5721Z" fill="#FFA801"/>
</svg>
