<svg width="19" height="19" viewBox="0 0 19 19" fill="none" xmlns="http://www.w3.org/2000/svg">
<path d="M10.5497 9.50076L18.7826 1.26776C19.0725 0.977904 19.0725 0.507952 18.7826 0.218128C18.4928 -0.0716957 18.0228 -0.0717328 17.733 0.218128L9.49999 8.45112L1.26703 0.218128C0.977172 -0.0717328 0.507219 -0.0717328 0.217396 0.218128C-0.0724281 0.507989 -0.0724652 0.977941 0.217396 1.26776L8.45035 9.50072L0.217396 17.7337C-0.0724652 18.0236 -0.0724652 18.4935 0.217396 18.7834C0.362307 18.9283 0.55227 19.0007 0.742232 19.0007C0.932195 19.0007 1.12212 18.9283 1.26707 18.7834L9.49999 10.5504L17.733 18.7834C17.8779 18.9283 18.0678 19.0007 18.2578 19.0007C18.4478 19.0007 18.6377 18.9283 18.7826 18.7834C19.0725 18.4935 19.0725 18.0235 18.7826 17.7337L10.5497 9.50076Z" fill="white"/>
</svg>
