<svg width="65" height="65" viewBox="0 0 65 65" fill="none" xmlns="http://www.w3.org/2000/svg">
<path d="M23.0166 46.0459H4.0625C1.82812 46.0459 0 44.2178 0 41.9834V4.0625C0 1.82812 1.82812 0 4.0625 0H44.6875C46.9219 0 48.75 1.82812 48.75 4.0625V28.4375C48.75 29.1865 48.1406 29.7959 47.3916 29.7959C46.6426 29.7959 46.0332 29.1865 46.0332 28.4375V4.0625C46.0332 3.31348 45.4238 2.7041 44.6748 2.7041H4.0625C3.31348 2.7041 2.7041 3.31348 2.7041 4.0625V41.9834C2.7041 42.7324 3.31348 43.3418 4.0625 43.3418H23.0166C23.7656 43.3418 24.375 43.9512 24.375 44.7002C24.375 45.4365 23.7656 46.0459 23.0166 46.0459Z" fill="#FFA801"/>
<path d="M20.3125 29.7959C19.5635 29.7959 18.9541 29.1866 18.9541 28.4375V18.9541C18.9541 17.4561 17.7354 16.25 16.25 16.25C14.7646 16.25 13.5459 17.4688 13.5459 18.9541V28.4375C13.5459 29.1866 12.9365 29.7959 12.1875 29.7959C11.4385 29.7959 10.8291 29.1866 10.8291 28.4375V18.9541C10.8291 15.9707 13.2539 13.5332 16.25 13.5332C19.2461 13.5332 21.6709 15.958 21.6709 18.9541V28.4375C21.6709 29.1866 21.0615 29.7959 20.3125 29.7959Z" fill="#FFA801"/>
<path d="M20.3125 24.375H12.1875C11.4385 24.375 10.8291 23.7657 10.8291 23.0166C10.8291 22.2676 11.4385 21.6582 12.1875 21.6582H20.3125C21.0615 21.6582 21.6709 22.2676 21.6709 23.0166C21.6709 23.7657 21.0615 24.375 20.3125 24.375Z" fill="#FFA801"/>
<path d="M31.1416 29.7959H28.4375C27.6885 29.7959 27.0791 29.1866 27.0791 28.4375V14.8916C27.0791 14.1426 27.6885 13.5332 28.4375 13.5332H31.1416C34.874 13.5332 37.9082 16.5674 37.9082 20.2998V23.0039C37.9209 26.7491 34.8867 29.7959 31.1416 29.7959ZM29.7959 27.0791H31.1543C33.3887 27.0791 35.2168 25.251 35.2168 23.0166V20.3125C35.2168 18.0782 33.3887 16.25 31.1543 16.25H29.7959V27.0791Z" fill="#FFA801"/>
<path d="M48.9783 47.0362C48.6355 47.0362 48.28 46.9092 48.0134 46.6426L42.2751 40.8916C41.7419 40.3584 40.8914 40.3711 40.3582 40.8916C39.8376 41.4248 39.8376 42.2754 40.3582 42.8086C40.8914 43.3418 40.8914 44.1924 40.3582 44.7256C39.825 45.2461 38.9744 45.2588 38.4412 44.7256C36.8542 43.1387 36.8542 40.5616 38.4412 38.9873C40.0154 37.4004 42.6052 37.4004 44.1921 38.9873L49.9304 44.7256C50.4636 45.2588 50.4636 46.1094 49.9304 46.6426C49.6765 46.9092 49.3337 47.0362 48.9783 47.0362Z" fill="#FFA801"/>
<path d="M52.8123 43.2022C52.4695 43.2022 52.114 43.0752 51.8474 42.8086L48.0134 38.9746C47.4802 38.4414 46.6296 38.4414 46.0964 38.9746C45.5632 39.5078 45.5632 40.3584 46.0964 40.8916C46.6296 41.4248 46.6296 42.2754 46.0964 42.8086C45.5632 43.3418 44.7126 43.3418 44.1794 42.8086C42.5925 41.2217 42.5925 38.6445 44.1794 37.0703C45.7664 35.4834 48.3435 35.4834 49.9177 37.0703L53.7517 40.9043C54.2849 41.4375 54.2849 42.2881 53.7517 42.8213C53.5105 43.0752 53.155 43.2022 52.8123 43.2022Z" fill="#FFA801"/>
<path d="M49.4863 65C48.4834 65 47.4805 64.873 46.4902 64.6318L37.0449 62.2197C36.6895 62.1309 36.3975 61.9023 36.207 61.5977C35.5596 60.4932 34.8994 57.8525 36.9941 55.7451C37.9209 54.8184 39.1777 54.4502 40.4092 54.374L28.8564 42.8213C28.0947 42.0596 27.6631 41.0313 27.6631 39.9521C27.6631 38.873 28.082 37.8447 28.8564 37.083C30.4434 35.4961 33.0205 35.4961 34.5947 37.083L46.084 48.5723C46.6172 49.1055 46.6172 49.9561 46.084 50.4893C45.5508 51.0225 44.7002 51.0225 44.167 50.4893L32.6777 39C32.1445 38.4795 31.2939 38.4668 30.7607 39C30.2275 39.5332 30.2275 40.3838 30.7607 40.917L45.1318 55.2754C45.5762 55.7197 45.6523 56.4053 45.3223 56.9385C44.9922 57.4717 44.3447 57.7129 43.7481 57.5098C42.5928 57.1289 39.8887 56.6719 38.9111 57.6621C38.1494 58.4238 38.2129 59.2617 38.3525 59.7695L47.1504 62.0166C50.3623 62.8418 53.8408 61.8896 56.1895 59.5283L59.4902 56.2275C61.2803 54.4375 62.2705 52.0508 62.2705 49.5244C62.2705 46.998 61.2803 44.6113 59.4902 42.8213L53.752 37.0703C53.2188 36.5498 52.3682 36.5371 51.835 37.0703C51.5811 37.3242 51.4414 37.667 51.4414 38.0352C51.4414 38.4033 51.5811 38.7334 51.835 38.9873C52.3682 39.5205 52.3682 40.3711 51.835 40.9043C51.3018 41.4375 50.4512 41.4375 49.918 40.9043C49.1436 40.1299 48.7246 39.1143 48.7246 38.0352C48.7246 36.9561 49.1436 35.9277 49.918 35.166C51.5049 33.5791 54.0693 33.5791 55.6563 35.166L61.3945 40.917C63.7305 43.1895 65 46.2617 65 49.5117C65 52.7617 63.7305 55.834 61.4326 58.1318L58.1318 61.4326C55.8213 63.7432 52.6855 65 49.4863 65Z" fill="#FFA801"/>
</svg>
