<svg width="56" height="56" viewBox="0 0 56 56" fill="none" xmlns="http://www.w3.org/2000/svg">
<path d="M28 56C20.5187 56 13.4859 53.0906 8.20312 47.7969C2.92031 42.5031 0 35.4813 0 28C0 20.5187 2.90937 13.4859 8.20312 8.20312C13.4969 2.92031 20.5187 0 28 0C35.4813 0 42.5141 2.90937 47.7969 8.20312C53.0797 13.4969 56 20.5187 56 28C56 35.4813 53.0906 42.5141 47.7969 47.7969C42.5031 53.0797 35.4813 56 28 56ZM28 3.5C14.4922 3.5 3.5 14.4922 3.5 28C3.5 41.5078 14.4922 52.5 28 52.5C41.5078 52.5 52.5 41.5078 52.5 28C52.5 14.4922 41.5078 3.5 28 3.5Z" fill="#FFA801"/>
<path d="M28 40.25C27.0375 40.25 26.25 39.4625 26.25 38.5C26.25 34.0812 27.9672 29.925 31.0953 26.8078C33.0531 24.85 34.125 22.2578 34.125 19.4906C34.125 16.4609 31.6641 14 28.6344 14H28.2406C25.2109 14 22.75 16.4609 22.75 19.4906V20.125C22.75 21.0875 21.9625 21.875 21 21.875C20.0375 21.875 19.25 21.0875 19.25 20.125V19.4906C19.25 14.5359 23.2859 10.5 28.2406 10.5H28.6344C33.5891 10.5 37.625 14.5359 37.625 19.4906C37.625 23.1875 36.1812 26.6656 33.5672 29.2797C31.1062 31.7406 29.75 35.0219 29.75 38.5C29.75 39.4625 28.9625 40.25 28 40.25Z" fill="#FFA801"/>
<path d="M28 47.25C27.0375 47.25 26.25 46.4625 26.25 45.5C26.25 44.5375 27.0375 43.75 28 43.75C28.9625 43.75 29.75 44.5375 29.75 45.5C29.75 46.4625 28.9734 47.25 28 47.25Z" fill="#FFA801"/>
</svg>
