<svg width="16" height="20" viewBox="0 0 16 20" fill="none" xmlns="http://www.w3.org/2000/svg">
<path fill-rule="evenodd" clip-rule="evenodd" d="M0.125 15.25C0.125 14.9516 0.243526 14.6655 0.454505 14.4545C0.665483 14.2435 0.951631 14.125 1.25 14.125H9.5C9.79837 14.125 10.0845 14.2435 10.2955 14.4545C10.5065 14.6655 10.625 14.9516 10.625 15.25C10.625 15.5484 10.5065 15.8345 10.2955 16.0455C10.0845 16.2565 9.79837 16.375 9.5 16.375H1.25C0.951631 16.375 0.665483 16.2565 0.454505 16.0455C0.243526 15.8345 0.125 15.5484 0.125 15.25Z" fill="#FFA801"/>
<path fill-rule="evenodd" clip-rule="evenodd" d="M3.125 1.75C3.125 1.45163 3.24353 1.16548 3.4545 0.954505C3.66548 0.743526 3.95163 0.625 4.25 0.625H9.875C11.4663 0.625 12.9924 1.25714 14.1176 2.38236C15.2429 3.50758 15.875 5.0337 15.875 6.625C15.875 8.2163 15.2429 9.74242 14.1176 10.8676C12.9924 11.9929 11.4663 12.625 9.875 12.625H5.375V18.25C5.375 18.5484 5.25647 18.8345 5.0455 19.0455C4.83452 19.2565 4.54837 19.375 4.25 19.375C3.95163 19.375 3.66548 19.2565 3.4545 19.0455C3.24353 18.8345 3.125 18.5484 3.125 18.25V12.625H1.25C0.951631 12.625 0.665483 12.5065 0.454505 12.2955C0.243526 12.0845 0.125 11.7984 0.125 11.5C0.125 11.2016 0.243526 10.9155 0.454505 10.7045C0.665483 10.4935 0.951631 10.375 1.25 10.375H3.125V1.75ZM5.375 10.375H9.875C10.8696 10.375 11.8234 9.97991 12.5267 9.27665C13.2299 8.57339 13.625 7.61956 13.625 6.625C13.625 5.63044 13.2299 4.67661 12.5267 3.97335C11.8234 3.27009 10.8696 2.875 9.875 2.875H5.375V10.375Z" fill="#FFA801"/>
</svg>
